/* XPM */
static char * buttonI_xpm[] = {
"2 19 24 1",
" 	c None",
".	c #F2FAFF",
"+	c #7ED0FE",
"@	c #CCF2FE",
"#	c #7ACDFE",
"$	c #8BDBFE",
"%	c #74C8FE",
"&	c #7BCEFE",
"*	c #72C6FE",
"=	c #74C7FE",
"-	c #78CAFE",
";	c #7FCDFE",
">	c #86D1FE",
",	c #8CD5FE",
"'	c #95DAFE",
")	c #95D9FE",
"!	c #9CDEFE",
"~	c #A4E2FE",
"{	c #ABE6FE",
"]	c #B7EBFE",
"^	c #C4F0FE",
"/	c #D0F2FE",
"(	c #D7F5FE",
"_	c #BAEEFE",
".+",
"@#",
"$%",
"&*",
"==",
"--",
";;",
">>",
",,",
"')",
"!!",
"~~",
"{{",
"]]",
"^^",
"//",
"((",
"__",
"!!"};
