/* XPM */
static char * closeA_xpm[] = {
"24 52 278 2",
"  	c None",
". 	c #3CA0FF",
"+ 	c #3BA0FF",
"@ 	c #40B3FF",
"# 	c #43A8FF",
"$ 	c #44A4FF",
"% 	c #43A4FF",
"& 	c #45C8FF",
"* 	c #46BFFF",
"= 	c #49B4FF",
"- 	c #48A6FC",
"; 	c #2B61CB",
"> 	c #1127A1",
", 	c #000085",
"' 	c #2A61CB",
") 	c #49A4FC",
"! 	c #4AA7FF",
"~ 	c #49A7FF",
"{ 	c #4ECAFF",
"] 	c #4DCAFF",
"^ 	c #45B4F1",
"/ 	c #0F249D",
"( 	c #123BC7",
"_ 	c #0E50EC",
": 	c #0751FA",
"< 	c #1239C7",
"[ 	c #0F209D",
"} 	c #4697F1",
"| 	c #4FAAFF",
"1 	c #50AAFF",
"2 	c #54CCFF",
"3 	c #52C8FC",
"4 	c #10269D",
"5 	c #0D54EF",
"6 	c #0754FA",
"7 	c #28A5FC",
"8 	c #C7F5FF",
"9 	c #FFFFFF",
"0 	c #50F3FF",
"a 	c #15E6FE",
"b 	c #14DEFE",
"c 	c #13D3FE",
"d 	c #12C8FD",
"e 	c #11BDFD",
"f 	c #10B3FD",
"g 	c #0FA4FC",
"h 	c #0C8AFC",
"i 	c #0D51EF",
"j 	c #10209D",
"k 	c #52A9FC",
"l 	c #54ACFF",
"m 	c #2A6EC7",
"n 	c #1142CB",
"o 	c #11C2FD",
"p 	c #9CEDFF",
"q 	c #4EDDFE",
"r 	c #4DD9FE",
"s 	c #12C5FD",
"t 	c #0FA8FD",
"u 	c #0E9FFC",
"v 	c #0D96FC",
"w 	c #0D8EFC",
"x 	c #0C89FC",
"y 	c #113DCB",
"z 	c #2B5DC7",
"A 	c #46C8FF",
"B 	c #0F2C9F",
"C 	c #0D53EC",
"D 	c #0B79FB",
"E 	c #0FA7FC",
"F 	c #4BBCFD",
"G 	c #1A1E46",
"H 	c #0EA1FC",
"I 	c #0E9DFC",
"J 	c #0E99FC",
"K 	c #0D93FC",
"L 	c #0C8CFC",
"M 	c #0C85FB",
"N 	c #0B7EFB",
"O 	c #0A6FFB",
"P 	c #0A6DFB",
"Q 	c #0A6CFB",
"R 	c #0D50EC",
"S 	c #10259F",
"T 	c #3DC5FF",
"U 	c #030B8B",
"V 	c #0757F7",
"W 	c #0A71FC",
"X 	c #0A78FC",
"Y 	c #0A74FC",
"Z 	c #0A72FC",
"` 	c #096FFC",
" .	c #096CFC",
"..	c #0969FB",
"+.	c #0861FB",
"@.	c #0860FB",
"#.	c #0862FB",
"$.	c #0856F7",
"%.	c #04098B",
"&.	c #33C2FF",
"*.	c #075DFB",
"=.	c #27BFFF",
"-.	c #0666FB",
";.	c #0665FB",
">.	c #349CFF",
",.	c #359DFF",
"'.	c #1CBBFF",
").	c #0669FB",
"!.	c #066EFC",
"~.	c #066FFC",
"{.	c #2B98FF",
"].	c #0571FC",
"^.	c #0578FC",
"/.	c #0FB8FF",
"(.	c #057AFC",
"_.	c #0483FD",
":.	c #17ABFF",
"<.	c #1CA2FF",
"[.	c #02B4FF",
"}.	c #048DFD",
"|.	c #01B4FF",
"1.	c #00B0FA",
"2.	c #048BFD",
"3.	c #0396FE",
"4.	c #0397FE",
"5.	c #048AFD",
"6.	c #00ACF4",
"7.	c #0392FD",
"8.	c #02A0FE",
"9.	c #00A7EE",
"0.	c #0393FD",
"a.	c #02A8FE",
"b.	c #202553",
"c.	c #0399FE",
"d.	c #00A8EF",
"e.	c #00A4E9",
"f.	c #00098A",
"g.	c #028BF7",
"h.	c #01AFFF",
"i.	c #0195F7",
"j.	c #00A0E3",
"k.	c #002399",
"l.	c #036FE3",
"m.	c #02ABFF",
"n.	c #02A3FE",
"o.	c #009BDD",
"p.	c #0054B4",
"q.	c #004AB3",
"r.	c #048EFD",
"s.	c #0145B9",
"t.	c #0097D7",
"u.	c #0094D5",
"v.	c #001D94",
"w.	c #0276E6",
"x.	c #0093D1",
"y.	c #0083C9",
"z.	c #001C93",
"A.	c #013DB4",
"B.	c #026EDF",
"C.	c #0083C8",
"D.	c #0093D2",
"E.	c #008FCC",
"F.	c #008CCA",
"G.	c #0053AD",
"H.	c #002295",
"I.	c #008CC7",
"J.	c #0088C1",
"K.	c #0089C2",
"L.	c #0085BD",
"M.	c #0085BC",
"N.	c #007FC0",
"O.	c #46A0F7",
"P.	c #1D2FAA",
"Q.	c #1B1CA0",
"R.	c #2222A7",
"S.	c #1C2FAA",
"T.	c #479EF7",
"U.	c #3991DE",
"V.	c #1C1EA3",
"W.	c #2637D1",
"X.	c #3051F2",
"Y.	c #3254FD",
"Z.	c #1C1DA3",
"`.	c #3A7ADE",
" +	c #4EC0F7",
".+	c #3051F5",
"++	c #4EA3F7",
"@+	c #1C30A7",
"#+	c #283BD4",
"$+	c #3557FD",
"%+	c #719DFE",
"&+	c #CEDFFF",
"*+	c #DCE1FF",
"=+	c #D1D9FF",
"-+	c #96C4FE",
";+	c #7CB4FE",
">+	c #72A7FE",
",+	c #699CFE",
"'+	c #6292FE",
")+	c #5B89FE",
"!+	c #5581FE",
"~+	c #4F79FD",
"{+	c #456DFD",
"]+	c #3355FD",
"^+	c #1C2BA7",
"/+	c #3150F2",
"(+	c #3457FD",
"_+	c #7EB6FE",
":+	c #301B59",
"<+	c #AECAFE",
"[+	c #8AB6FE",
"}+	c #81AAFE",
"|+	c #6596FE",
"1+	c #5D8CFE",
"2+	c #5683FE",
"3+	c #507AFD",
"4+	c #446BFD",
"5+	c #4269FD",
"6+	c #3251F2",
"7+	c #2020A4",
"8+	c #3357FB",
"9+	c #3357FC",
"0+	c #4E7AFD",
"a+	c #6B9FFD",
"b+	c #5988FD",
"c+	c #5482FD",
"d+	c #4974FD",
"e+	c #456EFC",
"f+	c #3B62FC",
"g+	c #3A61FC",
"h+	c #3A60FC",
"i+	c #3961FB",
"j+	c #345CFC",
"k+	c #4673FC",
"l+	c #4A77FD",
"m+	c #406BFC",
"n+	c #3D68FC",
"o+	c #3B64FC",
"p+	c #365FFC",
"q+	c #3760FC",
"r+	c #3661FC",
"s+	c #3764FC",
"t+	c #3867FC",
"u+	c #3969FC",
"v+	c #3A6EFB",
"w+	c #3B70FB",
"x+	c #3C75FB",
"y+	c #3E7BFB",
"z+	c #3E7AFB",
"A+	c #4082FA",
"B+	c #3F80FA",
"C+	c #4289FA",
"D+	c #448EFA",
"E+	c #362164",
"F+	c #4184FA",
"G+	c #3E7AF8",
"H+	c #4592FA",
"I+	c #3F81F7",
"J+	c #1A1CA0",
"K+	c #3665ED",
"L+	c #4590FA",
"M+	c #4696F9",
"N+	c #438BFA",
"O+	c #0F28A1",
"P+	c #2844C4",
"Q+	c #3E7CFB",
"R+	c #2840CB",
"S+	c #008ED2",
"T+	c #1B1DA0",
"U+	c #386CEF",
"V+	c #1B1DA1",
"W+	c #036BBE",
"X+	c #263BC7",
"Y+	c #3667EC",
"Z+	c #036BBD",
"`+	c #0086C7",
" @	c #0E2AA0",
".@	c #1A1C9F",
". . . . . . . . . . . . . . . . . + . . . . . . ",
"@ # $ % $ $ $ % $ $ $ % % % % $ $ % $ % % $ $ $ ",
"& * = - ; > , , , , , , , , , , , > ' ) ! ~ ! ~ ",
"{ ] ^ / ( _ : : : : : : : : : : : _ < [ } | | 1 ",
"2 3 4 5 6 7 8 9 9 0 a b c d e f g h 6 i j k l l ",
"] m n 6 o 9 9 p q r s e f t u v w x x 6 y z | | ",
"A B C D E F G G H I J K L M N G G O P Q R S ! ~ ",
"T U V W X X 9 9 G Y Z `  ...G 9 9 +.@.#.$.%.$ $ ",
"&., *.*.*.*.9 9 9 G *.*.*.G 9 9 9 *.*.*.*., . . ",
"=., -.-.-.-.-.9 9 9 G ;.G 9 9 9 -.-.-.-.-., >.,.",
"'., ).!.!.~.~.~.9 9 9 G 9 9 9 ~.!.~.~.~.)., {.{.",
"'., ].^.^.^.^.^.^.9 9 9 9 9 ^.^.^.^.^.^.]., {.{.",
"/., (._._._._._._.G 9 9 9 G _._._._._._.(., :.<.",
"[., _.}.}.}.}.}.G 9 9 9 9 9 G }.}.}.}.}._., |.|.",
"1., 2.3.4.4.4.G 9 9 9 3.9 9 9 G 4.4.3.3.5., 1.1.",
"6., 7.8.8.8.G 9 9 9 8.8.8.9 9 9 G 8.8.8.7., 6.6.",
"9., 0.a.a.b.9 9 9 a.a.a.a.a.9 9 9 b.a.a.c., d.9.",
"e.f.g.h.h.h.9 9 h.h.h.h.h.h.h.9 9 h.h.h.i.f.e.e.",
"j.k.l.m.|.|.|.|.|.|.|.|.|.|.|.|.|.|.|.n.l.k.j.j.",
"o.p.q.r.m.|.|.|.|.|.|.|.|.|.|.|.|.|.m.r.s.p.o.o.",
"t.u.v.w.r.n.|.|.|.|.|.|.|.|.|.|.|.m.r.w.v.u.t.t.",
"x.x.y.z.A.B.r.r.r.r.r.r.r.r.r.r.r.B.A.z.C.D.x.x.",
"E.E.E.F.G.H., , , , , , , , , , , H.G.F.E.E.E.E.",
"I.I.I.I.I.I.I.I.I.I.I.I.I.I.I.I.I.I.I.I.I.I.I.I.",
"J.J.J.J.J.J.J.J.J.J.J.J.J.J.K.J.J.J.J.J.K.J.J.J.",
"L.M.L.M.L.L.L.M.M.M.L.M.L.L.L.L.L.M.L.L.L.M.L.N.",
". . . . . . . . . . . . . . . . . + . . . . . . ",
"@ # $ % $ $ $ % $ $ $ % % % % $ $ % $ % % $ $ $ ",
"& * = O.P.Q.R.R.R.R.R.R.R.R.R.R.R.Q.S.T.! ~ ! ~ ",
"{ ] U.V.W.X.Y.Y.Y.Y.Y.Y.Y.Y.Y.Y.Y.X.W.Z.`.| | 1 ",
"2  +V..+Y.Y.Y.Y.Y.Y.Y.Y.Y.Y.Y.Y.Y.Y.Y..+Z.++l l ",
"] @+#+Y.Y.$+%+&+*+=+-+;+>+,+'+)+!+~+{+]+#+^+| | ",
"A Q./+Y.(+_+:+:+<+[+}+|+1+2+3+:+:+4+5+5+6+Q.! ~ ",
"T 7+8+9+0+a+9 9 :+b+c+0+d+e+:+9 9 f+g+h+i+7+$ $ ",
"&.R.j+j+k+l+9 9 9 :+m+n+o+:+9 9 9 p+p+p+q+R.. . ",
"=.R.r+r+r+r+r+9 9 9 :+r+:+9 9 9 r+r+r+r+r+R.>.,.",
"'.R.s+t+t+t+t+t+9 9 9 :+9 9 9 t+t+t+t+t+s+R.{.{.",
"'.R.u+v+v+v+v+v+v+9 9 9 9 9 v+v+v+v+v+v+u+R.{.{.",
"/.R.w+x+x+x+x+x+x+:+9 9 9 :+x+x+x+x+x+x+w+R.:.<.",
"[.R.x+y+y+y+y+y+:+9 9 9 9 9 :+y+y+y+y+y+x+R.|.|.",
"1.R.z+A+A+A+A+:+9 9 9 A+9 9 9 :+A+A+A+A+z+R.1.1.",
"6.R.B+C+C+C+:+9 9 9 C+C+C+9 9 9 :+C+C+C+B+R.6.6.",
"9.R.B+D+D+E+9 9 9 D+D+D+D+D+9 9 9 E+D+D+F+R.d.9.",
"e.7+G+H+H+H+9 9 H+H+H+H+H+H+H+9 9 H+H+H+I+7+e.e.",
"j.J+K+L+M+M+M+M+M+M+M+M+M+M+M+M+M+M+M+N+K+J+j.j.",
"o.O+P+Q+L+M+M+M+M+M+M+M+M+M+M+M+M+M+L+Q+R+O+o.o.",
"t.S+T+U+Q+N+M+M+M+M+M+M+M+M+M+M+M+L+Q+U+V+S+t.t.",
"x.x.W+V+X+Y+Q+Q+Q+Q+Q+Q+Q+Q+Q+Q+Q+Y+X+V+Z+D.x.x.",
"E.E.E.`+ @.@R.R.R.R.R.R.R.R.R.R.R..@ @`+E.E.E.E.",
"I.I.I.I.I.I.I.I.I.I.I.I.I.I.I.I.I.I.I.I.I.I.I.I.",
"J.J.J.J.J.J.J.J.J.J.J.J.J.J.K.J.J.J.J.J.K.J.J.J.",
"L.M.L.M.L.L.L.M.M.M.L.M.L.L.L.L.L.M.L.L.L.M.L.N."};
