/* XPM */
static char * frameATR_xpm[] = {
"37 29 60 1",
" 	c None",
".	c #01A2E6",
"+	c #0E9DE6",
"@	c #1387E7",
"#	c #1581E7",
"$	c #1480E7",
"%	c #1BBBFF",
"&	c #1CBBFF",
"*	c #1DB7FF",
"=	c #25A9FF",
"-	c #2A9CFF",
";	c #2B98FF",
">	c #2A98FF",
",	c #1B83E7",
"'	c #29BFFF",
")	c #27BFFF",
"!	c #2CB5FF",
"~	c #30A8FF",
"{	c #349CFF",
"]	c #359DFF",
"^	c #2086E7",
"/	c #32C2FF",
"(	c #33C2FF",
"_	c #33C1FF",
":	c #37B4FF",
"<	c #3BA7FF",
"[	c #3CA0FF",
"}	c #3BA0FF",
"|	c #2588E7",
"1	c #44A4FF",
"2	c #2A8BE7",
"3	c #4AA7FF",
"4	c #2E8CE7",
"5	c #4FAAFF",
"6	c #50AAFF",
"7	c #318EE7",
"8	c #54ACFF",
"9	c #348FE7",
"0	c #49A7FF",
"a	c #49A5FF",
"b	c #43A4FF",
"c	c #209AFF",
"d	c #2294FF",
"e	c #05B2FF",
"f	c #1089FF",
"g	c #0E78DE",
"h	c #00B0FA",
"i	c #0A74DA",
"j	c #00ACF4",
"k	c #00A7EE",
"l	c #00A4E9",
"m	c #00A0E3",
"n	c #046CD1",
"o	c #009BDD",
"p	c #0067CC",
"q	c #0097D7",
"r	c #0093D2",
"s	c #008FCC",
"t	c #0084C8",
"u	c #007BC5",
"..+@##########$$$##$######$######### ",
"%&%*=-;;;;;;;;;;>;;;;;;;;;;>;;;;;>;;,",
"'))))!~{{{{{{{]{{{{{{]{{]{{]{{]{{{]{^",
"/(((((_:<[[[[[[[[[[[[[[[[[}[[[[[[[}[|",
"                                 1112",
"                                 3334",
"                                 5657",
"                                 8889",
"                                 5557",
"                                 00a4",
"                                 bba2",
"                                 [[a|",
"                                 {{a^",
"                                 ;;a,",
"                                 ;;a,",
"                                 cda$",
"                                 efag",
"                                 hfai",
"                                 jfai",
"                                 kfai",
"                                 lfai",
"                                 mfan",
"                                 ofap",
"                                 qfap",
"                                 rfap",
"                                 sfap",
"                                 tfap",
"                                 ufap",
"                                 pfap"};
