/* XPM */
static char * frameATL_xpm[] = {
"81 29 135 2",
"  	c None",
". 	c #157FE7",
"+ 	c #167FE7",
"@ 	c #1189E7",
"# 	c #1B82E7",
"$ 	c #2C97FF",
"% 	c #2B96FF",
"& 	c #29A2FF",
"* 	c #1FB6FF",
"= 	c #2084E7",
"- 	c #359BFF",
"; 	c #349BFF",
"> 	c #33A2FF",
", 	c #2CB5FF",
"' 	c #27BFFF",
") 	c #2587E7",
"! 	c #3C9FFF",
"~ 	c #3B9EFF",
"{ 	c #3BA1FF",
"] 	c #37B5FF",
"^ 	c #33C2FF",
"/ 	c #2A89E7",
"( 	c #44A3FF",
"_ 	c #43A2FF",
": 	c #41B5FF",
"< 	c #3DC5FF",
"[ 	c #3CC5FF",
"} 	c #2D8BE7",
"| 	c #49A5FF",
"1 	c #4AA6FF",
"2 	c #48B4FF",
"3 	c #46C7FF",
"4 	c #45C8FF",
"5 	c #308CE7",
"6 	c #50A9FF",
"7 	c #4FA8FF",
"8 	c #4FB4FF",
"9 	c #4FC6FF",
"0 	c #4DCAFF",
"a 	c #338EE7",
"b 	c #54ABFF",
"c 	c #54B4FF",
"d 	c #54C5FF",
"e 	c #54CCFF",
"f 	c #50B0FF",
"g 	c #4EC1FF",
"h 	c #4ECAFF",
"i 	c #49ACFF",
"j 	c #48BEFF",
"k 	c #46C8FF",
"l 	c #42A7FF",
"m 	c #3FB9FF",
"n 	c #3BA4FF",
"o 	c #339FFF",
"p 	c #2DB1FF",
"q 	c #29BFFF",
"r 	c #2A9CFF",
"s 	c #23ADFF",
"t 	c #1CBBFF",
"u 	c #1BBBFF",
"v 	c #2392FF",
"w 	c #2292FF",
"x 	c #0FB8FF",
"y 	c #0F7DE7",
"z 	c #1A8EFF",
"A 	c #198EFF",
"B 	c #008DEF",
"C 	c #00B0FA",
"D 	c #01B4FF",
"E 	c #02B4FF",
"F 	c #0979E7",
"G 	c #1089FF",
"H 	c #0F89FF",
"I 	c #0376E7",
"J 	c #0584FF",
"K 	c #0684FF",
"L 	c #00ACF4",
"M 	c #00ACF5",
"N 	c #0073E4",
"O 	c #007FFC",
"P 	c #007FFB",
"Q 	c #009FEA",
"R 	c #00A8EF",
"S 	c #00A7EE",
"T 	c #0072E0",
"U 	c #007CF4",
"V 	c #00A4E9",
"W 	c #00A3E8",
"X 	c #006FDC",
"Y 	c #0078ED",
"Z 	c #0078EE",
"` 	c #009EE3",
" .	c #00A0E3",
"..	c #006DD7",
"+.	c #0075E6",
"@.	c #0075E7",
"#.	c #008ED9",
"$.	c #009CDD",
"%.	c #009BDD",
"&.	c #006BD4",
"*.	c #0071E0",
"=.	c #0071DF",
"-.	c #007DDD",
";.	c #0097D7",
">.	c #0069CF",
",.	c #006ED8",
"'.	c #006ED9",
").	c #007FD5",
"!.	c #008ED2",
"~.	c #0093D2",
"{.	c #0093D1",
"].	c #0067CB",
"^.	c #006AD2",
"/.	c #006BD3",
"(.	c #0070D1",
"_.	c #0080CF",
":.	c #008FCC",
"<.	c #0065C7",
"[.	c #0067CC",
"}.	c #0073CA",
"|.	c #0082C8",
"1.	c #008CC7",
"2.	c #0063C4",
"3.	c #0064C6",
"4.	c #0065C6",
"5.	c #0068C5",
"6.	c #0076C3",
"7.	c #0085C2",
"8.	c #0088C1",
"9.	c #0089C2",
"0.	c #0061C0",
"a.	c #006CBF",
"b.	c #0079BE",
"c.	c #0085BD",
"d.	c #0085BC",
"  . + + + + + + + + + + + + + + + + + . + + . . + + + + + + + + + + + + + + + + + + . . . + + . . . + + + + . + + + + + + + + + + + + + + + + + + . + + + + + + @ ",
"# $ $ $ $ $ $ $ $ $ $ $ $ $ $ $ $ $ $ $ $ $ $ $ $ $ % $ $ $ $ % $ $ $ $ $ % % $ $ $ $ $ $ $ $ $ $ $ $ $ $ % $ $ $ $ $ $ $ $ $ $ $ $ $ $ $ $ $ $ $ % $ $ $ $ $ & * ",
"= - - - - - ; ; ; - ; ; ; - ; ; ; ; - ; ; ; ; ; - ; ; ; ; ; - ; ; - ; ; ; ; - ; ; ; ; - ; ; ; ; - ; ; ; ; ; ; ; ; ; ; ; ; ; ; ; ; ; ; - ; ; ; ; ; - ; ; ; ; > , ' ",
") ! ! ! ! ! ! ! ! ! ! ! ! ! ! ! ! ! ! ! ! ! ! ! ! ! ! ! ! ! ! ! ! ! ! ! ! ! ! ! ! ! ! ! ! ! ! ! ! ! ! ! ! ! ! ! ! ! ! ! ! ! ! ! ! ! ! ! ! ! ~ ! ! ! ! ! ~ { ] ^ ^ ",
"/ ( ( ( _ _ ( ( ( ( ( ( ( ( ( ( ( ( ( ( ( _ ( ( ( ( ( ( ( ( ( ( ( ( ( ( ( ( ( ( ( ( ( ( ( ( ( ( ( ( ( ( _ ( ( _ ( ( ( ( ( _ _ _ ( _ _ _ _ _ _ _ _ ( _ _ _ : < < [ ",
"} | | 1 | | 1 1 1 1 | | 1 1 | | 1 1 1 | | | 1 1 1 | | | 1 1 1 | | 1 | | 1 1 1 | | 1 1 1 | | 1 1 1 | | 1 1 | | 1 | | 1 | 1 | | 1 | | | | 1 1 | | 1 1 | | 2 3 4 4 4 ",
"5 6 7 6 7 7 6 7 7 7 7 7 7 7 7 7 7 7 7 7 7 7 7 7 7 7 7 6 7 7 7 7 7 7 7 7 7 7 7 7 7 7 7 7 7 7 7 7 7 7 7 6 7 7 6 7 6 6 7 7 7 6 6 7 7 7 6 6 7 6 7 7 7 6 6 8 9 0 0 0 0 ",
"a b b b b b b b b b b b b b b b b b b b b b b b b b b b b b b b b b b b b b b b b b b b b b b b b b b b b b b b b b b b b b b b b b b b b b b b b b c d e e e e e ",
"5 6 7 7 6 6 6 7 7 7 6 7 7 7 6 7 7 7 7 6 7 6 7 7 7 6 7 6 7 7 7 6 7 7 6 7 7 7 7 6 7 7 7 7 6 7 7 7 7 6 7 6 7 7 7 6 7 7 7 7 7 6 6 7 6 7 6 6 7 7 7 6 7 f g h h 0 h 0 h ",
"} | | | | 1 | | | 1 | | | 1 | | | | 1 | | | | | 1 | | 1 | | 1 | | 1 | | | | 1 | | | | 1 | | | | 1 | | | 1 | | | | | 1 1 | 1 | | | | | | 1 | 1 | i j k k 4 4 k 4 4 ",
"/ ( _ ( _ _ ( _ ( ( ( ( ( ( ( ( _ ( ( ( ( ( _ ( ( ( ( ( _ ( ( ( ( ( ( ( _ ( ( ( ( _ ( ( ( ( _ ( ( ( ( ( _ _ ( ( ( ( _ _ ( ( _ _ ( ( _ _ ( ( ( l m < [ [ < [ < [ [ ",
") | ~ ! ! ! ! ! ! ! ! ! ! ! ! ! ! ! ! ! ! ! ! ! ! ! ! ! ! ! ! ! ! ! ! ! ! ! ! ! ! ! ! ! ! ! ! ! ! ! ! ! ! ! ! ! ! ! ! ! ! ! ! ! ! ! ! ! ! ! n ] ^ ^ ^ ^ ^ ^ ^ ^ ^ ",
"= | ; ; ; ; ; ; ; - ; ; ; - ; ; ; ; - ; ; - ; ; - ; ; ; ; ; - ; ; - ; ; ; ; - ; ; ; ; - ; ; ; ; - ; ; ; ; ; ; ; ; ; ; ; ; ; ; ; - ; - ; ; o p ' ' ' q ' ' q ' q q ",
"# | $ $ $ % $ $ % $ $ $ % $ $ $ $ % $ $ $ $ $ % $ $ $ $ $ % $ $ $ $ $ $ $ % $ $ $ $ % $ $ $ $ % $ $ $ $ $ $ % $ $ % $ $ $ % $ $ $ $ $ $ r s t t t t t t u u t t t ",
"# | $ $ $ % $ $ % $ $ $ % $ $ $ $ % $ $ $ $ $ % $ $ $ $ $ % $ $ $ $ $ $ $ % $ $ $ $ % $ $ $ $ % $ $ $ $ $ $ % $ $ % $ $ $ $ % $ $ $ % $ $ t t t t t t t u u t t t ",
". | v v v w v v v v v v v v v v v v v v v v v v v v v v v v v v v v v v v v v v v v v v v v v v v v v v v v v v v v v v v v v v v v v $ s x x x x x x x x x x x x ",
"y | z A A z A z A A A A A A A A z A A A A z z A A A A A z A A A A A A A z A A A A z A A A A z A A A A A A z A A A A A A z z A z z z B s C D E D D E D D E E D E D ",
"F | G H H H H H G H G G G H G G H G H G G G H G H G G H H G H G G H G G H G H G G H G H G G H G H G G G G H G G G G G G H H G H H B s C C C C C C C C C C C C C C ",
"I | G J K K J J J J J J J J J J J J J J J K J J J J J J J J J J J J J J J J J J J J J J J J J J J J J J J J J J J J J J J J J z B s C C C C L L L L L L L L M L L ",
"N | G O O O O P P P P O P P P O P P P P O P P P P P O O P P P P O P P O P P P P O P P P P O P P P P O P O P P P O P P O P P P B Q R L L L L R R S R R S R S S R R ",
"T | G U U U U U U U U U U U U U U U U U U U U U U U U U U U U U U U U U U U U U U U U U U U U U U U U U U U U U U U U U U U B Q V V W W V V V W W V W W V V V V W ",
"X | G Y Y Y Y Y Z Y Y Y Z Y Y Y Y Z Y Y Y Y Y Z Y Y Y Y Y Z Y Y Y Y Y Y Y Z Y Y Y Y Z Y Y Y Y Z Y Y Y Y Y Y Z Y Y Y Z Y U B `  . . . . . . . . . . . . . . . . . .",
"..| G +.+.+.+.+.+.@.@.+.+.@.@.+.+.+.@.@.+.+.+.+.@.@.+.+.+.+.@.@.+.@.@.+.+.+.@.@.+.+.+.@.@.+.+.+.@.@.+.@.+.+.+.@.+.+.+.@.#.$.$.%.%.$.$.$.%.$.$.$.$.%.$.$.%.$.$.$.$.",
"&.| G *.*.=.=.=.*.*.*.*.*.*.*.*.=.*.*.*.*.*.=.*.*.*.*.*.=.*.*.*.*.*.*.*.=.*.*.*.*.=.*.*.*.*.=.*.*.*.*.*.=.*.*.*.*.*.-.#.;.;.;.;.;.;.;.;.;.;.;.;.;.;.;.;.;.;.;.;.;.",
">.| G ,.,.,.,.,.'.'.'.'.'.'.'.'.,.'.'.'.'.'.,.'.'.'.'.'.,.'.'.'.'.'.'.'.,.'.'.'.'.,.'.'.'.'.,.'.'.'.'.'.'.'.'.,.,.).!.~.~.~.~.~.~.~.{.{.~.{.~.{.{.~.{.{.~.~.{.~.{.",
"].| G ^./././././.^.^././.^.^./././.^.^././././.^.^././././.^.^./.^.^./././.^.^./././.^.^./././.^.^./././.^.^.(._.:.:.:.:.:.:.:.:.:.:.:.:.:.:.:.:.:.:.:.:.:.:.:.:.",
"<.| G [.[.[.[.[.[.[.[.[.[.[.[.[.[.[.[.[.[.[.[.[.[.[.[.[.[.[.[.[.[.[.[.[.[.[.[.[.[.[.[.[.[.[.[.[.[.[.[.[.[.[.}.|.1.1.1.1.1.1.1.1.1.1.1.1.1.1.1.1.1.1.1.1.1.1.1.1.1.",
"2.| G 3.3.4.3.3.3.3.3.3.3.3.3.3.3.3.3.3.3.3.3.3.3.3.3.3.3.3.3.3.3.3.3.3.3.3.3.3.3.3.3.3.3.3.3.3.3.3.3.3.5.6.7.8.9.8.8.8.8.8.8.8.8.8.9.8.8.9.8.9.8.8.9.8.8.8.9.8.9.",
"0.| G 0.0.0.0.0.0.0.0.0.0.0.0.0.0.0.0.0.0.0.0.0.0.0.0.0.0.0.0.0.0.0.0.0.0.0.0.0.0.0.0.0.0.0.0.0.0.0.0.a.b.c.c.c.c.c.d.c.c.c.c.c.d.c.c.c.c.d.c.c.c.c.c.c.c.c.d.c.c."};
