/* XPM */
static char * maximizeA_xpm[] = {
"23 52 210 2",
"  	c None",
". 	c #33C2FF",
"+ 	c #32C2FF",
"@ 	c #33C1FF",
"# 	c #37B4FF",
"$ 	c #3BA7FF",
"% 	c #3CC5FF",
"& 	c #3DC5FF",
"* 	c #3EBFFF",
"= 	c #45C8FF",
"- 	c #46C8FF",
"; 	c #44C4FC",
"> 	c #2874CB",
", 	c #102FA1",
"' 	c #000085",
") 	c #45C4FC",
"! 	c #4ECAFF",
"~ 	c #4DCAFF",
"{ 	c #45B4F1",
"] 	c #0E289D",
"^ 	c #195AC7",
"/ 	c #2386EB",
"( 	c #2394FA",
"_ 	c #0F289D",
": 	c #54CCFF",
"< 	c #52C8FC",
"[ 	c #10289D",
"} 	c #248BEF",
"| 	c #2596FA",
"1 	c #59C8FC",
"2 	c #DAF9FF",
"3 	c #FFFFFF",
"4 	c #91F8FF",
"5 	c #69F0FE",
"6 	c #65EBFE",
"7 	c #60E4FE",
"8 	c #5BDDFD",
"9 	c #55D6FD",
"0 	c #51D0FD",
"a 	c #4AC7FC",
"b 	c #3EB7FC",
"c 	c #2B6EC7",
"d 	c #1B5FCC",
"e 	c #2496FA",
"f 	c #57D9FD",
"g 	c #BCF4FF",
"h 	c #87EAFE",
"i 	c #85E8FE",
"j 	c #59DBFD",
"k 	c #50D0FD",
"l 	c #4CCAFD",
"m 	c #47C4FC",
"n 	c #43BEFC",
"o 	c #3FB9FC",
"p 	c #3DB6FC",
"q 	c #2A6EC7",
"r 	c #0F2C9F",
"s 	c #2287EC",
"t 	c #35ACFB",
"u 	c #4BC9FC",
"v 	c #78D6FD",
"w 	c #4AC8FC",
"x 	c #49C7FC",
"y 	c #48C5FC",
"z 	c #47C3FC",
"A 	c #44C0FC",
"B 	c #41BCFC",
"C 	c #3EB8FC",
"D 	c #3BB4FB",
"E 	c #38B0FB",
"F 	c #35ABFB",
"G 	c #33A9FB",
"H 	c #31A6FB",
"I 	c #30A5FB",
"J 	c #030B8B",
"K 	c #2593F6",
"L 	c #34A8FB",
"M 	c #38ACFB",
"N 	c #0C118D",
"O 	c #2C9EFA",
"P 	c #2B9DFA",
"Q 	c #299AFA",
"R 	c #29BFFF",
"S 	c #2D9EF9",
"T 	c #27BFFF",
"U 	c #1CBBFF",
"V 	c #2FA0F9",
"W 	c #32A3F9",
"X 	c #33A4F9",
"Y 	c #37A8F9",
"Z 	c #0FB8FF",
"` 	c #38A9F9",
" .	c #3CADF8",
"..	c #01B4FF",
"+.	c #41B2F8",
"@.	c #00B0FA",
"#.	c #40B1F8",
"$.	c #46B7F8",
"%.	c #00ACF4",
"&.	c #44B5F8",
"*.	c #4BBCF8",
"=.	c #00A8EF",
"-.	c #4FC0F7",
";.	c #47B8F8",
">.	c #00A4E9",
",.	c #00098A",
"'.	c #3DAAF1",
").	c #52C3F7",
"!.	c #42B0F1",
"~.	c #00A0E3",
"{.	c #002399",
"].	c #288CE1",
"^.	c #50C1F7",
"/.	c #55C6F7",
"(.	c #4CBDF8",
"_.	c #009CDD",
":.	c #0054B4",
"<.	c #114FB2",
"[.	c #42B3F8",
"}.	c #0F53B8",
"|.	c #0097D7",
"1.	c #0094D5",
"2.	c #001D94",
"3.	c #2E93E3",
"4.	c #0093D2",
"5.	c #0083C8",
"6.	c #001C93",
"7.	c #0D4AB3",
"8.	c #2888DB",
"9.	c #0083C9",
"0.	c #0093D1",
"a.	c #008FCC",
"b.	c #008CCA",
"c.	c #0053AD",
"d.	c #002295",
"e.	c #008CC7",
"f.	c #0089C2",
"g.	c #0088C1",
"h.	c #0085BC",
"i.	c #0085BD",
"j.	c #42BDF7",
"k.	c #0E50B7",
"l.	c #034EB8",
"m.	c #0363C6",
"n.	c #43BDF7",
"o.	c #3698E1",
"p.	c #0351BA",
"q.	c #1773CC",
"r.	c #3BAAE8",
"s.	c #4EC1F7",
"t.	c #41B1ED",
"u.	c #0E4EB6",
"v.	c #1A78CE",
"w.	c #57C7F7",
"x.	c #85DDFA",
"y.	c #D4F4FE",
"z.	c #E2F5FE",
"A.	c #D9F2FD",
"B.	c #A1EAFC",
"C.	c #8BE4FC",
"D.	c #84E0FB",
"E.	c #7DDCFA",
"F.	c #78D9FA",
"G.	c #73D7FA",
"H.	c #6ED4F9",
"I.	c #6AD2F9",
"J.	c #63CEF8",
"K.	c #56C6F7",
"L.	c #034FB8",
"M.	c #3DACEA",
"N.	c #56C7F7",
"O.	c #8CE5FC",
"P.	c #EAF8FE",
"Q.	c #B9ECFD",
"R.	c #99E5FC",
"S.	c #92E2FB",
"T.	c #7ADBFA",
"U.	c #74D8FA",
"V.	c #6FD5F9",
"W.	c #6BD2F9",
"X.	c #67D0F9",
"Y.	c #64CFF8",
"Z.	c #62CDF8",
"`.	c #61CDF8",
" +	c #3DADEA",
".+	c #025DC2",
"++	c #4EC0F4",
"@+	c #69D1F9",
"#+	c #7EDDFB",
"$+	c #5BC9F8",
"%+	c #5AC9F7",
"&+	c #54C3F5",
"*+	c #62CEF8",
"=+	c #65CFF8",
"-+	c #4FC0F3",
";+	c #024FB8",
">+	c #3DA9E8",
",+	c #0146B0",
"'+	c #186DC7",
")+	c #1971CA",
"!+	c #008FD2",
"~+	c #0250B9",
"{+	c #42AFEB",
"]+	c #0072C0",
"^+	c #156DC8",
"/+	c #3CA7E6",
"(+	c #0072C1",
"_+	c #0087C7",
":+	c #0145AD",
"<+	c #024DB7",
". . . . . . + . . . . . + . + . . . . . @ # $ ",
"% % & & & % & % & % % % & & & & % & % % & % * ",
"= - - ; > , ' ' ' ' ' ' ' ' ' ' ' , > ) = - = ",
"! ~ { ] ^ / ( ( ( ( ( ( ( ( ( ( ( / ^ _ { ~ ~ ",
": < [ } | 1 2 3 3 4 5 6 7 8 9 0 a b | } [ < : ",
"! c d e f 3 3 g h i j 9 k l m n o p p e d q ~ ",
"- r s t u v w x y z A B C D E F G H I I s r = ",
"& J K L M M N N N N N N N N N N N O P O K J & ",
". ' Q Q Q Q N N N N N N N N N N N Q Q Q Q ' . ",
"R ' S S S S N N N N N N N N N N N S S S S ' T ",
"U ' V W W W N W W W W W W W W W N W W W V ' U ",
"U ' X Y Y Y N Y Y Y Y Y Y Y Y Y N Y Y Y X ' U ",
"Z ' `  . . .N  . . . . . . . . .N  . . .` ' Z ",
"..'  .+.+.+.N +.+.+.+.+.+.+.+.+.N +.+.+. .' ..",
"@.' #.$.$.$.N $.$.$.$.$.$.$.$.$.N $.$.$.#.' @.",
"%.' &.*.*.*.N *.*.*.*.*.*.*.*.*.N *.*.*.&.' %.",
"=.' &.-.-.-.N -.-.-.-.-.-.-.-.-.N -.-.-.;.' =.",
">.,.'.).).).N N N N N N N N N N N ).).).!.,.>.",
"~.{.].^./././././././././././././././.(.].{.~.",
"_.:.<.[.^./././././././././././././.^.[.}.:._.",
"|.1.2.3.[.(./././././././././././.^.[.3.2.1.|.",
"4.4.5.6.7.8.[.[.[.[.[.[.[.[.[.[.[.8.7.6.9.0.0.",
"a.a.a.b.c.d.' ' ' ' ' ' ' ' ' ' ' d.c.b.a.a.a.",
"e.e.e.e.e.e.e.e.e.e.e.e.e.e.e.e.e.e.e.e.e.e.e.",
"f.g.g.g.f.g.f.g.f.g.g.g.g.g.g.g.g.g.g.g.g.f.f.",
"h.i.h.i.i.i.h.i.h.i.i.i.h.i.i.i.i.i.i.h.i.i.i.",
". . . . . . + . . . . . + . + . . . . . @ # $ ",
"% % & & & % & % & % % % & & & & % & % % & % * ",
"= - - j.k.l.m.m.m.m.m.m.m.m.m.m.m.l.k.n.= - = ",
"! ~ o.p.q.r./././././././././././.r.q.p.o.~ ~ ",
": s.p.t./././././././././././././././.t.p.s.: ",
"! u.v././.w.x.y.z.A.B.C.D.E.F.G.H.I.J.K.v.u.~ ",
"- L.M./.N.O.P.z.Q.R.S.T.U.V.W.X.Y.Z.`.`. +L.= ",
"& .+++/.@+#+N N N N N N N N N N N $+%+%+&+.+& ",
". m././.*+=+N N N N N N N N N N N w.w.w.w.m.. ",
"R m././././.N N N N N N N N N N N /./././.m.T ",
"U m././././.N /././././././././.N /./././.m.U ",
"U m././././.N /././././././././.N /./././.m.U ",
"Z m././././.N /././././././././.N /./././.m.Z ",
"..m././././.N /././././././././.N /./././.m...",
"@.m././././.N /././././././././.N /./././.m.@.",
"%.m././././.N /././././././././.N /./././.m.%.",
"=.m././././.N /././././././././.N /./././.m.=.",
">..+-+/././.N N N N N N N N N N N /././.-+.+>.",
"~.;+>+/././././././././././././././././.>+;+~.",
"_.,+'+/././././././././././././././././.)+,+_.",
"|.!+~+{+/././././././././././././././.{+~+!+|.",
"4.4.]+~+^+/+/./././././././././././+^+~+(+0.0.",
"a.a.a._+:+<+m.m.m.m.m.m.m.m.m.m.m.<+:+_+a.a.a.",
"e.e.e.e.e.e.e.e.e.e.e.e.e.e.e.e.e.e.e.e.e.e.e.",
"f.g.g.g.f.g.f.g.f.g.g.g.g.g.g.g.g.g.g.g.g.f.f.",
"h.i.h.i.i.i.h.i.h.i.i.i.h.i.i.i.i.i.i.h.i.i.i."};
