/* XPM */
static char * menuButtonA_xpm[] = {
"26 52 36 1",
" 	c None",
".	c #3C9FFF",
"+	c #44A3FF",
"@	c #43A2FF",
"#	c #4AA6FF",
"$	c #49A5FF",
"%	c #4FA8FF",
"&	c #50A9FF",
"*	c #54ABFF",
"=	c #359BFF",
"-	c #349BFF",
";	c #2C97FF",
">	c #2B96FF",
",	c #2392FF",
"'	c #198EFF",
")	c #1A8EFF",
"!	c #0F89FF",
"~	c #1089FF",
"{	c #0584FF",
"]	c #0684FF",
"^	c #007FFB",
"/	c #007FFC",
"(	c #007CF4",
"_	c #0078ED",
":	c #0078EE",
"<	c #0075E7",
"[	c #0075E6",
"}	c #0071E0",
"|	c #0071DF",
"1	c #006ED9",
"2	c #006ED8",
"3	c #006AD2",
"4	c #006BD3",
"5	c #0067CC",
"6	c #0064C6",
"7	c #0061C0",
"..........................",
"++++++++++++@+++++++++++++",
"#$$##$$###$$$###$$$###$$#$",
"%%%%%%%%%%%%%%%%%%&%%%%%%%",
"**************************",
"%&%%%&%%%%&%&%%%&%&%%%&%%&",
"#$$$#$$$$#$$$$$#$$#$$#$$#$",
"+++++++@+++++@+++++@++++++",
"..........................",
"=---=----=--=--=-----=--=-",
";;;>;;;;>;;;;;>;;;;;>;;;;;",
";;;>;;;;>;;;;;>;;;;;>;;;;;",
",,,,,,,,,,,,,,,,,,,,,,,,,,",
"''''''')''''))''''')''''''",
"!~~~!~~!~!~~~!~!~~!!~!~~!~",
"{{{{{{{{{{{{]{{{{{{{{{{{{{",
"^^/^^^/^^^^/^^^^^//^^^^/^^",
"((((((((((((((((((((((((((",
"___:____:_____:_____:_____",
"<<[[<<[[[<<[[[[<<[[[[<<[<<",
"}}}}}}}|}}}}}|}}}}}|}}}}}}",
"11111112111112111112111111",
"33443344433444433444433433",
"55555555555555555555555555",
"66666666666666666666666666",
"77777777777777777777777777",
"..........................",
"++++++++++++@+++++++++++++",
"#$$##$$###$$$###$$$###$$#$",
"%%%%%%%%%%%%%%%%%%&%%%%%%%",
"**************************",
"%&%%%&%%%%&%&%%%&%&%%%&%%&",
"#$$$#$$$$#$$$$$#$$#$$#$$#$",
"+++++++@+++++@+++++@++++++",
"..........................",
"=---=----=--=--=-----=--=-",
";;;>;;;;>;;;;;>;;;;;>;;;;;",
";;;>;;;;>;;;;;>;;;;;>;;;;;",
",,,,,,,,,,,,,,,,,,,,,,,,,,",
"''''''')''''))''''')''''''",
"!~~~!~~!~!~~~!~!~~!!~!~~!~",
"{{{{{{{{{{{{]{{{{{{{{{{{{{",
"^^/^^^/^^^^/^^^^^//^^^^/^^",
"((((((((((((((((((((((((((",
"___:____:_____:_____:_____",
"<<[[<<[[[<<[[[[<<[[[[<<[<<",
"}}}}}}}|}}}}}|}}}}}|}}}}}}",
"11111112111112111112111111",
"33443344433444433444433433",
"55555555555555555555555555",
"66666666666666666666666666",
"77777777777777777777777777"};
