/* XPM */
static char * minimizeA_xpm[] = {
"23 52 226 2",
"  	c None",
". 	c #32C2FF",
"+ 	c #33C2FF",
"@ 	c #3DC5FF",
"# 	c #3CC5FF",
"$ 	c #45C8FF",
"% 	c #44C4FC",
"& 	c #2874CB",
"* 	c #102FA1",
"= 	c #000085",
"- 	c #45C4FC",
"; 	c #4DCAFF",
"> 	c #45B4F1",
", 	c #0E289D",
"' 	c #195AC7",
") 	c #2386EB",
"! 	c #2394FA",
"~ 	c #0F289D",
"{ 	c #54CCFF",
"] 	c #52C8FC",
"^ 	c #10289D",
"/ 	c #248BEF",
"( 	c #2596FA",
"_ 	c #59C8FC",
": 	c #DAF9FF",
"< 	c #FFFFFF",
"[ 	c #91F8FF",
"} 	c #69F0FE",
"| 	c #65EBFE",
"1 	c #60E4FE",
"2 	c #5BDDFD",
"3 	c #55D6FD",
"4 	c #51D0FD",
"5 	c #4AC7FC",
"6 	c #3EB7FC",
"7 	c #4ECAFF",
"8 	c #2B6EC7",
"9 	c #1B5FCC",
"0 	c #2496FA",
"a 	c #57D9FD",
"b 	c #BCF4FF",
"c 	c #87EAFE",
"d 	c #85E8FE",
"e 	c #59DBFD",
"f 	c #50D0FD",
"g 	c #4CCAFD",
"h 	c #47C4FC",
"i 	c #43BEFC",
"j 	c #3FB9FC",
"k 	c #3DB6FC",
"l 	c #2A6EC7",
"m 	c #46C8FF",
"n 	c #0F2C9F",
"o 	c #2387EC",
"p 	c #35ACFB",
"q 	c #4BC9FC",
"r 	c #78D6FD",
"s 	c #4AC8FC",
"t 	c #49C7FC",
"u 	c #48C5FC",
"v 	c #47C3FC",
"w 	c #44C0FC",
"x 	c #41BCFC",
"y 	c #3EB8FC",
"z 	c #3BB4FB",
"A 	c #38B0FB",
"B 	c #35ABFB",
"C 	c #33A9FB",
"D 	c #31A6FB",
"E 	c #30A5FB",
"F 	c #2287EC",
"G 	c #030B8B",
"H 	c #2593F6",
"I 	c #34A8FB",
"J 	c #38ACFB",
"K 	c #37ABFB",
"L 	c #36AAFB",
"M 	c #36A9FB",
"N 	c #33A6FB",
"O 	c #31A4FB",
"P 	c #30A3FB",
"Q 	c #2FA1FA",
"R 	c #2DA0FA",
"S 	c #2C9EFA",
"T 	c #2B9DFA",
"U 	c #299AFA",
"V 	c #27BFFF",
"W 	c #2D9EF9",
"X 	c #1BBBFF",
"Y 	c #2FA0F9",
"Z 	c #32A3F9",
"` 	c #1CBBFF",
" .	c #33A4F9",
"..	c #37A8F9",
"+.	c #0FB8FF",
"@.	c #38A9F9",
"#.	c #3CADF8",
"$.	c #01B4FF",
"%.	c #41B2F8",
"&.	c #00B0FA",
"*.	c #40B1F8",
"=.	c #46B7F8",
"-.	c #00ACF4",
";.	c #44B5F8",
">.	c #4BBCF8",
",.	c #0C118D",
"'.	c #00ACF5",
").	c #00A7EE",
"!.	c #4FC0F7",
"~.	c #47B8F8",
"{.	c #00A4E9",
"].	c #00098A",
"^.	c #3DAAF1",
"/.	c #52C3F7",
"(.	c #42B0F1",
"_.	c #00A0E3",
":.	c #002399",
"<.	c #288CE1",
"[.	c #50C1F7",
"}.	c #55C6F7",
"|.	c #4CBDF8",
"1.	c #009BDD",
"2.	c #0054B4",
"3.	c #114EB2",
"4.	c #42B3F8",
"5.	c #0F53B8",
"6.	c #0097D7",
"7.	c #0094D5",
"8.	c #001D94",
"9.	c #2E93E3",
"0.	c #0093D2",
"a.	c #0083C9",
"b.	c #001C93",
"c.	c #0D4AB3",
"d.	c #2888DB",
"e.	c #0083C8",
"f.	c #0093D1",
"g.	c #008FCC",
"h.	c #008CCA",
"i.	c #0053AD",
"j.	c #002295",
"k.	c #008CC7",
"l.	c #0088C1",
"m.	c #0089C2",
"n.	c #0085BD",
"o.	c #0085BC",
"p.	c #42BDF7",
"q.	c #0E50B7",
"r.	c #034EB8",
"s.	c #0363C6",
"t.	c #43BDF7",
"u.	c #3698E1",
"v.	c #0351BA",
"w.	c #1773CC",
"x.	c #3BAAE8",
"y.	c #4EC1F7",
"z.	c #41B1ED",
"A.	c #0E4EB6",
"B.	c #1A78CE",
"C.	c #57C7F7",
"D.	c #85DDFA",
"E.	c #D4F4FE",
"F.	c #E2F5FE",
"G.	c #D9F2FD",
"H.	c #A1EAFC",
"I.	c #8BE4FC",
"J.	c #84E0FB",
"K.	c #7DDCFA",
"L.	c #78D9FA",
"M.	c #73D7FA",
"N.	c #6ED4F9",
"O.	c #6AD2F9",
"P.	c #63CEF8",
"Q.	c #56C6F7",
"R.	c #034FB8",
"S.	c #3DACEA",
"T.	c #56C7F7",
"U.	c #8CE5FC",
"V.	c #EAF8FE",
"W.	c #B9ECFD",
"X.	c #99E5FC",
"Y.	c #92E2FB",
"Z.	c #7ADBFA",
"`.	c #74D8FA",
" +	c #6FD5F9",
".+	c #6BD2F9",
"++	c #67D0F9",
"@+	c #64CFF8",
"#+	c #62CDF8",
"$+	c #61CDF8",
"%+	c #3DADEA",
"&+	c #025DC2",
"*+	c #4EC0F4",
"=+	c #69D1F9",
"-+	c #7EDDFB",
";+	c #96E2FB",
">+	c #79DAFA",
",+	c #75D8FA",
"'+	c #71D6F9",
")+	c #6DD4F9",
"!+	c #65CFF8",
"~+	c #60CCF8",
"{+	c #5ECBF8",
"]+	c #5CCAF8",
"^+	c #5BC9F8",
"/+	c #5AC9F7",
"(+	c #54C3F5",
"_+	c #62CEF8",
":+	c #59C8F7",
"<+	c #58C8F7",
"[+	c #4FC0F3",
"}+	c #024FB8",
"|+	c #3DA9E8",
"1+	c #0146B0",
"2+	c #186DC7",
"3+	c #1971CA",
"4+	c #008FD2",
"5+	c #0250B9",
"6+	c #42AFEB",
"7+	c #0072C1",
"8+	c #156DC8",
"9+	c #3CA7E6",
"0+	c #0072C0",
"a+	c #0087C7",
"b+	c #0145AD",
"c+	c #024DB7",
". . . . . . . . . . . . . . . . . . + + + + + ",
"@ @ @ @ @ @ @ @ @ @ @ @ @ @ @ @ @ @ @ @ @ # @ ",
"$ $ $ % & * = = = = = = = = = = = * & - $ $ $ ",
"; ; > , ' ) ! ! ! ! ! ! ! ! ! ! ! ) ' ~ > ; ; ",
"{ ] ^ / ( _ : < < [ } | 1 2 3 4 5 6 ( / ^ ] { ",
"7 8 9 0 a < < b c d e 3 f g h i j k k 0 9 l 7 ",
"m n o p q r s t u v w x y z A B C D E E F n $ ",
"@ G H I J J K K L M I N O P Q R S S T S H G # ",
". = U U U U U U U U U U U U U U U U U U U = + ",
"V = W W W W W W W W W W W W W W W W W W W = V ",
"X = Y Z Z Z Z Z Z Z Z Z Z Z Z Z Z Z Z Z Y = ` ",
"X =  ................................... .= ` ",
"+.= @.#.#.#.#.#.#.#.#.#.#.#.#.#.#.#.#.#.@.= +.",
"$.= #.%.%.%.%.%.%.%.%.%.%.%.%.%.%.%.%.%.#.= $.",
"&.= *.=.=.=.=.=.=.=.=.=.=.=.=.=.=.=.=.=.*.= &.",
"-.= ;.>.>.>.,.,.,.,.,.,.,.>.>.>.>.>.>.>.;.= '.",
").= ;.!.!.!.,.,.,.,.,.,.,.!.!.!.!.!.!.!.~.= ).",
"{.].^./././.,.,.,.,.,.,.,./././././././.(.].{.",
"_.:.<.[.}.}.}.}.}.}.}.}.}.}.}.}.}.}.}.|.<.:._.",
"1.2.3.4.[.}.}.}.}.}.}.}.}.}.}.}.}.}.[.4.5.2.1.",
"6.7.8.9.4.|.}.}.}.}.}.}.}.}.}.}.}.[.4.9.8.7.6.",
"0.0.a.b.c.d.4.4.4.4.4.4.4.4.4.4.4.d.c.b.e.0.f.",
"g.g.g.h.i.j.= = = = = = = = = = = j.i.h.g.g.g.",
"k.k.k.k.k.k.k.k.k.k.k.k.k.k.k.k.k.k.k.k.k.k.k.",
"l.l.l.l.l.l.l.l.l.l.l.l.l.l.l.l.l.l.l.m.l.l.l.",
"n.n.n.n.n.n.n.n.n.n.n.n.n.n.n.n.n.n.n.o.o.o.n.",
". . . . . . . . . . . . . . . . . . + + + + + ",
"@ @ @ @ @ @ @ @ @ @ @ @ @ @ @ @ @ @ @ @ @ # @ ",
"$ $ $ p.q.r.s.s.s.s.s.s.s.s.s.s.s.r.q.t.$ $ $ ",
"; ; u.v.w.x.}.}.}.}.}.}.}.}.}.}.}.x.w.v.u.; ; ",
"{ y.v.z.}.}.}.}.}.}.}.}.}.}.}.}.}.}.}.z.v.y.{ ",
"7 A.B.}.}.C.D.E.F.G.H.I.J.K.L.M.N.O.P.Q.B.A.7 ",
"m R.S.}.T.U.V.F.W.X.Y.Z.`. +.+++@+#+$+$+%+R.$ ",
"@ &+*+}.=+-+;+>+,+'+)+=+!+#+~+{+]+^+/+/+(+&+# ",
". s.}.}._+!+@+P.$+~+{+]+/+:+<+<+C.C.C.C.C.s.+ ",
"V s.}.}.}.}.}.}.}.}.}.}.}.}.}.}.}.}.}.}.}.s.V ",
"X s.}.}.}.}.}.}.}.}.}.}.}.}.}.}.}.}.}.}.}.s.` ",
"X s.}.}.}.}.}.}.}.}.}.}.}.}.}.}.}.}.}.}.}.s.` ",
"+.s.}.}.}.}.}.}.}.}.}.}.}.}.}.}.}.}.}.}.}.s.+.",
"$.s.}.}.}.}.}.}.}.}.}.}.}.}.}.}.}.}.}.}.}.s.$.",
"&.s.}.}.}.}.}.}.}.}.}.}.}.}.}.}.}.}.}.}.}.s.&.",
"-.s.}.}.}.}.,.,.,.,.,.,.,.}.}.}.}.}.}.}.}.s.'.",
").s.}.}.}.}.,.,.,.,.,.,.,.}.}.}.}.}.}.}.}.s.).",
"{.&+[+}.}.}.,.,.,.,.,.,.,.}.}.}.}.}.}.}.[+&+{.",
"_.}+|+}.}.}.}.}.}.}.}.}.}.}.}.}.}.}.}.}.|+}+_.",
"1.1+2+}.}.}.}.}.}.}.}.}.}.}.}.}.}.}.}.}.3+1+1.",
"6.4+5+6+}.}.}.}.}.}.}.}.}.}.}.}.}.}.}.6+5+4+6.",
"0.0.7+5+8+9+}.}.}.}.}.}.}.}.}.}.}.9+8+5+0+0.f.",
"g.g.g.a+b+c+s.s.s.s.s.s.s.s.s.s.s.c+b+a+g.g.g.",
"k.k.k.k.k.k.k.k.k.k.k.k.k.k.k.k.k.k.k.k.k.k.k.",
"l.l.l.l.l.l.l.l.l.l.l.l.l.l.l.l.l.l.l.m.l.l.l.",
"n.n.n.n.n.n.n.n.n.n.n.n.n.n.n.n.n.n.n.o.o.o.n."};
