/* XPM */
static char * restoreA_xpm[] = {
"23 52 222 2",
"  	c None",
". 	c #33C2FF",
"+ 	c #32C2FF",
"@ 	c #33C1FF",
"# 	c #37B4FF",
"$ 	c #3BA7FF",
"% 	c #3CC5FF",
"& 	c #3DC5FF",
"* 	c #3EBFFF",
"= 	c #45C8FF",
"- 	c #46C8FF",
"; 	c #44C4FC",
"> 	c #0E40AD",
", 	c #020B8B",
"' 	c #000085",
") 	c #03098B",
"! 	c #1135AD",
"~ 	c #45C4FC",
"{ 	c #4ECAFF",
"] 	c #4DCAFF",
"^ 	c #289AE5",
"/ 	c #02098B",
"( 	c #0F45BD",
"_ 	c #1E7FE9",
": 	c #2394FA",
"< 	c #0F44BD",
"[ 	c #02088B",
"} 	c #2F7EE5",
"| 	c #54CCFF",
"1 	c #52C8FC",
"2 	c #2086EE",
"3 	c #2596FA",
"4 	c #59C8FC",
"5 	c #DAF9FF",
"6 	c #FFFFFF",
"7 	c #91F8FF",
"8 	c #69F0FE",
"9 	c #65EBFE",
"0 	c #60E4FE",
"a 	c #5BDDFD",
"b 	c #55D6FD",
"c 	c #51D0FD",
"d 	c #4AC7FC",
"e 	c #3EB7FC",
"f 	c #153BA8",
"g 	c #124CC3",
"h 	c #2496FA",
"i 	c #57D9FD",
"j 	c #BCF4FF",
"k 	c #87EAFE",
"l 	c #85E8FE",
"m 	c #59DBFD",
"n 	c #50D0FD",
"o 	c #4CCAFD",
"p 	c #47C4FC",
"q 	c #43BEFC",
"r 	c #3FB9FC",
"s 	c #3DB6FC",
"t 	c #1635A8",
"u 	c #040A8A",
"v 	c #1F81EA",
"w 	c #35ACFB",
"x 	c #4BC9FC",
"y 	c #78D6FD",
"z 	c #4AC8FC",
"A 	c #49C7FC",
"B 	c #48C5FC",
"C 	c #47C3FC",
"D 	c #44C0FC",
"E 	c #41BCFC",
"F 	c #3EB8FC",
"G 	c #3BB4FB",
"H 	c #38B0FB",
"I 	c #35ABFB",
"J 	c #33A9FB",
"K 	c #31A6FB",
"L 	c #30A5FB",
"M 	c #000185",
"N 	c #2591F6",
"O 	c #34A8FB",
"P 	c #38ACFB",
"Q 	c #37ABFB",
"R 	c #36AAFB",
"S 	c #0C118D",
"T 	c #2C9EFA",
"U 	c #2B9DFA",
"V 	c #299AFA",
"W 	c #29BFFF",
"X 	c #2D9EF9",
"Y 	c #27BFFF",
"Z 	c #1CBBFF",
"` 	c #2FA0F9",
" .	c #32A3F9",
"..	c #33A4F9",
"+.	c #37A8F9",
"@.	c #0FB8FF",
"#.	c #38A9F9",
"$.	c #3CADF8",
"%.	c #01B4FF",
"&.	c #41B2F8",
"*.	c #00B0FA",
"=.	c #40B1F8",
"-.	c #46B7F8",
";.	c #00ACF4",
">.	c #44B5F8",
",.	c #4BBCF8",
"'.	c #00A8EF",
").	c #4FC0F7",
"!.	c #47B8F8",
"~.	c #00A4E9",
"{.	c #40AAF1",
"].	c #52C3F7",
"^.	c #45B1F1",
"/.	c #00A0E3",
"(.	c #000889",
"_.	c #2D89E1",
":.	c #50C1F7",
"<.	c #55C6F7",
"[.	c #4CBDF8",
"}.	c #009CDD",
"|.	c #002FA0",
"1.	c #153CA7",
"2.	c #42B3F8",
"3.	c #1243B1",
"4.	c #0097D7",
"5.	c #0094D5",
"6.	c #000687",
"7.	c #3493E5",
"8.	c #0093D2",
"9.	c #0075C1",
"0.	c #000587",
"a.	c #103AAC",
"b.	c #2E86DD",
"c.	c #0075C0",
"d.	c #0093D1",
"e.	c #008FCC",
"f.	c #008CCA",
"g.	c #00309B",
"h.	c #000888",
"i.	c #008CC7",
"j.	c #0089C2",
"k.	c #0088C1",
"l.	c #0085BC",
"m.	c #0085BD",
"n.	c #42BDF7",
"o.	c #094EB7",
"p.	c #024EB8",
"q.	c #0363C6",
"r.	c #034DB8",
"s.	c #0B48B7",
"t.	c #43BDF7",
"u.	c #2493E1",
"v.	c #0251BA",
"w.	c #1773CC",
"x.	c #3BAAE8",
"y.	c #2A7AE1",
"z.	c #4EC1F7",
"A.	c #41B1ED",
"B.	c #0C4DB6",
"C.	c #1A78CE",
"D.	c #57C7F7",
"E.	c #85DDFA",
"F.	c #D4F4FE",
"G.	c #E2F5FE",
"H.	c #D9F2FD",
"I.	c #A1EAFC",
"J.	c #8BE4FC",
"K.	c #84E0FB",
"L.	c #7DDCFA",
"M.	c #78D9FA",
"N.	c #73D7FA",
"O.	c #6ED4F9",
"P.	c #6AD2F9",
"Q.	c #63CEF8",
"R.	c #56C6F7",
"S.	c #0D4AB6",
"T.	c #034FB8",
"U.	c #3DACEA",
"V.	c #56C7F7",
"W.	c #8CE5FC",
"X.	c #EAF8FE",
"Y.	c #B9ECFD",
"Z.	c #99E5FC",
"`.	c #92E2FB",
" +	c #7ADBFA",
".+	c #74D8FA",
"++	c #6FD5F9",
"@+	c #6BD2F9",
"#+	c #67D0F9",
"$+	c #64CFF8",
"%+	c #62CDF8",
"&+	c #61CDF8",
"*+	c #3DADEA",
"=+	c #025DC2",
"-+	c #4EC0F4",
";+	c #69D1F9",
">+	c #7EDDFB",
",+	c #96E2FB",
"'+	c #79DAFA",
")+	c #75D8FA",
"!+	c #5CCAF8",
"~+	c #5BC9F8",
"{+	c #5AC9F7",
"]+	c #54C3F5",
"^+	c #62CEF8",
"/+	c #65CFF8",
"(+	c #4FC0F3",
"_+	c #024FB8",
":+	c #3DA9E8",
"<+	c #0147B1",
"[+	c #186DC7",
"}+	c #1971CA",
"|+	c #008FD2",
"1+	c #0250B9",
"2+	c #42AFEB",
"3+	c #0072C1",
"4+	c #156DC8",
"5+	c #3CA7E6",
"6+	c #0072C0",
"7+	c #0087C7",
"8+	c #0145AD",
"9+	c #024DB7",
". . . . . . + . . . . . + . + . . . . . @ # $ ",
"% % & & & % & % & % % % & & & & % & % % & % * ",
"= - - ; > , ' ' ' ' ' ' ' ' ' ' ' ) ! ~ = - = ",
"{ ] ^ / ( _ : : : : : : : : : : : _ < [ } ] ] ",
"| 1 / 2 3 4 5 6 6 7 8 9 0 a b c d e 3 2 [ 1 | ",
"{ f g h i 6 6 j k l m b n o p q r s s h g t ] ",
"- u v w x y z A B C D E F G H I J K L L v u = ",
"& M N O P P Q Q R S S S S S S S T T U T N M & ",
". ' V V V V V V V S S S S S S S V V V V V ' . ",
"W ' X X X X X X X X X X X X X S X X X X X ' Y ",
"Z ' `  . . .S S S S S S S  . .S  . . . .` ' Z ",
"Z ' ..+.+.+.S S S S S S S +.+.S +.+.+.+...' Z ",
"@.' #.$.$.$.S $.$.$.$.$.S $.$.S $.$.$.$.#.' @.",
"%.' $.&.&.&.S &.&.&.&.&.S &.S S &.&.&.&.$.' %.",
"*.' =.-.-.-.S -.-.-.-.-.S -.-.-.-.-.-.-.=.' *.",
";.' >.,.,.,.S ,.,.,.,.,.S ,.,.,.,.,.,.,.>.' ;.",
"'.' >.).).).S S S S S S S ).).).).).).).!.' '.",
"~.' {.].].].].].].].].].].].].].].].].].^.' ~.",
"/.(._.:.<.<.<.<.<.<.<.<.<.<.<.<.<.<.<.[._.(./.",
"}.|.1.2.:.<.<.<.<.<.<.<.<.<.<.<.<.<.:.2.3.|.}.",
"4.5.6.7.2.[.<.<.<.<.<.<.<.<.<.<.<.:.2.7.6.5.4.",
"8.8.9.0.a.b.2.2.2.2.2.2.2.2.2.2.2.b.a.0.c.d.d.",
"e.e.e.f.g.h.' ' ' ' ' ' ' ' ' ' ' h.g.f.e.e.e.",
"i.i.i.i.i.i.i.i.i.i.i.i.i.i.i.i.i.i.i.i.i.i.i.",
"j.k.k.k.j.k.j.k.j.k.k.k.k.k.k.k.k.k.k.k.k.j.j.",
"l.m.l.m.m.m.l.m.l.m.m.m.l.m.m.m.m.m.m.l.m.m.m.",
". . . . . . + . . . . . + . + . . . . . @ # $ ",
"% % & & & % & % & % % % & & & & % & % % & % * ",
"= - - n.o.p.q.q.q.q.q.q.q.q.q.q.q.r.s.t.= - = ",
"{ ] u.v.w.x.<.<.<.<.<.<.<.<.<.<.<.x.w.v.y.] ] ",
"| z.v.A.<.<.<.<.<.<.<.<.<.<.<.<.<.<.<.A.v.z.| ",
"{ B.C.<.<.D.E.F.G.H.I.J.K.L.M.N.O.P.Q.R.C.S.] ",
"- T.U.<.V.W.X.G.Y.Z.`. +.+++@+#+$+%+&+&+*+T.= ",
"& =+-+<.;+>+,+'+)+S S S S S S S !+~+{+{+]+=+& ",
". q.<.<.^+/+$+Q.&+S S S S S S S D.D.D.D.D.q.. ",
"W q.<.<.<.<.<.<.<.<.<.<.<.<.<.S <.<.<.<.<.q.Y ",
"Z q.<.<.<.<.S S S S S S S <.<.S <.<.<.<.<.q.Z ",
"Z q.<.<.<.<.S S S S S S S <.<.S <.<.<.<.<.q.Z ",
"@.q.<.<.<.<.S <.<.<.<.<.S <.<.S <.<.<.<.<.q.@.",
"%.q.<.<.<.<.S <.<.<.<.<.S <.S S <.<.<.<.<.q.%.",
"*.q.<.<.<.<.S <.<.<.<.<.S <.<.<.<.<.<.<.<.q.*.",
";.q.<.<.<.<.S <.<.<.<.<.S <.<.<.<.<.<.<.<.q.;.",
"'.q.<.<.<.<.S S S S S S S <.<.<.<.<.<.<.<.q.'.",
"~.=+(+<.<.<.<.<.<.<.<.<.<.<.<.<.<.<.<.<.(+=+~.",
"/._+:+<.<.<.<.<.<.<.<.<.<.<.<.<.<.<.<.<.:+_+/.",
"}.<+[+<.<.<.<.<.<.<.<.<.<.<.<.<.<.<.<.<.}+<+}.",
"4.|+1+2+<.<.<.<.<.<.<.<.<.<.<.<.<.<.<.2+1+|+4.",
"8.8.3+1+4+5+<.<.<.<.<.<.<.<.<.<.<.5+4+1+6+d.d.",
"e.e.e.7+8+9+q.q.q.q.q.q.q.q.q.q.q.9+8+7+e.e.e.",
"i.i.i.i.i.i.i.i.i.i.i.i.i.i.i.i.i.i.i.i.i.i.i.",
"j.k.k.k.j.k.j.k.j.k.k.k.k.k.k.k.k.k.k.k.k.j.j.",
"l.m.l.m.m.m.l.m.l.m.m.m.l.m.m.m.m.m.m.l.m.m.m."};
