/* XPM */
static char * titleAP_xpm[] = {
"1 26 25 1",
" 	c None",
".	c #33C2FF",
"+	c #3CC5FF",
"@	c #46C8FF",
"#	c #4DCAFF",
"$	c #54CCFF",
"%	c #4ECAFF",
"&	c #45C8FF",
"*	c #3DC5FF",
"=	c #29BFFF",
"-	c #1CBBFF",
";	c #0FB8FF",
">	c #01B4FF",
",	c #00B0FA",
"'	c #00ACF4",
")	c #00A8EF",
"!	c #00A4E9",
"~	c #00A0E3",
"{	c #009BDD",
"]	c #0097D7",
"^	c #0093D2",
"/	c #008FCC",
"(	c #008CC7",
"_	c #0088C1",
":	c #0085BD",
".",
"+",
"@",
"#",
"$",
"%",
"&",
"*",
".",
"=",
"-",
"-",
";",
">",
",",
"'",
")",
"!",
"~",
"{",
"]",
"^",
"/",
"(",
"_",
":"};
