/* XPM */
static char * titleAL_xpm[] = {
"50 26 106 2",
"  	c None",
". 	c #3C9FFF",
"+ 	c #3B9EFF",
"@ 	c #3BA1FF",
"# 	c #37B5FF",
"$ 	c #33C2FF",
"% 	c #44A3FF",
"& 	c #43A2FF",
"* 	c #41B5FF",
"= 	c #3DC5FF",
"- 	c #3CC5FF",
"; 	c #49A5FF",
"> 	c #4AA6FF",
", 	c #48B4FF",
"' 	c #46C7FF",
") 	c #45C8FF",
"! 	c #4FA8FF",
"~ 	c #50A9FF",
"{ 	c #4FB4FF",
"] 	c #4FC6FF",
"^ 	c #4DCAFF",
"/ 	c #54ABFF",
"( 	c #54B4FF",
"_ 	c #54C5FF",
": 	c #54CCFF",
"< 	c #50B0FF",
"[ 	c #4EC1FF",
"} 	c #4ECAFF",
"| 	c #49ACFF",
"1 	c #48BEFF",
"2 	c #46C8FF",
"3 	c #42A7FF",
"4 	c #3FB9FF",
"5 	c #3BA4FF",
"6 	c #349BFF",
"7 	c #359BFF",
"8 	c #339FFF",
"9 	c #2DB1FF",
"0 	c #27BFFF",
"a 	c #29BFFF",
"b 	c #2C97FF",
"c 	c #2B96FF",
"d 	c #2A9CFF",
"e 	c #23ADFF",
"f 	c #1CBBFF",
"g 	c #1BBBFF",
"h 	c #2392FF",
"i 	c #0FB8FF",
"j 	c #198EFF",
"k 	c #1A8EFF",
"l 	c #008DEF",
"m 	c #00B0FA",
"n 	c #01B4FF",
"o 	c #02B4FF",
"p 	c #1089FF",
"q 	c #0F89FF",
"r 	c #0584FF",
"s 	c #00ACF4",
"t 	c #00ACF5",
"u 	c #007FFB",
"v 	c #007FFC",
"w 	c #009FEA",
"x 	c #00A8EF",
"y 	c #00A7EE",
"z 	c #007CF4",
"A 	c #00A4E9",
"B 	c #00A3E8",
"C 	c #0078ED",
"D 	c #0078EE",
"E 	c #009EE3",
"F 	c #00A0E3",
"G 	c #0075E7",
"H 	c #0075E6",
"I 	c #008ED9",
"J 	c #009CDD",
"K 	c #009BDD",
"L 	c #0071E0",
"M 	c #0071DF",
"N 	c #007DDD",
"O 	c #0097D7",
"P 	c #006ED9",
"Q 	c #006ED8",
"R 	c #007FD5",
"S 	c #008ED2",
"T 	c #0093D2",
"U 	c #0093D1",
"V 	c #006AD2",
"W 	c #006BD3",
"X 	c #0070D1",
"Y 	c #0080CF",
"Z 	c #008FCC",
"` 	c #0067CC",
" .	c #0073CA",
"..	c #0082C8",
"+.	c #008CC7",
"@.	c #0064C6",
"#.	c #0068C5",
"$.	c #0076C3",
"%.	c #0085C2",
"&.	c #0088C1",
"*.	c #0089C2",
"=.	c #0061C0",
"-.	c #006CBF",
";.	c #0079BE",
">.	c #0085BD",
",.	c #0085BC",
". . . . . . . . . . . . . . . . . . . . . . . . . . . . . . . . . . . . . . . + . . . . . + @ # $ $ ",
"% % % % % % % % % % % % % % % % % % % % % & % % & % % % % % & & & % & & & & & & & & % & & & * = = - ",
"; ; > ; ; > > > ; ; > > > ; ; > > > ; ; > > ; ; > ; ; > ; > ; ; > ; ; ; ; > > ; ; > > ; ; , ' ) ) ) ",
"! ! ! ! ! ! ! ! ! ! ! ! ! ! ! ! ! ! ! ! ~ ! ! ~ ! ~ ~ ! ! ! ~ ~ ! ! ! ~ ~ ! ~ ! ! ! ~ ~ { ] ^ ^ ^ ^ ",
"/ / / / / / / / / / / / / / / / / / / / / / / / / / / / / / / / / / / / / / / / / / / ( _ : : : : : ",
"~ ! ! ~ ! ! ! ! ~ ! ! ! ! ~ ! ! ! ! ~ ! ~ ! ! ! ~ ! ! ! ! ! ~ ~ ! ~ ! ~ ~ ! ! ! ~ ! < [ } } ^ } ^ } ",
"; ; > ; ; ; ; > ; ; ; ; > ; ; ; ; > ; ; ; > ; ; ; ; ; > > ; > ; ; ; ; ; ; > ; > ; | 1 2 2 ) ) 2 ) ) ",
"% % % % % & % % % % & % % % % & % % % % % & & % % % % & & % % & & % % & & % % % 3 4 = - - = - = - - ",
". . . . . . . . . . . . . . . . . . . . . . . . . . . . . . . . . . . . . . . 5 # $ $ $ $ $ $ $ $ $ ",
"6 6 7 6 6 6 6 7 6 6 6 6 7 6 6 6 6 7 6 6 6 6 6 6 6 6 6 6 6 6 6 6 6 7 6 7 6 6 8 9 0 0 0 a 0 0 a 0 a a ",
"b b b b b b c b b b b c b b b b c b b b b b b c b b c b b b c b b b b b b d e f f f f f f g g f f f ",
"b b b b b b c b b b b c b b b b c b b b b b b c b b c b b b b c b b b c b b f f f f f f f g g f f f ",
"h h h h h h h h h h h h h h h h h h h h h h h h h h h h h h h h h h h h b e i i i i i i i i i i i i ",
"j j j j j k j j j j k j j j j k j j j j j j k j j j j j j k k j k k k l e m n o n n o n n o o n o n ",
"p p q p p q p q p p q p q p p q p q p p p p q p p p p p p q q p q q l e m m m m m m m m m m m m m m ",
"r r r r r r r r r r r r r r r r r r r r r r r r r r r r r r r r k l e m m m m s s s s s s s s t s s ",
"u v u u v u u u u v u u u u v u u u u v u v u u u v u u v u u u l w x s s s s x x y x x y x y y x x ",
"z z z z z z z z z z z z z z z z z z z z z z z z z z z z z z z l w A A B B A A A B B A B B A A A A B ",
"C C C C C C D C C C C D C C C C D C C C C C C D C C C D C z l E F F F F F F F F F F F F F F F F F F ",
"G H G G H H H G G H H H G G H H H G G H G H H H G H H H G I J J K K J J J K J J J J K J J K J J J J ",
"L L L L L M L L L L M L L L L M L L L L L M L L L L L N I O O O O O O O O O O O O O O O O O O O O O ",
"P P P P P Q P P P P Q P P P P Q P P P P P P P P Q Q R S T T T T T T T U U T U T U U T U U T T U T U ",
"V W V V W W W V V W W W V V W W W V V W W W V V X Y Z Z Z Z Z Z Z Z Z Z Z Z Z Z Z Z Z Z Z Z Z Z Z Z ",
"` ` ` ` ` ` ` ` ` ` ` ` ` ` ` ` ` ` ` ` ` ` `  ...+.+.+.+.+.+.+.+.+.+.+.+.+.+.+.+.+.+.+.+.+.+.+.+.+.",
"@.@.@.@.@.@.@.@.@.@.@.@.@.@.@.@.@.@.@.@.@.#.$.%.&.*.&.&.&.&.&.&.&.&.&.*.&.&.*.&.*.&.&.*.&.&.&.*.&.*.",
"=.=.=.=.=.=.=.=.=.=.=.=.=.=.=.=.=.=.=.=.-.;.>.>.>.>.>.,.>.>.>.>.>.,.>.>.>.>.,.>.>.>.>.>.>.>.>.,.>.>."};
