/* XPM */
static char * closeI_xpm[] = {
"18 42 9 1",
" 	c None",
".	c #2961B4",
"+	c #7395CD",
"@	c #3161B4",
"#	c #6A85B4",
"$	c #4175B4",
"%	c #7B9DCD",
"&	c #2961AC",
"*	c #2959A4",
"..................",
"..................",
".+++++++++++++++++",
".+...............+",
".+...............+",
".+...@......@....+",
".+..@+#....$%$...+",
".+..@%%#..$%%$...+",
".+...@%%#$%%$....+",
".+....@%%%%$.....+",
".+.....$%%+......+",
".+....$%%%%#.....+",
".+...$%%$@%%#....+",
".+..$%%$..@%%$...+",
".+...+$....@+@...+",
".+...............+",
".+...............+",
".+...............+",
".+++++++++++++++++",
"&&&&&&&&&&&&&&&&&&",
"******************",
"..................",
"..................",
".+++++++++++++++++",
".+...............+",
".+...............+",
".+...............+",
".+...@......@....+",
".+..@+#....$%$...+",
".+..@%%#..$%%$...+",
".+...@%%#$%%$....+",
".+....@%%%%$.....+",
".+.....$%%+......+",
".+....$%%%%#.....+",
".+...$%%$@%%#....+",
".+..$%%$..@%%$...+",
".+...+$....@+@...+",
".+...............+",
".+...............+",
".+++++++++++++++++",
"&&&&&&&&&&&&&&&&&&",
"******************"};
