/* XPM */
static char * closeA_xpm[] = {
"18 42 11 1",
" 	c None",
".	c #3171D5",
"+	c #7BCEE6",
"@	c #417DDE",
"#	c #B4D6EE",
"$	c #5A89CD",
"%	c #4185E6",
"&	c #CDDEF6",
"*	c #94CEEE",
"=	c #3169CD",
"-	c #2965C5",
"..................",
"..................",
".+++++++++++++++++",
".+...............+",
".+...............+",
".+...@......@....+",
".+..@#+....$#$...+",
".+..%#&+..$&&$...+",
".+...%#&+$&&$....+",
".+....%#&&&$.....+",
".+.....$&&*......+",
".+....$&&#&+.....+",
".+...$&&$%#&+....+",
".+..$&&$..%#&$...+",
".+...*$....%*@...+",
".+...............+",
".+...............+",
".+...............+",
".+++++++++++++++++",
"==================",
"------------------",
"..................",
"..................",
".+++++++++++++++++",
".+...............+",
".+...............+",
".+...............+",
".+...@......@....+",
".+..@#+....$#$...+",
".+..%#&+..$&&$...+",
".+...%#&+$&&$....+",
".+....%#&&&$.....+",
".+.....$&&*......+",
".+....$&&#&+.....+",
".+...$&&$%#&+....+",
".+..$&&$..%#&$...+",
".+...*$....%*@...+",
".+...............+",
".+...............+",
".+++++++++++++++++",
"==================",
"------------------"};
