/* XPM */
static char * frameATR_xpm[] = {
"35 35 31 1",
" 	c None",
".	c #7BCEE6",
"+	c #79CAE4",
"@	c #77C6E3",
"#	c #75C3E2",
"$	c #74BFE0",
"%	c #72BBDF",
"&	c #70B8DE",
"*	c #6EB4DC",
"=	c #6DB0DB",
"-	c #6BADDA",
";	c #69A9D8",
">	c #67A6D7",
",	c #66A2D6",
"'	c #649ED4",
")	c #629BD3",
"!	c #6097D2",
"~	c #5F93D0",
"{	c #5D90CF",
"]	c #5B8CCE",
"^	c #5A88CD",
"/	c #5A89CD",
"(	c #3171D5",
"_	c #417DDE",
":	c #CDDEF6",
"<	c #B4D6EE",
"[	c #4185E6",
"}	c #94CEEE",
"|	c #396DC5",
"1	c #2961BD",
"2	c #F6F6F6",
".+@#$%&*=-;>,')!~{]^^^^^^^^^^^^^^^/",
"((((((((((((((((((((((((((((((((((/",
"((((((((((((((((((((((((((((((((((/",
"((((((((((((((((((((((((((((((((((/",
"((((((((((.(((.(((((((((((((((.(((/",
"((((((((((.(((.(((((((((((((((.(((/",
"((((((((((.(((.(((_((((((_((((.(((/",
":::::::(((.(((.((_<.((((/</(((.(((/",
":::::::(((.(((.(([<:.((/::/(((.(((/",
"((((((:(((.(((.((([<:./::/((((.(((/",
"((((((:(((.(((.(((([<:::/(((((.(((/",
"((((((:(((.(((.(((((/::}((((((.(((/",
"((((((:(((.(((.((((/::<:.(((((.(((/",
"((((((:(((.(((.(((/::/[<:.((((.(((/",
"((((((:(((.(((.((/::/(([<:/(((.(((/",
":::::::(((.(((.(((}/(((([}_(((.(((/",
"((((((((((.(((.(((((((((((((((.(((/",
"((((((((((.(((.(((((((((((((((.(((/",
"((((((((((.(((.(((((((((((((((.(((/",
"...........(((.................(((/",
"(((((((((((|||((((((((((((((((((((/",
"(((((((((((111(((((((((((((((((|((/",
"2222222222222222222222222222222|((/",
"2222222222222222222222222222222||(/",
"22222222222222222222222222222221|(/",
"22222222222222222222222222222221|(/",
"22222222222222222222222222222221|(/",
"22222222222222222222222222222221|(/",
"22222222222222222222222222222221|(/",
"22222222222222222222222222222221|(/",
"22222222222222222222222222222221|(/",
"22222222222222222222222222222221|(/",
"22222222222222222222222222222221|(/",
"22222222222222222222222222222221|(/",
"22222222222222222222222222222221|(/"};
