/* XPM */
static char * frameITL_xpm[] = {
"35 35 16 1",
" 	c None",
".	c #4175B4",
"+	c #2961B4",
"@	c #FFCE00",
"#	c #838500",
"$	c #000000",
"%	c #008583",
"&	c #0000FF",
"*	c #CDCEC5",
"=	c #FFFFFF",
"-	c #838583",
";	c #4A95F6",
">	c #2961AC",
",	c #2959A4",
"'	c #4185E6",
")	c #F6F6F6",
"...................................",
".++++++++++++++++++++++++++++++++++",
".++++++++++++++++++++++++++++++++++",
".++++++++++++++++++++++++++++++++++",
".++++@#$%&#@$#%&#*$++++++++++++++++",
".++++#=#$@===@*#@$+++++++++++++++++",
".++++&#=@#$=$*#@$++++++++++++++++++",
".++++%&#=#&@$%@#$+++++++++++++==+++",
".++++&#*$@#@$$-;#$++++++++++++===++",
".++++%@*$%@--$;;#$++++++++++++====+",
".++++*===@-=@*****@#++++++++++=+===",
".++++$#@$$-@-$$$@$$+++++++++++=++==",
".++++&%@#$;-$@;$#$++++++++++++=+++=",
".++++%&#@#;;$;@#@$++++++++++++=++++",
".++++&#@$@#@$##@#$++++++++++++=++++",
".++++#@$+$#*$#$$@#$++++++++++++++++",
".++++@$++++*#$+++@#$+++++++++++++++",
".++++$+++++#$++++++++++++++++++++++",
".++++++++++++++++++++++++++++++++++",
".++++++++++++++++++++++++++++++++++",
".+>>+++++++++++++++++++++++++++++++",
".+>,'''''''''''''''''''''''''''''''",
".+>,)))))))))))))))))))))))))))))))",
".+>,)))))))))))))))))))))))))))))))",
".+>,)))))))))))))))))))))))))))))))",
".+>,)))))))))))))))))))))))))))))))",
".+>,))))))))))))))$))))))))))))))))",
".+>,))))))$$$$$)$)$))))))))))))))))",
".+>,))))))$)))))))$))))))))))))))))",
".+>,))))))$)))))$)$))$$$)))))))))))",
".+>,))))))$$$$$)$)$)$)))$))))))))))",
".+>,))))))$)))))$)$)$$$$$))))))))))",
".+>,))))))$)))))$)$)$))))))))))))))",
".+>,))))))$)))))$)$)$)))$))))))))))",
".+>,))))))$)))))$)$))$$$)))))))))))"};
