/* XPM */
static char * frameATL_xpm[] = {
"35 35 18 1",
" 	c None",
".	c #9CCEFF",
"+	c #7BCEE6",
"@	c #4A95F6",
"#	c #FFCE00",
"$	c #838500",
"%	c #000000",
"&	c #008583",
"*	c #0000FF",
"=	c #CDCEC5",
"-	c #FFFFFF",
";	c #838583",
">	c #4185E6",
",	c #F6F6F6",
"'	c #417DDE",
")	c #3971CD",
"!	c #5A89CD",
"~	c #396DC5",
"..+++++++++++++++++++++++++++++++++",
".@@@@@@@@@@@@@@@@@@@@@@@@@@@@@@@@@@",
"+@@@@@@@@@@@@@@@@@@@@@@@@@@@@@@@@@@",
"+@@@@@@@@@@@@@@@@@@@@@@@@@@@@@@@@@@",
"+@@@@#$%&*$#%$&*$=%@@@@@@@@@@@@@@@@",
"+@@@@$-$%#---#=$#%@@@@@@@@@@@@@@@@@",
"+@@@@*$-#$%-%=$#%@@@@@@@@@@@@@@@@@@",
"+@@@@&*$-$*#%&#$%@@@@@@@@@@@@@--@@@",
"+@@@@*$=%#$#%%;@$%@@@@@@@@@@@@---@@",
"+@@@@&#=%&#;;%@@$%@@@@@@@@@@@@----@",
"+@@@@=---#;-#=====#$@@@@@@@@@@-@---",
"+@@@@%$#%%;#;%%%#%%@@@@@@@@@@@-@@--",
"+@@@@*&#$%@;%#@%$%@@@@@@@@@@@@-@@@-",
"+@@@@&*$#$@@%@#$#%@@@@@@@@@@@@-@@@@",
"+@@@@*$#%#$#%$$#$%@@@@@@@@@@@@-@@@@",
"+@@@@$#%@%$=%$%%#$%@@@@@@@@@@@@@@@@",
"+@@@@#%@@@@=$%@@@#$%@@@@@@@@@@@@@@@",
"+@@@@%@@@@@$%@@@@@@@@@@@@@@@@@@@@@@",
"+@@@@@@@@@@@@@@@@@@@@@@@@@@@@@@@@@@",
"+@@@@@@@@@@@@@@@@@@@@@@@@@@@@@@@@@@",
"+@@@@@@@@@@@@@@@@@@@@@@@@@@@@@@@@@@",
"+@@@>>>>>>>>>>>>>>>>>>>>>>>>>>>>>>>",
"+@@>,,,,,,,,,,,,,,,,,,,,,,,,,,,,,,,",
"+@@>,,,,,,,,,,,,,,,,,,,,,,,,,,,,,,,",
"+@@',,,,,,,,,,,,,,,,,,,,,,,,,,,,,,,",
"+@@',,,,,,,,,,,,,,,,,,,,,,,,,,,,,,,",
"+@@',,,,,,,,,,,,,,%,,,,,,,,,,,,,,,,",
"+@>',,,,,,%%%%%,%,%,,,,,,,,,,,,,,,,",
"+@>',,,,,,%,,,,,,,%,,,,,,,,,,,,,,,,",
"+>>),,,,,,%,,,,,%,%,,%%%,,,,,,,,,,,",
"+>>),,,,,,%%%%%,%,%,%,,,%,,,,,,,,,,",
"+>'),,,,,,%,,,,,%,%,%%%%%,,,,,,,,,,",
"+>'),,,,,,%,,,,,%,%,%,,,,,,,,,,,,,,",
"+''),,,,,,%,,,,,%,%,%,,,%,,,,,,,,,,",
"!''~,,,,,,%,,,,,%,%,,%%%,,,,,,,,,,,"};
