/* XPM */
static char * frameITR_xpm[] = {
"35 35 16 1",
" 	c None",
".	c #4175B4",
"+	c #2961B4",
"@	c #000000",
"#	c #CDCEC5",
"$	c #838500",
"%	c #0000FF",
"&	c #008583",
"*	c #FFCE00",
"=	c #FFFFFF",
"-	c #4A95F6",
";	c #838583",
">	c #2961AC",
",	c #4185E6",
"'	c #2959A4",
")	c #F6F6F6",
"...................................",
"++++++++++++++++++++++++++++++++++.",
"++++++++++++++++++++++++++++++++++.",
"++++++++++++++++++++++++++++++++++.",
"++++++++++++++++@#$%&$@*$%&@$*++++.",
"+++++++++++++++++@*$#*===*@$=$++++.",
"++++++++++++++++++@*$#@=@$*=$%++++.",
"+++==+++++++++++++@$*&@*%$=$%&++++.",
"++===++++++++++++@$-;@@*$*@#$%++++.",
"+====++++++++++++@$--@;;*&@#*&++++.",
"===+=++++++++++$*#####*=;*===#++++.",
"==++=+++++++++++@@*@@@;*;@@*$@++++.",
"=+++=++++++++++++@$@-*@;-@$*&%++++.",
"++++=++++++++++++@*$*-@--$*$%&++++.",
"++++=++++++++++++@$*$$@*$*@*$%++++.",
"++++++++++++++++@$*@@$@#$@+@*$++++.",
"+++++++++++++++@$*+++@$#++++@*++++.",
"++++++++++++++++++++++@$+++++@++++.",
"++++++++++++++++++++++++++++++++++.",
"++++++++++++++++++++++++++++++++++.",
"+++++++++++++++++++++++++++++++>>+.",
",,,,,,,,,,,,,,,,,,,,,,,,,,,,,,,'>+.",
")))))))))))))))))))))))))))))))'>+.",
")))))))))))))))))))))))))))))))'>+.",
")))))))))))))))))))))))))))))))'>+.",
")))))))))))))))))))))))))))))))'>+.",
"))))))))))))))))@))))))))))))))'>+.",
"))))))))))))))))@)@)@@@@@))))))'>+.",
"))))))))))))))))@)))))))@))))))'>+.",
")))))))))))@@@))@)@)))))@))))))'>+.",
"))))))))))@)))@)@)@)@@@@@))))))'>+.",
"))))))))))@@@@@)@)@)))))@))))))'>+.",
"))))))))))))))@)@)@)))))@))))))'>+.",
"))))))))))@)))@)@)@)))))@))))))'>+.",
")))))))))))@@@))@)@)))))@))))))'>+."};
