/* XPM */
static char * frameABR_xpm[] = {
"35 35 9 1",
" 	c None",
".	c #7BCEE6",
"+	c #2961BD",
"@	c #396DC5",
"#	c #3171D5",
"$	c #5A89CD",
"%	c #FFFFFF",
"&	c #838583",
"*	c #E6E6E6",
"...............................+@#$",
"...............................+@#$",
"...............................+@#$",
"...............................+@#$",
"...............................+@#$",
"...............................+@#$",
"...............................+@#$",
"...............................+@#$",
"...............................+@#$",
"...............................+@#$",
"...............................+@#$",
"...............................+@#$",
"...............................+@#$",
"...............................+@#$",
"...............................+@#$",
"...............................+@#$",
"...............................+@#$",
"...............................+@#$",
"...............................+@#$",
"...............................+@#$",
"...............................+@#$",
"...............................+@#$",
"...............................+@#$",
"........................%.&*%&.+@#$",
".......................%&&*%&&.+@#$",
"......................%&&*%&&..+@#$",
".....................%&&*%&&*%.+@#$",
"....................%&&*%&&*%&.+@#$",
"...................%&&*%&&*%&&.+@#$",
"..................%&&.%&&.%&&..@@#$",
"...............................@##$",
"+++++++++++++++++++++++++++++@@@##$",
"@@@@@@@@@@@@@@@@@@@@@@@@@@@@@@####$",
"##################################$",
"$$$$$$$$$$$$$$$$$$$$$$$$$$$$$$$$$$$"};
