/* XPM */
static char * frameABL_xpm[] = {
"35 35 10 1",
" 	c None",
".	c #6A95E6",
"+	c #3171D5",
"@	c #3169CD",
"#	c #2965BD",
"$	c #7BCEE6",
"%	c #000000",
"&	c #D5D6C5",
"*	c #DEDED5",
"=	c #296DC5",
".+@#$$$$$$$$$$$$$$$$$$$$$$$$$$$$$$$",
".+@#$$$$$$$$$$$$$$$$$$$$$$$$$$$$$$$",
".+@#$$$$$$$$$$$$$$$$$$$$$$$$$$$$$$$",
".+@#$$$$$$$$$$$$$$$$$$$$$$$$$$$$$$$",
".+@#$$$$$$$$$$$$$$$$$$$$$$$$$$$$$$$",
".+@#$$$$$$$$$$$$$$$$$$$$$$$$$$$$$$$",
".+@#$$$$$$$$$$$$$$$$$$$$$$$$$$$$$$$",
".+@#$$$$$$$$$$$$$$$$$$$$$$$$$$$$$$$",
".+@#$$$$$$$$$$$$$$$$$$$$$$$$$$$$$$$",
".+@#$$$$$$$$$$$$$$$$$$$$$$$$$$$$$$$",
".+@#$$$$$$$$$$$$$$$$$$$$$$$$$$$$$$$",
".+@#$$$$$$$$$$$$$$$$$$$$$$$$$$$$$$$",
".+@#$$$$$$$$$$$$$$$$$$$$$$$$$$$$$$$",
".+@#$$$$$$$$$$$$$$$$$$$$$$$$$$$$$$$",
".+@#$$$$$$$$$$$$$$$$$$$$$$$$$$$$$$$",
".+@#$$$$$$$$$$$$$$$$$$$$$$$$$$$$$$$",
".+@#$$$$$$$$$$$$$$$$$$$$$$$$$$$$$$$",
".+@#$$$$$$%%%%%$$$$$$$$$$$$$$%$$$$%",
".+@#$$$$$$%$$$$$$$$$$$$$$$$$$%$$$$%",
".+@#$$$$$$%$$$$$$%%%$$%$%$$$$%$$$$%",
".+@#$$$$$$%%%%%$%&&&%$%%$$$$$%%%%%%",
".+@#$$$$$$%$$$$$%&&&%$%$$$$$$%$$$$%",
".+@#$$$$$$%$$$$$%&&&%$%$$$$$$%$$$$%",
".+@#$$$$$$%$$$$$%&&&%$%$$$$$$%$$$$%",
".+@#$$$$$$%$$$$$$%%%$$%$$$$$$%$$$$%",
".+@#$$$$$$$$$$$$$$$$$$$$$$$$$$$$$$$",
".+@#$$$$$$$$$$$$$$$$$$$$$$$$$$$$$$$",
".+@#$$$$$$$$$$$$$$$$$$$$$$$$$$$$$$$",
".+@#$$$$***************************",
".+@=$$$$$$$$$$$$$$$$$$$$$$$$$$$$$$$",
".++=$$$$$$$$$$$$$$$$$$$$$$$$$$$$$$$",
".++@==#############################",
".++++@@@@@@@@@@@@@@@@@@@@@@@@@@@@@@",
".++++++++++++++++++++++++++++++++++",
"..................................."};
