/* XPM */
static char * frameAT_xpm[] = {
"4 4 3 1",
" 	c None",
".	c #7BCEE6",
"+	c #4A95F6",
"....",
"++++",
"++++",
"++++"};
