/* XPM */
static char * frameIBR_xpm[] = {
"35 35 8 1",
" 	c None",
".	c #4175B4",
"+	c #2959A4",
"@	c #2961AC",
"#	c #2961B4",
"$	c #000000",
"%	c #D5D6C5",
"&	c #DEDED5",
"...............................+@#.",
"...............................+@#.",
"...............................+@#.",
"...............................+@#.",
"...............................+@#.",
"...............................+@#.",
"...............................+@#.",
"...............................+@#.",
"...............................+@#.",
"...............................+@#.",
"...............................+@#.",
"...........+++++++++++++++++++++@#.",
"...........@@@@@@@@@@@@@@@@@@@@+@#.",
"...........####################+@#.",
"...............................+@#.",
"...............................+@#.",
"...............................+@#.",
"$....$..............$$$$$......+@#.",
"$....$..................$......+@#.",
"$....$....$.$..$$$......$......+@#.",
"$$$$$$.....$$.$%%%$.$$$$$......+@#.",
"$....$......$.$%%%$.....$......+@#.",
"$....$......$.$%%%$.....$......+@#.",
"$....$......$.$%%%$.....$......+@#.",
"$....$......$..$$$......$......+@#.",
"...............................+@#.",
"...............................+@#.",
"...............................+@#.",
"&&&&&&&&&&&&&&&&&&&&&&&&&&&....+@#.",
"...............................+@#.",
"...............................@##.",
"++++++++++++++++++++++++++++++@@##.",
"@@@@@@@@@@@@@@@@@@@@@@@@@@@@@@####.",
"##################################.",
"..................................."};
