/* XPM */
static char * maximizeI_xpm[] = {
"18 42 5 1",
" 	c None",
".	c #2961B4",
"+	c #7B9DCD",
"@	c #2961AC",
"#	c #2959A4",
"..................",
"..................",
"++++++++++++++++..",
"...............+..",
"...............+..",
"...............+..",
"...+++++++++...+..",
"...+++++++++...+..",
"...+.......+...+..",
"...+.......+...+..",
"...+.......+...+..",
"...+.......+...+..",
"...+.......+...+..",
"...+.......+...+..",
"...+++++++++...+..",
"...............+..",
"...............+..",
"...............+..",
"++++++++++++++++..",
"@@@@@@@@@@@@@@@@@@",
"##################",
"..................",
"..................",
"++++++++++++++++..",
"...............+..",
"...............+..",
"...............+..",
"...............+..",
"...+++++++++...+..",
"...+++++++++...+..",
"...+.......+...+..",
"...+.......+...+..",
"...+.......+...+..",
"...+.......+...+..",
"...+.......+...+..",
"...+.......+...+..",
"...+++++++++...+..",
"...............+..",
"...............+..",
"++++++++++++++++..",
"@@@@@@@@@@@@@@@@@@",
"##################"};
