/* XPM */
static char * menuButtonA_xpm[] = {
"21 42 3 1",
" 	c None",
".	c #4A95F6",
"+	c #4185E6",
".....................",
".....................",
".....................",
".....................",
".....................",
".....................",
".....................",
".....................",
".....................",
".....................",
".....................",
".....................",
".....................",
".....................",
".....................",
".....................",
".....................",
".....................",
".....................",
".....................",
"+++++++++++++++++++++",
".....................",
".....................",
".....................",
".....................",
".....................",
".....................",
".....................",
".....................",
".....................",
".....................",
".....................",
".....................",
".....................",
".....................",
".....................",
".....................",
".....................",
".....................",
".....................",
".....................",
"+++++++++++++++++++++"};
