/* XPM */
static char * minimizeA_xpm[] = {
"18 42 6 1",
" 	c None",
".	c #3171D5",
"+	c #7BCEE6",
"@	c #CDDEF6",
"#	c #3169CD",
"$	c #2965C5",
"..................",
"..................",
".+++++++++++++++++",
".+...............+",
".+...............+",
".+...............+",
".+...............+",
".+...............+",
".+...............+",
".+...............+",
".+...............+",
".+...............+",
".+...............+",
".+...@@@@@@......+",
".+...@@@@@@......+",
".+...............+",
".+...............+",
".+...............+",
".+++++++++++++++++",
"##################",
"$$$$$$$$$$$$$$$$$$",
"..................",
"..................",
".+++++++++++++++++",
".+...............+",
".+...............+",
".+...............+",
".+...............+",
".+...............+",
".+...............+",
".+...............+",
".+...............+",
".+...............+",
".+...............+",
".+...............+",
".+...@@@@@@......+",
".+...@@@@@@......+",
".+...............+",
".+...............+",
".+++++++++++++++++",
"##################",
"$$$$$$$$$$$$$$$$$$"};
