/* XPM */
static char * titleIT_xpm[] = {
"1 21 4 1",
" 	c None",
".	c #2961B4",
"+	c #2961AC",
"@	c #2959A4",
".",
".",
".",
".",
".",
".",
".",
".",
".",
".",
".",
".",
".",
".",
".",
".",
".",
".",
".",
"+",
"@"};
