/* XPM */
static char * titleAR_xpm[] = {
"50 21 14 1",
" 	c None",
".	c #4A95F6",
"+	c #4185E6",
"@	c #417DDE",
"#	c #3171D5",
"$	c #7BCEE6",
"%	c #396DC5",
"&	c #3971CD",
"*	c #2961BD",
"=	c #3169CD",
"-	c #3981CD",
";	c #3161B4",
">	c #295DB4",
",	c #2965C5",
"........+++@@@####################################",
"$$$$.....++@@@#++++###############################",
"$$$$+....@@@@@#++++%##############################",
"$$$$+....&@@@@#++++%%#############################",
"$$$$+....&@@@@#++++%%#############################",
"..+++.+@@@@@@@##%%%%##############################",
".....$$$$@....###%%###############################",
"....+$$$$@....%#########%#########################",
"....+$$$$&....%#########%#########################",
"....+$$$$&....%#########%#########################",
"..+++.+@@@@&&%%######%%%%#########################",
".........@@@@&#....###%%##########################",
".........@@@@@#....%##############################",
".........&@@@@#....%%#############################",
".........&@@@@#....%%#############################",
"......+@@@@@@@##%%%%##############################",
".....$$$$@....###%%#....##########################",
"....+$$$$@....%#####....%#########################",
"....+$$$$&....%#####....%#########################",
"....@$$$$&....*%%%%%....*=========================",
"+-----&%%%%*;;;******;>>;,,,,,,,,,,,,,,,,,,,,,,,,,"};
