/* XPM */
static char *errmail[]={
"16 16 4 1",
". c None",
"b c #3a3a3a",
"a c #bb2e2e",
"# c #cfcfcf",
"................",
"................",
"................",
"................",
".......##.......",
"......#aa#......",
".....#aaaa#.....",
"....#aaaaaa#....",
"....#aaaaaa#b...",
".....#aaaa#b....",
"......#aa#b.....",
".......##b......",
"........b.......",
"................",
"................",
"................"};
