/* XPM */
static char *mail[]={
"16 16 5 1",
"c c None",
". c None",
"b c #3a3a3a",
"# c #737373",
"a c #aaf0be",
"................",
"................",
"................",
"................",
".......##.......",
"......#aa#......",
".....#aaaa#.....",
"....#aaaaaa#....",
"....#aaaaaa#b...",
".....#aaaa#b....",
"......#aa#b..a..",
".......##b..ab..",
"........b..ab...",
"..........ab....",
"....ccccccbc....",
".....cccccccc..."};
