/* XPM */
static char *newmail[]={
"16 16 4 1",
". c None",
"b c #3a3a3a",
"a c #cfcfcf",
"# c #ffffff",
"................",
"................",
"..........#.....",
"...........#....",
".......aa...#...",
"......a##a...#..",
".....a####a...b.",
"....a######a....",
"....a######ab...",
".....a####ab....",
"......a##ab.....",
".......aab......",
"........b.......",
"................",
"................",
"................"};
