/* XPM */
static char *nomail[]={
"16 16 9 1",
". c None",
"g c #273534",
"f c #2d3637",
"d c #2d3938",
"e c #3a3a3a",
"c c #3b4344",
"b c #404647",
"a c #4a4f50",
"# c #cfcfcf",
"................",
"................",
"................",
"................",
".......##.......",
"......#aa#......",
".....#bbbb#.....",
"....#cccccc#....",
"....#dddddd#e...",
".....#ffff#e....",
"......#gg#e.....",
".......##e......",
"........e.......",
"................",
"................",
"................"};
