/* XPM */
static char *unreadmail[]={
"16 16 4 1",
". c None",
"a c #00c0c0",
"b c #3a3a3a",
"# c #cfcfcf",
"................",
"................",
"................",
"................",
".......##.......",
"......#aa#......",
".....#aaaa#.....",
"....#aaaaaa#....",
"....#aaaaaa#b...",
".....#aaaa#b....",
"..a...#aa#b.....",
"...a...##b......",
"....a...b.......",
".....a..........",
"......b.........",
"................"};
