/* XPM */
static char * collapse_xpm[] = {
"10 24 2 1",
" 	c #3C3C3C",
".	c #CFCFCF",
"          ",
"          ",
"          ",
"          ",
"          ",
"          ",
"  .       ",
"  ..      ",
"  ...     ",
"  ....    ",
"  .....   ",
"  ......  ",
"  ......  ",
"  .....   ",
"  ....    ",
"  ...     ",
"  ..      ",
"  .       ",
"          ",
"          ",
"          ",
"          ",
"          ",
"          "};
