/* XPM */
static char * expand_xpm[] = {
"10 24 3 1",
" 	c None",
".	c #3C3C3C",
"+	c #CFCFCF",
"..........",
"..........",
"..........",
"..........",
"..........",
"..........",
".......+..",
"......++..",
".....+++..",
"....++++..",
"...+++++..",
"..++++++..",
"..++++++..",
"...+++++..",
"....++++..",
".....+++..",
"......++..",
".......+..",
"..........",
"..........",
"..........",
"..........",
"..........",
".........."};
