/* XPM */
static char * taskbuttonactive_xpm[] = {
"181 28 53 1",
" 	c None",
".	c #3C3C3C",
"+	c #484848",
"@	c #585858",
"#	c #555555",
"$	c #525252",
"%	c #515151",
"&	c #535353",
"*	c #505050",
"=	c #4F4F4F",
"-	c #545454",
";	c #444444",
">	c #616161",
",	c #888888",
"'	c #A5A5A5",
")	c #A8A8A8",
"!	c #ADADAD",
"~	c #ACACAC",
"{	c #AEAEAE",
"]	c #AFAFAF",
"^	c #ABABAB",
"/	c #AAAAAA",
"(	c #B0B0B0",
"_	c #B1B1B1",
":	c #B2B2B2",
"<	c #8D8D8D",
"[	c #5C5C5C",
"}	c #A1A1A1",
"|	c #B3B3B3",
"1	c #B4B4B4",
"2	c #B5B5B5",
"3	c #B6B6B6",
"4	c #929292",
"5	c #464646",
"6	c #A9A9A9",
"7	c #4C4C4C",
"8	c #B7B7B7",
"9	c #BABABA",
"0	c #565656",
"a	c #A6A6A6",
"b	c #A7A7A7",
"c	c #A2A2A2",
"d	c #4E4E4E",
"e	c #A4A4A4",
"f	c #4D4D4D",
"g	c #9B9B9B",
"h	c #454545",
"i	c #919191",
"j	c #404040",
"k	c #878787",
"l	c #818181",
"m	c #4B4B4B",
"n	c #575757",
".....................................................................................................................................................................................",
".....................................................................................................................................................................................",
"..+@#$%%%&&&&&&&$$$$$*%**==**%$&-&$%%%******%%$$$$$$$$%%%%%%$$$$$$$$$$$$$$$$$$&&&&&&&&$$%%%%%%%%%%%%$$%%%%%%%%********%%%%%%%%$$$$$$$$%%*********************=****************%&=;...",
".>,')!~~~~!{{]{]{{!!!!^^/^~~!!{{{]{{{!!!!!!!{{((((((((]]]]]]((((((((((((((((((__________((((((______::]]]]]]]]{{{{{{{{{{{{{{{{]]]]]]]]{{{!!!!!!!!!!!!!!!!!!~~~~~~~~~~~^^^^^^^^^!)<[..",
";<}::]{]]]]]{]((](]]]{](]]]](((___((__||||||||11111111||||||||111111112222222222222222222222223333333311111111||||||||::::::::::::::::____((((((((((((((((((]]{{{{{{{{{{{{{{!!~)~^45.",
"&6^(]|||||||||||||||||||||||||||||||||||||||||||||||||||||||||||||||||||||||||||||||||||||||||||||||||||||||||||||||||||||||||||||||||||||||||||||||||11||||||||||||||::::::_||||2{%.",
"7^)((333333333333333333333333333333333333333333333333333333333333333333333333333333333333333333333333333333333333333333333333333333333333333333333333388333333333333331111|||3333{:%.",
"=]/((2222222222222222222222222222222222222222222222222222222222222222222222222222222222222222222222222222222222222222222222222222222222222222222222222222221112222||||____(((2222]90.",
"$a]]]2222222222222222222222222222222222222222222222222222222222222222222222222222222222222222222222222222222222222222222222222222222222222222222222222::::::::2222((((____(((2222__&.",
"%a{{]|||||||||||||||||||||||||||||||||||||||||||||||||||||||||||||||||||||||||||||||||||||||||||||||||||||||||||||||||||||||||||||||||||||||||||||||||________||||____((((]]]||||(($.",
"$a{]_:::::::::::::::::::::::::::::::::::::::::::::::::::::::::::::::::::::::::::::::::::::::::::::::::::::::::::::::::::::::::::::::::::::::::::::::::((((((((::::(]]]((]]]]{::::]]$.",
"$)!{:_________________________________________________________________________________________________________________________________________________]]]]]]]]____]{{{__((((]____(($.",
"%b~~{(((((((((((((((((((((((((((((((((((((((((((((((((((((((((((((((((((((((((((((((((((((((((((((((((((((((((((((((((((((((((((((((((((((((((((((((((]]]]]]]]((((((((((]]{{{((((]]$.",
"%'))^]]]]]]]]]]]]]]]]]]]]]]]]]]]]]]]]]]]]]]]]]]]]]]]]]]]]]]]]]]]]]]]]]]]]]]]]]]]]]]]]]]]]]]]]]]]]]]]]]]]]]]]]]]]]]]]]]]]]]]]]]]]]]]]]]]]]]]]]]]]]]]]]]{{{{{{{{]]]]{!!!~~^^///]]]]/^*.",
"%'bb~~~~~~~~~~~~~~~~~~~~~~~~~~~~~~~~~~~~~~~~~~~~~~~~~~~~~~~~~~~~~~~~~~~~~~~~~~~~~~~~~~~~~~~~~~~~~~~~~~~~~~~~~~~~~~~~~~~~~~~~~~~~~~~~~~~~~~~~~~~~~~~~~~/^^^^^^^~~~~////^^//666~~~~/^*.",
"$a))!6666666666666666666666666666666666666666666666666666666666666666666666666666666666666666666666666666666666666666666666666666666666666666666666666))))))))6666////////6666666/~%.",
"$c6/b6/6/6/6/6/6/6//6//6/6/6/6///6//6/6//6/6/6//6/6//6//6/6//6//6//6/6//6//6//6//6//6//6/6//6//6//6/6//6//6//6/6//6/6/6//6//6/6/6/6//6//6//6//6//6/6////^~~^//6/6////////////6/6/)(=.",
"%}b)b///////////////////////////////////////////////////////////////////////////////////////////////////////////////////////////////////////////////////^^^^//////////66/////////6_d.",
"&e)/66666666666666666666666666666666666666666666666666666666666666666666666666666666666666666666666666666666666666666666666666666666666666666666666666)666666)66666666666666666666(d.",
"#a6666666666666666666666666666666666666666666666666666666666666666666666666666666666666666666666666666666666666666666666666666666666666666666666666666))6666))6666666666666666666a!*.",
"-ebba///////////////////////////////////////////////////////////////////////////////////////////////////////////////////////////////////////////////////6666//////////6666666////b6$.",
"&c)/)////////////////////////////////////////////////////////////////////////////////////////////////////////////////////////////////////////////////////66///////////6666666////]b-.",
"fgb{~/////////////////////////////////////////////////////////////////////////////////////////////////////////////////////////////////////////////////^^////^^////////666666/////_gd.",
"hi}^//////////////////////////////////////////////////////////////////////////////////////////////////////////////////////////////////////////////////~^////^~////////666666/////6,j.",
".&ka//////////////////////////////////////////////////////////////////////////////////////////////////////////////////////////////////////////////////////////////////66/////////l=..",
"..mn$$$$&&$$$$$$$$&&&&$$$$$$$$$$$&$%-@$$$$$&&&%--$%$$%%%&#-%%&$$$$$$$$$$$$$$$$$$$$$$$$$$$$$$$$$&&&$%$$$$$$$&&&$$$$$$$$$$$$$$$$$$$$$$$$$$$$$$$$$$$$$$$$$$$$$$$$$$$$$$$$%%$$$$$$**%h...",
".....................................................................................................................................................................................",
"....................................................................................................................................................................................."};
