/* XPM */
static char * windows_xpm[] = {
"24 24 2 1",
" 	c #3C3C3C",
".	c #CFCFCF",
"                        ",
"                        ",
"                        ",
"                        ",
"   ..........           ",
"   ..........           ",
"   .        .           ",
"   .        .           ",
"   .   ..........       ",
"   .   ..........       ",
"   .   .        .       ",
"   .   .        .       ",
"   .....   ..........   ",
"       .   ..........   ",
"       .   .        .   ",
"       .   .        .   ",
"       .....        .   ",
"           .        .   ",
"           .        .   ",
"           .        .   ",
"           ..........   ",
"                        ",
"                        ",
"                        "};
