/* XPM */
static char *dot_xpm[] = {
"6 20 2 1",
"0	c #EEEEE6",
"1	c #000000",
"000000",
"000000",
"000000",
"000000",
"000000",
"000000",
"000000",
"000000",
"000000",
"000000",
"000000",
"000000",
"000000",
"000000",
"000000",
"000000",
"000000",
"001100",
"001100",
"000000"
};
