/* XPM */
static char *m_xpm[] = {
"9 20 2 1",
"0	c #EEEEE6",
"1	c #000000",
"000000000",
"000000000",
"010000010",
"011000110",
"010101010",
"010010010",
"010000010",
"010000010",
"010000010",
"000000000",
"000000000",
"000000000",
"000000000",
"000000000",
"000000000",
"000000000",
"000000000",
"000000000",
"000000000",
"000000000"
};
