/* XPM */
static char *n7_xpm[] = {
"14 20 2 1",
"0	c #EEEEE6",
"1	c #000000",
"00000000000000",
"00111111111100",
"00011111111010",
"00000000000110",
"00000000000110",
"00000000000110",
"00000000000110",
"00000000000110",
"00000000000010",
"00000000000000",
"00000000000000",
"00000000000010",
"00000000000110",
"00000000000110",
"00000000000110",
"00000000000110",
"00000000000110",
"00000000000010",
"00000000000000",
"00000000000000"
};
