/* XPM */
static char *n8_xpm[] = {
"14 20 2 1",
"0	c #EEEEE6",
"1	c #000000",
"00000000000000",
"00111111111100",
"01011111111010",
"01100000000110",
"01100000000110",
"01100000000110",
"01100000000110",
"01100000000110",
"01000000000010",
"00111111111100",
"00111111111100",
"01000000000010",
"01100000000110",
"01100000000110",
"01100000000110",
"01100000000110",
"01100000000110",
"01011111111010",
"00111111111100",
"00000000000000"
};
