/* XPM */
static char * closeI_xpm[] = {
"19 36 7 1",
" 	c None",
".	c #7B7B7B",
"+	c #FFFFFF",
"@	c #000000",
"#	c #BDBEBD",
"$	c #7B7D7B",
"%	c #FF0000",
"...................",
"...................",
".+++++++++++++++@..",
".+#############$@..",
".+#############$@..",
".+###@@####@@##$@..",
".+####@@##@@###$@..",
".+#####@@@@####$@..",
".+######@@#####$@..",
".+#####@@@@####$@..",
".+####@@##@@###$@..",
".+###@@####@@##$@..",
".+#############$@..",
".+#############$@..",
".+$$$$$$$$$$$$$$@..",
".@@@@@@@@@@@@@@@@..",
"...................",
"...................",
"...................",
"...................",
".+++++++++++++++@..",
".+#############$@..",
".+#############$@..",
".+###%%####%%##$@..",
".+####%%##%%###$@..",
".+#####%%%%####$@..",
".+######%%#####$@..",
".+#####%%%%####$@..",
".+####%%##%%###$@..",
".+###%%####%%##$@..",
".+#############$@..",
".+#############$@..",
".+$$$$$$$$$$$$$$@..",
".@@@@@@@@@@@@@@@@..",
"...................",
"..................."};
