/* XPM */
static char * closeA_xpm[] = {
"19 36 8 1",
" 	c None",
".	c #00007B",
"+	c #FFFFFF",
"@	c #000000",
"#	c #DEDEDE",
"$	c #7B7B7B",
"%	c #BDBDBD",
"&	c #BDBEBD",
"...................",
"...................",
".+++++++++++++++@..",
".+#############$@..",
".+#%%%%%%%%%%%%$@..",
".+#%%@@%%%%@@%%$@..",
".+#%%%@@%%@@%%%$@..",
".+#%%%%@@@@%%%%$@..",
".+#%%%%%@@%%%%%$@..",
".+#%%%%@@@@%%%%$@..",
".+#%%%@@%%@@%%%$@..",
".+#%%@@%%%%@@%%$@..",
".+#%%%%%%%%%%%%$@..",
".+#%%%%%%%%%%%%$@..",
".+$$$$$$$$$$$$$$@..",
".@@@@@@@@@@@@@@@@..",
"...................",
"...................",
"...................",
"...................",
".@@@@@@@@@@@@@@@+..",
".@$$$$$$$$$$$$$#+..",
".@$%%%%%%%%%%%%#+..",
".@$%&&&&&&&&&&%#+..",
".@$%%&@@%%%%@@%#+..",
".@$%%&%@@%%@@%%#+..",
".@$%%&%%@@@@%%%#+..",
".@$%%&%%%@@%%%%#+..",
".@$%%&%%@@@@%%%#+..",
".@$%%&%@@%%@@%%#+..",
".@$%%&@@%%%%@@%#+..",
".@$%%&&&&&&&&&%#+..",
".@##############+..",
".++++++++++++++++..",
"...................",
"..................."};
