/* XPM */
static char * frameABL_xpm[] = {
"35 31 6 1",
" 	c None",
".	c #DEDEDE",
"+	c #FFFFFF",
"@	c #BDBDBD",
"#	c #7B7B7B",
"$	c #000000",
".+@@###################.+@@@@@@@@@@",
".+@@###################.+@@@@@@@@@@",
".+@@###################.+@@@@@@@@@@",
".+@@###################.+@@@@@@@@@@",
".+@@###################.+@@@@@@@@@@",
".+@@###################.+@@@@@@@@@@",
".+@@###################.+@@@@@@@@@@",
".+@@###################.+@@@@@@@@@@",
".+@@###################.+@@@@@@@@@@",
".+@@###################.+@@@@@@@@@@",
".+@@###################.+@@@@@@@@@@",
".+@@###################.+@@@@@@@@@@",
".+@@###################.+@@@@@@@@@@",
".+@@###################.+@@@@@@@@@@",
".+@@###################.+@@@@@@@@@@",
".+@@###################.+@@@@@@@@@@",
".+@@###################.+@@@@@@@@@@",
".+@@###################.###########",
".+@@###################$$$$$$$$$$$$",
".+@@###############################",
".+@@###############################",
".+@@###############################",
".+@@###############################",
".+@@###############################",
".+@@###############################",
".+@@###############################",
".+@@###############################",
".+@@@@@@@@@@@@@@@@@@@@@@@@@@@@@@@@@",
".+@@@@@@@@@@@@@@@@@@@@@@@@@@@@@@@@@",
".##################################",
"$$$$$$$$$$$$$$$$$$$$$$$$$$$$$$$$$$$"};
