/* XPM */
static char * frameATR_xpm[] = {
"35 31 6 1",
" 	c None",
".	c #DEDEDE",
"+	c #000000",
"@	c #FFFFFF",
"#	c #7B7B7B",
"$	c #BDBDBD",
"..................................+",
"@@@@@@@@@@@@@@@@@@@@@@@@@@@@@@@@@#+",
"$$$$$$$$$$$$$$$$$$$$$$$$$$$$$$$$$#+",
"$$$$$$$$$$$$$$$$$$$$$$$$$$$$$$$$$#+",
"###############################$$#+",
"###############################$$#+",
"@@@@@@@@@@+##@@@@@@@@@@@@@@@+##$$#+",
".........#+##@.............#+##$$#+",
"+++++++$$#+##@.$$$$$$$$$$$$#+##$$#+",
"+++++++$$#+##@.$$++$$$$++$$#+##$$#+",
"$$$$$$+$$#+##@.$$$++$$++$$$#+##$$#+",
"$$$$$$+$$#+##@.$$$$++++$$$$#+##$$#+",
"$$$$$$+$$#+##@.$$$$$++$$$$$#+##$$#+",
"$$$$$$+$$#+##@.$$$$++++$$$$#+##$$#+",
"$$$$$$+$$#+##@.$$$++$$++$$$#+##$$#+",
"$$$$$$+$$#+##@.$$++$$$$++$$#+##$$#+",
"+++++++$$#+##@.$$$$$$$$$$$$#+##$$#+",
"$$$$$$$$$#+##@.$$$$$$$$$$$$#+##$$#+",
"##########+##@##############+##$$#+",
"+++++++++++##++++++++++++++++##$$#+",
"###############################$$#+",
"###############################$$#+",
"$$$$$$$$$$$$$$$$$$$$$$$$$$$$$$$$$#+",
"$$$$$$$$$$$$$$$$$$$$$$$$$$$$$$$$$#+",
"$$$$$$$$$$$$$$$$$$$$$$$$$$$$$$$$$#+",
"$$$$$$$$$$$$$$$$$$$$$$$$$$$$$$$$$#+",
"$$$$$$$$$$$$$$$$$$$$$$$$$$$$$$$$$#+",
"$$$$$$$$$$$$$$$$$$$$$$$$$$$$$$$$$#+",
"$$$$$$$$$$$$$$$$$$$$$$$$$$$$$$$$$#+",
"$$$$$$$$$$$$$$$$$$$$$$$$$$$$$$$$$#+",
"$$$$$$$$$$$$$$$$$$$$$$$$$$$$$$$$$#+"};
