/* XPM */
static char * frameATL_xpm[] = {
"35 31 7 1",
" 	c None",
".	c #DEDEDE",
"+	c #FFFFFF",
"@	c #BDBDBD",
"#	c #7B7B7B",
"$	c #FFFF00",
"%	c #000000",
"...................................",
".++++++++++++++++++++++++++++++++++",
".+@@@@@@@@@@@@@@@@@@@@@@@@@@@@@@@@@",
".+@@@@@@@@@@@@@@@@@@@@@@@@@@@@@@@@@",
".+@@###############################",
".+@@###############################",
".+@@###############################",
".+@@#####+++++#####################",
".+@@####+@$@$@+###########@@@@@####",
".+@@####+$@$@$@+++++#%###@@###@@###",
".+@@####+@$@$@$@$@$@#%###@@########",
".+@@###############$#%###@@######@@",
".+@@###++++++++++#%@#%###@@########",
".+@@###+@$@$@$@$@$%##%###@@########",
".+@@####+@$@$@$@$@#%#%###@@########",
".+@@####+$@$@$@$@$@%#%###@@###@@###",
".+@@#####+$@$@$@$@$#%%####@@@@@##@@",
".+@@################%%#############",
".+@@#####%%%%%%%%%%%%%#############",
".+@@###############################",
".+@@###############################",
".+@@###############################",
".+@@@@@@@@@@@@@@@@@@@@@@@@@@@@@@@@@",
".+@@@@@@@@@@@@@@@@@@@@@@@@@@@@@@@@@",
".+@@@@@@@@@@@@@@@@@@@@@@@@@@@@@@@@@",
".+@@@@@@@@@@@@@@@@@@@@@@@@@@@@@@@@@",
".+@@@@@@@@@@@@@@@@@@@@@@@@@@@@@@@@@",
".+@@@@@@@@@%%%%@@@@@@@@@@@@@@@@@@@@",
".+@@@@@@@@@%@@@%@@@@@@@@@%@@@@@@@@%",
".+@@@@@@@@@%@@@@%@@@@@@@@%@@@@@@@@%",
".+@@@@@@@@@%@@@@%@@@%%%@@%%@@%%%@@%"};
