/* XPM */
static char * maximizeA_xpm[] = {
"18 36 9 1",
" 	c None",
".	c #00007B",
"+	c #FFFFFF",
"@	c #000000",
"#	c #BDBEBD",
"$	c #7B7D7B",
"%	c #7B7B7B",
"&	c #DEDEDE",
"*	c #BDBDBD",
"..................",
"..................",
"+++++++++++++++@..",
"+#############$@..",
"+##@@@@@@@@@##$@..",
"+##@@@@@@@@@##$@..",
"+##@#######@##$@..",
"+##@#######@##$@..",
"+##@#######@##$@..",
"+##@#######@##$@..",
"+##@#######@##$@..",
"+##@#######@##$@..",
"+##@@@@@@@@@##$@..",
"+#############$@..",
"+$$$$$$$$$$$$$$@..",
"@@@@@@@@@@@@@@@@..",
"..................",
"..................",
"..................",
"..................",
"@@@@@@@@@@@@@@@+..",
"@%%%%%%%%%%%%%&+..",
"@%************&+..",
"@%**@@@@@@@@@*&+..",
"@%**@@@@@@@@@*&+..",
"@%**@*******@*&+..",
"@%**@*******@*&+..",
"@%**@*******@*&+..",
"@%**@*******@*&+..",
"@%**@*******@*&+..",
"@%**@*******@*&+..",
"@%**@@@@@@@@@*&+..",
"@&&&&&&&&&&&&&&+..",
"++++++++++++++++..",
"..................",
".................."};
