/* XPM */
static char * restoreI_xpm[] = {
"18 36 6 1",
" 	c None",
".	c #7B7B7B",
"+	c #FFFFFF",
"@	c #000000",
"#	c #DEDEDE",
"$	c #BDBDBD",
"..................",
"..................",
"+++++++++++++++@..",
"+#############.@..",
"+#$$$@@@@@@$$$.@..",
"+#$$$@@@@@@$$$.@..",
"+#$$$@$$$$@$$$.@..",
"+#$@@@@@@$@$$$.@..",
"+#$@@@@@@$@$$$.@..",
"+#$@$$$$@@@$$$.@..",
"+#$@$$$$@$$$$$.@..",
"+#$@$$$$@$$$$$.@..",
"+#$@@@@@@$$$$$.@..",
"+#$$$$$$$$$$$$.@..",
"+..............@..",
"@@@@@@@@@@@@@@@@..",
"..................",
"..................",
"..................",
"..................",
"@@@@@@@@@@@@@@@+..",
"@.............#+..",
"@.$$$$$$$$$$$$#+..",
"@.$$$$@@@@@@$$#+..",
"@.$$$$@@@@@@$$#+..",
"@.$$$$@$$$$@$$#+..",
"@.$$@@@@@@$@$$#+..",
"@.$$@@@@@@$@$$#+..",
"@.$$@$$$$@@@$$#+..",
"@.$$@$$$$@$$$$#+..",
"@.$$@$$$$@$$$$#+..",
"@.$$@@@@@@$$$$#+..",
"@##############+..",
"++++++++++++++++..",
"..................",
".................."};
