/* XPM */
static char * icewm3_xpm[] = {
"48 20 319 2",
"  	c None",
". 	c #E4E7FF",
"+ 	c #E1E4FE",
"@ 	c #DEE2FE",
"# 	c #DBDFFE",
"$ 	c #D8DDFE",
"% 	c #D5DAFE",
"& 	c #D2D8FE",
"* 	c #CFD5FE",
"= 	c #CCD3FE",
"- 	c #C9D0FE",
"; 	c #C6CEFE",
"> 	c #C3CBFE",
", 	c #C0C9FE",
"' 	c #BDC6FE",
") 	c #BAC4FE",
"! 	c #B7C1FE",
"~ 	c #B5BFFE",
"{ 	c #B2BDFE",
"] 	c #AFBAFE",
"^ 	c #ACB8FE",
"/ 	c #A9B5FE",
"( 	c #A6B3FE",
"_ 	c #A3B0FE",
": 	c #A0AEFE",
"< 	c #E0E4FE",
"[ 	c #DDE1FE",
"} 	c #DADFFE",
"| 	c #D7DCFE",
"1 	c #D4DAFE",
"2 	c #D1D7FE",
"3 	c #CED5FE",
"4 	c #CBD2FE",
"5 	c #C8D0FE",
"6 	c #C4CDFE",
"7 	c #C1CBFE",
"8 	c #BEC8FE",
"9 	c #BBC6FE",
"0 	c #B8C3FE",
"a 	c #B5C1FE",
"b 	c #B2BEFE",
"c 	c #AFBCFE",
"d 	c #ACB9FE",
"e 	c #A8B7FE",
"f 	c #A5B4FE",
"g 	c #A2B2FE",
"h 	c #9FAFFE",
"i 	c #9CADFE",
"j 	c #BDC7FE",
"k 	c #B7C2FE",
"l 	c #B4C0FE",
"m 	c #B1BEFE",
"n 	c #AEBCFE",
"o 	c #ACBAFE",
"p 	c #A9B8FE",
"q 	c #A6B6FE",
"r 	c #A3B4FE",
"s 	c #A0B2FE",
"t 	c #9EB0FE",
"u 	c #9BADFE",
"v 	c #98ABFE",
"w 	c #95A9FE",
"x 	c #92A7FE",
"y 	c #90A5FE",
"z 	c #8DA3FE",
"A 	c #8AA1FE",
"B 	c #879FFE",
"C 	c #849DFE",
"D 	c #829BFE",
"E 	c #7F99FE",
"F 	c #7C97FE",
"G 	c #899BFD",
"H 	c #8699FD",
"I 	c #8498FD",
"J 	c #8297FD",
"K 	c #7F95FD",
"L 	c #7D94FD",
"M 	c #7B93FD",
"N 	c #7992FD",
"O 	c #7690FD",
"P 	c #748FFD",
"Q 	c #728EFD",
"R 	c #708CFD",
"S 	c #6D8BFD",
"T 	c #6B8AFD",
"U 	c #6989FD",
"V 	c #6787FD",
"W 	c #6486FD",
"X 	c #6285FD",
"Y 	c #6084FD",
"Z 	c #5E82FD",
"` 	c #5B81FD",
" .	c #5980FD",
"..	c #577EFD",
"+.	c #557DFD",
"@.	c #6D82FC",
"#.	c #6B81FC",
"$.	c #6980FC",
"%.	c #6780FC",
"&.	c #667FFC",
"*.	c #647FFC",
"=.	c #627EFC",
"-.	c #607DFC",
";.	c #5F7DFC",
">.	c #5D7CFC",
",.	c #5B7CFC",
"'.	c #597BFC",
").	c #587AFD",
"!.	c #567AFD",
"~.	c #5479FD",
"{.	c #5279FD",
"].	c #5178FD",
"^.	c #4F77FD",
"/.	c #4D77FD",
"(.	c #4B76FD",
"_.	c #4A76FD",
":.	c #4875FD",
"<.	c #4674FD",
"[.	c #4474FD",
"}.	c #193CFC",
"|.	c #193DFC",
"1.	c #193FFC",
"2.	c #1A41FC",
"3.	c #1A42FC",
"4.	c #1B44FC",
"5.	c #1B46FC",
"6.	c #1C48FC",
"7.	c #1C49FC",
"8.	c #1D4BFC",
"9.	c #1D4DFC",
"0.	c #1E4FFC",
"a.	c #1E50FD",
"b.	c #1F52FD",
"c.	c #1F54FD",
"d.	c #2056FD",
"e.	c #2057FD",
"f.	c #2059FD",
"g.	c #215BFD",
"h.	c #215DFD",
"i.	c #225EFD",
"j.	c #2260FD",
"k.	c #2362FD",
"l.	c #2364FD",
"m.	c #082FFC",
"n.	c #0831FC",
"o.	c #0933FC",
"p.	c #0A36FC",
"q.	c #0A38FC",
"r.	c #0B3AFC",
"s.	c #0C3DFC",
"t.	c #0C3FFC",
"u.	c #0D41FC",
"v.	c #0E44FC",
"w.	c #0E46FC",
"x.	c #0F48FC",
"y.	c #104BFD",
"z.	c #104DFD",
"A.	c #114FFD",
"B.	c #1252FD",
"C.	c #1254FD",
"D.	c #1356FD",
"E.	c #1459FD",
"F.	c #145BFD",
"G.	c #155DFD",
"H.	c #1660FD",
"I.	c #1662FD",
"J.	c #1764FD",
"K.	c #0830FD",
"L.	c #0832FD",
"M.	c #0935FD",
"N.	c #0A37FD",
"O.	c #0B3AFD",
"P.	c #0B3CFD",
"Q.	c #0C3FFD",
"R.	c #0D41FD",
"S.	c #0E44FD",
"T.	c #0E46FD",
"U.	c #0F49FD",
"V.	c #114EFE",
"W.	c #1150FE",
"X.	c #1253FE",
"Y.	c #1355FE",
"Z.	c #1458FE",
"`.	c #155AFE",
" +	c #155DFE",
".+	c #165FFE",
"++	c #1762FE",
"@+	c #1864FE",
"#+	c #1867FE",
"$+	c #1969FE",
"%+	c #0934FD",
"&+	c #0936FD",
"*+	c #0A39FD",
"=+	c #0E47FD",
"-+	c #0F4AFD",
";+	c #104CFD",
">+	c #1457FE",
",+	c #145AFE",
"'+	c #1660FE",
")+	c #1763FE",
"!+	c #1865FE",
"~+	c #4A4E51",
"{+	c #343434",
"]+	c #1B70FE",
"^+	c #0D0D0D",
"/+	c #1A6BFE",
"(+	c #0D42FD",
"_+	c #0E45FD",
":+	c #0F48FD",
"<+	c #114EFD",
"[+	c #1251FD",
"}+	c #1354FD",
"|+	c #1457FD",
"1+	c #155AFD",
"2+	c #165DFE",
"3+	c #1760FE",
"4+	c #1863FE",
"5+	c #1966FE",
"6+	c #1968FE",
"7+	c #C4C4C4",
"8+	c #E8E8E8",
"9+	c #808182",
"0+	c #CCCCCC",
"a+	c #AEB3B5",
"b+	c #9B9FA1",
"c+	c #0D3EFD",
"d+	c #0D40FD",
"e+	c #0E43FD",
"f+	c #0F46FD",
"g+	c #1049FD",
"h+	c #1352FD",
"i+	c #1455FD",
"j+	c #1558FD",
"k+	c #165BFD",
"l+	c #175EFD",
"m+	c #1861FE",
"n+	c #1964FE",
"o+	c #1A67FE",
"p+	c #1B6AFE",
"q+	c #1C6DFE",
"r+	c #1D70FE",
"s+	c #114CFD",
"t+	c #0F44FD",
"u+	c #0F47FD",
"v+	c #104AFD",
"w+	c #114DFD",
"x+	c #C2EAFE",
"y+	c #165CFD",
"z+	c #175FFD",
"A+	c #1862FD",
"B+	c #1965FD",
"C+	c #1A68FE",
"D+	c #1B6BFE",
"E+	c #1C6EFE",
"F+	c #1D71FE",
"G+	c #1E74FE",
"H+	c #1F77FE",
"I+	c #1353FD",
"J+	c #1250FD",
"K+	c #114BFE",
"L+	c #124DFE",
"M+	c #1350FE",
"N+	c #1453FE",
"O+	c #1962FE",
"P+	c #606365",
"Q+	c #1659FE",
"R+	c #1556FE",
"S+	c #134EFE",
"T+	c #AACEE2",
"U+	c #175CFE",
"V+	c #1658FE",
"W+	c #165AFE",
"X+	c #175DFE",
"Y+	c #1860FE",
"Z+	c #1A65FE",
"`+	c #185FFE",
" @	c #1A66FE",
".@	c #217BFE",
"+@	c #1C6BFE",
"@@	c #1963FE",
"#@	c #1965FE",
"$@	c #1B67FF",
"%@	c #1B69FF",
"&@	c #1C6BFF",
"*@	c #1D6DFF",
"=@	c #2B96FF",
"-@	c #1C67FF",
";@	c #1C68FF",
">@	c #1D6AFF",
",@	c #1D6BFF",
"'@	c #1E6DFF",
")@	c #1F72FF",
"!@	c #2074FF",
"~@	c #237EFF",
"{@	c #2788FF",
"]@	c #2789FF",
"^@	c #288BFF",
"/@	c #288DFF",
"(@	c #1C66FF",
"_@	c #1D68FF",
":@	c #1E6BFF",
"<@	c #1F6EFF",
"[@	c #1F6FFF",
"}@	c #2071FF",
"|@	c #2072FF",
"1@	c #2174FF",
"2@	c #2175FF",
"3@	c #2276FF",
"4@	c #2278FF",
"5@	c #2379FF",
"6@	c #237BFF",
"7@	c #247CFF",
"8@	c #247DFF",
"9@	c #257FFF",
"0@	c #2580FF",
"a@	c #2682FF",
"b@	c #2683FF",
"c@	c #2784FF",
"d@	c #2786FF",
". + @ # $ % & * = - ; > , ' ) ! ~ { ] ^ / ( _ : : _ ( / ^ ] { ~ ! ) ' , > ; - = * & % $ # @ + . ",
". < [ } | 1 2 3 4 5 6 7 8 9 0 a b c d e f g h i i h g f e d c b a 0 9 8 7 6 5 4 3 2 1 | } [ < . ",
"j ) k l m n o p q r s t u v w x y z A B C D E F F E D C B A z y x w v u t s r q p o n m l k ) j ",
"G H I J K L M N O P Q R S T U V W X Y Z `  ...+.+... .` Z Y X W V U T S R Q P O N M L K J I H G ",
"@.#.$.%.&.*.=.-.;.>.,.'.).!.~.{.].^./.(._.:.<.[.[.<.:._.(./.^.].{.~.!.).'.,.>.;.-.=.*.&.%.$.#.@.",
"}.|.1.2.3.4.5.6.7.8.9.0.a.b.c.d.e.f.g.h.i.j.k.l.l.k.j.i.h.g.f.e.d.c.b.a.0.9.8.7.6.5.4.3.2.1.|.}.",
"m.n.o.p.q.r.s.t.u.v.w.x.y.z.A.B.C.D.E.F.G.H.I.J.J.I.H.G.F.E.D.C.B.A.z.y.x.w.v.u.t.s.r.q.p.o.n.m.",
"K.L.M.N.O.P.Q.R.S.T.U.y.V.W.X.Y.Z.`. +.+++@+#+$+$+#+@+++.+ +`.Z.Y.X.W.V.y.U.T.S.R.Q.P.O.N.M.L.K.",
"%+&+*+P.Q.R.S.=+-+;+A.B.Y.>+,+ +'+)+!+~+~+{+]+^+~+~+{+/+^+~+~+'+~+~+~+{+B.^+~+~+~+S.R.Q.P.*+&+%+",
"O.P.Q.(+_+:+y.<+[+}+|+1+2+3+4+5+6+/+{+7+8+8+^+9+8+8+0+^+a+8+8+^+8+8+8+b+^+~+8+8+8+~+:+_+(+Q.P.O.",
"c+d+e+f+g+~+~+h+i+j+k+l+m+n+o+p+q+r+{+b+8+8+{+0+8+8+8+{+a+8+8+^+8+8+8+8+^+b+8+8+8+~+s+g+f+e+d+c+",
"t+u+v+w+~+x+x+^+y+z+A+B+C+D+E+F+G+H+{+{+0+8+9+8+8+8+8+9+8+8+b+^+8+8+7+8+^+7+8+8+8+~+I+J+w+v+^+^+",
"K+L+M+N+~+x+x+^+O+^+~+~+{+^+{+^+^+~+~+^+^+b+8+8+8+a+8+8+8+8+9+^+8+8+a+8+~+8+b+8+8+P+Q+R+N+^+~+8+",
"S+M+N+R+~+x+x+^+^+T+x+x+x+a+^+~+x+x+x+x+~+{+8+8+b+P+8+8+8+8+~+^+8+8+~+{+{+^+^+8+8+~+U+Q+R+^+8+7+",
"V+W+X+Y+~+x+x+^+9+x+9+^+9+P+^+T+x+P+P+x+T+^+8+8+9+^+8+8+8+8+^+^+8+8+^+a+b+P+{+8+8+~+Z+O+{+a+8+a+",
"`+m+n+ @~+x+x+^+b+x+~+.@^+^+^+x+x+b+b+b+b+{+8+8+^+^+0+8+8+a+^+^+8+^+b+b+b+9+~+^+{+^++@^+b+8+8+7+",
"@@#@C+p+~+x+x+^+P+x+b+~+T+T+^+a+x+P+~+b+9+~+8+8+^+{+9+8+8+b+{+^+^+P+0+P+b+b+9+~+9+~+^+^+0+0+8+8+",
"$@%@&@*@~+x+x+^+^+9+x+x+T+P+{+^+T+x+x+a+^+{+~+{+^+=@{+P+~+^+^+{+P+9+a+b+9+b+9+P+P+9+~+9+7+b+0+8+",
"-@;@>@,@'@^+^+)@!@^+^+^+^+^+~@{+^+^+^+^+{@]@^@/@/@^@]@{@^+^+9+0+a+P+b+9+9+a+9+9+P+~+P+7+b+a+b+8+",
"(@-@_@>@:@'@<@[@}@|@1@2@3@4@5@6@7@8@9@0@a@b@c@d@d@^+{+{+P+7+8+b+b+b+9+P+b+7+9+P+P+{+b+b+7+a+a+8+"};
