/* XPM */
static char * icewm2_xpm[] = {
"48 20 346 2",
"  	c None",
". 	c #E4E7FF",
"+ 	c #E1E5FE",
"@ 	c #DFE3FE",
"# 	c #DCE1FE",
"$ 	c #D9DEFE",
"% 	c #D7DCFE",
"& 	c #D5DBFE",
"* 	c #D3DAFE",
"= 	c #D2D9FE",
"- 	c #D0D7FE",
"; 	c #CED6FE",
"> 	c #CDD5FE",
", 	c #C5CFFE",
"' 	c #BDC7FE",
") 	c #B4BFFE",
"! 	c #ABB8FE",
"~ 	c #A2B0FE",
"{ 	c #A0AEFE",
"] 	c #9FAEFE",
"^ 	c #9FADFE",
"/ 	c #E1E4FE",
"( 	c #DEE2FE",
"_ 	c #DBDFFE",
": 	c #D8DDFE",
"< 	c #D5DAFE",
"[ 	c #CED5FE",
"} 	c #C6CFFE",
"| 	c #BFC9FE",
"1 	c #B8C2FE",
"2 	c #B0BCFE",
"3 	c #A8B5FE",
"4 	c #A4B3FE",
"5 	c #A1B0FE",
"6 	c #9DADFE",
"7 	c #9BACFE",
"8 	c #9BADFE",
"9 	c #B1BDFD",
"0 	c #A6B4FD",
"a 	c #9BABFD",
"b 	c #90A1FD",
"c 	c #8598FD",
"d 	c #8196FD",
"e 	c #7F94FD",
"f 	c #7E94FD",
"g 	c #7C92FD",
"h 	c #7A91FD",
"i 	c #7A92FD",
"j 	c #7B93FD",
"k 	c #7B94FD",
"l 	c #7B94FE",
"m 	c #7B95FE",
"n 	c #7C96FE",
"o 	c #7C97FE",
"p 	c #7C98FE",
"q 	c #7B96FE",
"r 	c #899BFD",
"s 	c #7E91FD",
"t 	c #7389FD",
"u 	c #6880FD",
"v 	c #5D78FD",
"w 	c #526FFD",
"x 	c #506DFD",
"y 	c #506EFD",
"z 	c #506FFD",
"A 	c #5070FD",
"B 	c #5171FD",
"C 	c #5172FD",
"D 	c #5173FD",
"E 	c #5174FD",
"F 	c #5275FE",
"G 	c #5276FE",
"H 	c #5377FE",
"I 	c #5378FE",
"J 	c #5379FE",
"K 	c #537AFE",
"L 	c #547BFE",
"M 	c #557CFE",
"N 	c #557EFE",
"O 	c #567FFE",
"P 	c #5681FE",
"Q 	c #5680FE",
"R 	c #557FFE",
"S 	c #547EFE",
"T 	c #547DFE",
"U 	c #6D82FC",
"V 	c #647BFC",
"W 	c #5B74FC",
"X 	c #526EFC",
"Y 	c #4967FC",
"Z 	c #4061FC",
"` 	c #3F60FC",
" .	c #3F61FC",
"..	c #4062FC",
"+.	c #4163FD",
"@.	c #4164FD",
"#.	c #4165FD",
"$.	c #4166FD",
"%.	c #4167FD",
"&.	c #4168FD",
"*.	c #4169FD",
"=.	c #4269FD",
"-.	c #426AFD",
";.	c #436BFD",
">.	c #436CFD",
",.	c #436DFD",
"'.	c #436EFD",
").	c #436FFD",
"!.	c #4471FD",
"~.	c #4572FD",
"{.	c #4574FD",
"].	c #4676FD",
"^.	c #4678FD",
"/.	c #4678FE",
"(.	c #4677FE",
"_.	c #4576FE",
":.	c #4475FE",
"<.	c #4474FE",
"[.	c #193CFC",
"}.	c #193DFC",
"|.	c #193EFC",
"1.	c #193FFC",
"2.	c #1941FC",
"3.	c #1942FC",
"4.	c #1A43FC",
"5.	c #1A45FC",
"6.	c #1B46FC",
"7.	c #1B47FC",
"8.	c #1B48FC",
"9.	c #1C49FD",
"0.	c #1C4BFD",
"a.	c #1C4CFD",
"b.	c #1D4DFD",
"c.	c #1D4EFD",
"d.	c #1E50FD",
"e.	c #1E51FD",
"f.	c #1E52FD",
"g.	c #1E53FD",
"h.	c #1F54FD",
"i.	c #1F55FD",
"j.	c #1F56FD",
"k.	c #2058FD",
"l.	c #2059FD",
"m.	c #205AFD",
"n.	c #225DFD",
"o.	c #2361FD",
"p.	c #2464FD",
"q.	c #2567FD",
"r.	c #266AFD",
"s.	c #266BFE",
"t.	c #266AFE",
"u.	c #2569FE",
"v.	c #2568FE",
"w.	c #2467FE",
"x.	c #2466FE",
"y.	c #2465FE",
"z.	c #082FFC",
"A.	c #0830FC",
"B.	c #0832FC",
"C.	c #0834FC",
"D.	c #0835FC",
"E.	c #0837FC",
"F.	c #0939FD",
"G.	c #0A3AFD",
"H.	c #0A3BFD",
"I.	c #0B3DFD",
"J.	c #0B3FFD",
"K.	c #0C40FD",
"L.	c #0C42FD",
"M.	c #0C43FD",
"N.	c #0D45FD",
"O.	c #0D46FD",
"P.	c #0E48FD",
"Q.	c #0E49FD",
"R.	c #0E4BFD",
"S.	c #0F4CFD",
"T.	c #0F4DFD",
"U.	c #104FFD",
"V.	c #1050FD",
"W.	c #1151FD",
"X.	c #1153FD",
"Y.	c #1254FD",
"Z.	c #1255FD",
"`.	c #1459FE",
" +	c #155DFE",
".+	c #1661FE",
"++	c #1865FE",
"@+	c #1969FE",
"#+	c #196AFE",
"$+	c #1868FE",
"%+	c #1867FE",
"&+	c #1866FE",
"*+	c #0830FD",
"=+	c #0831FD",
"-+	c #0833FD",
";+	c #0935FD",
">+	c #0936FD",
",+	c #0938FD",
"'+	c #0B3CFD",
")+	c #0C3FFD",
"!+	c #0C41FD",
"~+	c #0D42FD",
"{+	c #0D44FD",
"]+	c #0E47FD",
"^+	c #0F4AFD",
"/+	c #0F4BFD",
"(+	c #104EFD",
"_+	c #1151FE",
":+	c #1152FE",
"<+	c #1254FE",
"[+	c #1255FE",
"}+	c #1357FE",
"|+	c #1358FE",
"1+	c #155CFE",
"2+	c #1660FE",
"3+	c #1764FE",
"4+	c #1A6DFE",
"5+	c #1A6EFF",
"6+	c #1A6DFF",
"7+	c #1A6CFF",
"8+	c #1A6BFF",
"9+	c #0934FD",
"0+	c #0B3EFD",
"a+	c #0E46FD",
"b+	c #0F49FD",
"c+	c #104DFD",
"d+	c #114FFD",
"e+	c #1150FD",
"f+	c #1252FD",
"g+	c #4A4E51",
"h+	c #343434",
"i+	c #145BFE",
"j+	c #0D0D0D",
"k+	c #1E76FE",
"l+	c #1E78FF",
"m+	c #1E77FF",
"n+	c #1D76FF",
"o+	c #1D75FF",
"p+	c #0B3AFD",
"q+	c #0C3EFD",
"r+	c #0D41FD",
"s+	c #0E43FD",
"t+	c #0F48FD",
"u+	c #104AFD",
"v+	c #104CFD",
"w+	c #114EFD",
"x+	c #1253FD",
"y+	c #1356FD",
"z+	c #1458FD",
"A+	c #145AFD",
"B+	c #155EFE",
"C+	c #C4C4C4",
"D+	c #E8E8E8",
"E+	c #808182",
"F+	c #CCCCCC",
"G+	c #AEB3B5",
"H+	c #9B9FA1",
"I+	c #217FFF",
"J+	c #0D3EFD",
"K+	c #0D40FD",
"L+	c #0E42FD",
"M+	c #0F45FD",
"N+	c #1047FD",
"O+	c #124FFD",
"P+	c #1351FD",
"Q+	c #1353FD",
"R+	c #1455FD",
"S+	c #1558FE",
"T+	c #155AFE",
"U+	c #165CFE",
"V+	c #175EFE",
"W+	c #1760FE",
"X+	c #1862FE",
"Y+	c #1864FE",
"Z+	c #2484FF",
"`+	c #0F44FD",
" @	c #0F46FD",
".@	c #1049FD",
"+@	c #114CFD",
"@@	c #C2EAFE",
"#@	c #165FFE",
"$@	c #1762FE",
"%@	c #1968FE",
"&@	c #1A6AFE",
"*@	c #1B6CFE",
"=@	c #1B6EFE",
"-@	c #268BFF",
";@	c #114BFE",
">@	c #114EFE",
",@	c #1251FE",
"'@	c #1354FE",
")@	c #606365",
"!@	c #2991FF",
"~@	c #134EFE",
"{@	c #1351FE",
"]@	c #1454FE",
"^@	c #1557FE",
"/@	c #AACEE2",
"(@	c #2A93FF",
"_@	c #1658FE",
":@	c #165BFE",
"<@	c #1861FE",
"[@	c #2C98FF",
"}@	c #185FFE",
"|@	c #1964FE",
"1@	c #1A67FE",
"2@	c #217CFF",
"3@	c #2D9CFF",
"4@	c #1963FE",
"5@	c #1965FE",
"6@	c #1A68FE",
"7@	c #1B6BFE",
"8@	c #1B67FF",
"9@	c #1B69FF",
"0@	c #1C6CFF",
"a@	c #1D6EFF",
"b@	c #288EFF",
"c@	c #1C67FF",
"d@	c #1C68FF",
"e@	c #1C6AFF",
"f@	c #1D6CFF",
"g@	c #1F73FF",
"h@	c #1F74FF",
"i@	c #227CFF",
"j@	c #2481FF",
"k@	c #2582FF",
"l@	c #2583FF",
"m@	c #2584FF",
"n@	c #2586FF",
"o@	c #1C66FF",
"p@	c #1D6AFF",
"q@	c #1D6BFF",
"r@	c #1E6EFF",
"s@	c #1E6FFF",
"t@	c #1F70FF",
"u@	c #1F72FF",
"v@	c #2074FF",
"w@	c #2075FF",
"x@	c #2176FF",
"y@	c #2177FF",
"z@	c #2278FF",
"A@	c #2279FF",
"B@	c #227AFF",
"C@	c #227BFF",
"D@	c #237CFF",
"E@	c #237DFF",
". . . . . . + @ # $ % & * = - ; > > > > > > > > > > > , ' ) ! ~ { { { { { ] ] ] ] ] ^ ^ ^ ^ ^ ^ ",
". / ( _ : < [ } | 1 2 ! 3 4 5 6 7 7 7 7 7 7 7 7 7 7 7 8 8 8 8 8 8 8 8 8 8 8 8 8 8 8 7 7 7 7 7 7 ",
"' 9 0 a b c d e f g h h h h i i j j j k k l l m m m m n o o p p p p p p p o o o o o q q q q q q ",
"r s t u v w x y z z A B B C D E F F F G G H H I J K K L M N O P P P Q Q Q R R R R R S S S T T T ",
"U V W X Y Z `  .Z ....+.@.#.$.%.&.&.*.=.-.;.>.,.,.'.).!.~.{.].^././.(.(.(._._._._._.:.:.:.<.<.<.",
"[.}.|.1.2.3.4.5.6.7.8.9.0.a.b.c.d.d.e.f.g.h.i.j.k.l.m.n.o.p.q.r.s.s.t.t.t.u.u.v.v.v.w.w.x.y.y.y.",
"z.A.B.C.D.E.F.G.H.I.J.K.L.M.N.O.P.Q.R.S.T.U.V.W.X.Y.Z.`. +.+++@+#+#+@+@+@+$+$+$+$+$+%+%+%+&+&+&+",
"*+=+-+;+>+,+G.'+I.)+!+~+{+N.]+P.^+/+T.(+U._+:+<+[+}+|+1+2+3+@+4+5+5+5+5+5+6+6+6+6+6+7+7+7+8+8+8+",
"9+>+,+G.'+0+K.~+{+a+P.b+/+c+d+e+f+Y.Z.g+g+h+i+j+g+g+h+++j+g+g+k+g+g+g+h+l+j+g+g+g+m+n+n+n+o+o+o+",
"p+'+q+r+s+a+t+u+v+w+e+x+Y.y+z+A+1+B+h+C+D+D+j+E+D+D+F+j+G+D+D+j+D+D+D+H+j+g+D+D+D+g+I+I+I+I+I+I+",
"J+K+L+M+N+g+g+O+P+Q+R+S+T+U+V+W+X+Y+h+H+D+D+h+F+D+D+D+h+G+D+D+j+D+D+D+D+j+H+D+D+D+g+Z+Z+Z+Z+Z+Z+",
"`+ @.@+@g+@@@@j+T+ +#@$@Y+&+%@&@*@=@h+h+F+D+E+D+D+D+D+E+D+D+H+j+D+D+C+D+j+C+D+D+D+g+-@-@-@-@j+j+",
";@>@,@'@g+@@@@j+$@j+g+g+h+j+h+j+j+g+g+j+j+H+D+D+D+G+D+D+D+D+E+j+D+D+G+D+g+D+H+D+D+)@!@!@!@j+g+D+",
"~@{@]@^@g+@@@@j+j+/@@@@@@@G+j+g+@@@@@@@@g+h+D+D+H+)@D+D+D+D+g+j+D+D+g+h+h+j+j+D+D+g+(@(@(@j+D+C+",
"_@:@V+<@g+@@@@j+E+@@E+j+E+)@j+/@@@)@)@@@/@j+D+D+E+j+D+D+D+D+j+j+D+D+j+G+H+)@h+D+D+g+[@[@h+G+D+G+",
"}@<@|@1@g+@@@@j+H+@@g+2@j+j+j+@@@@H+H+H+H+h+D+D+j+j+F+D+D+G+j+j+D+j+H+H+H+E+g+j+h+j+3@j+H+D+D+C+",
"4@5@6@7@g+@@@@j+)@@@H+g+/@/@j+G+@@)@g+H+E+g+D+D+j+h+E+D+D+H+h+j+j+)@F+)@H+H+E+g+E+g+j+j+F+F+D+D+",
"8@9@0@a@g+@@@@j+j+E+@@@@/@)@h+j+/@@@@@G+j+h+g+h+j+b@h+)@g+j+j+h+)@E+G+H+E+H+E+)@)@E+g+E+C+H+F+D+",
"c@d@e@f@a@j+j+g@h@j+j+j+j+j+i@h+j+j+j+j+j@k@k@l@m@m@m@n@j+j+E+F+G+)@H+E+E+G+E+E+)@g+)@C+H+G+H+D+",
"o@c@d@p@q@f@r@s@t@u@g@v@w@w@x@y@z@A@A@B@C@D@D@D@E@j+h+h+)@C+D+H+H+H+E+)@H+C+E+)@)@h+H+H+C+G+G+D+"};
