/* XPM */
static char * taskbarbg_xpm[] = {
"1 30 27 1",
" 	c None",
".	c #0C118D",
"+	c #2C97FF",
"@	c #349BFF",
"#	c #3C9FFF",
"$	c #43A2FF",
"%	c #49A5FF",
"&	c #50A9FF",
"*	c #54ABFF",
"=	c #4FA8FF",
"-	c #44A3FF",
";	c #3B9EFF",
">	c #2292FF",
",	c #198EFF",
"'	c #0F89FF",
")	c #0584FF",
"!	c #007FFC",
"~	c #007CF4",
"{	c #0078ED",
"]	c #0075E7",
"^	c #0071DF",
"/	c #006ED9",
"(	c #006BD3",
"_	c #0068CC",
":	c #0064C6",
"<	c #0061C0",
"[	c #015BBC",
".",
"+",
"@",
"#",
"$",
"%",
"&",
"*",
"=",
"%",
"-",
";",
"@",
"+",
">",
",",
"'",
")",
"!",
"~",
"{",
"]",
"^",
"/",
"(",
"_",
":",
"<",
"[",
"."};
