/* XPM */
static char * toolbuttonbg_xpm[] = {
"2 20 40 1",
" 	c None",
".	c #E4E7FF",
"+	c #9FADFE",
"@	c #9BACFE",
"#	c #BDC7FE",
"$	c #7B96FE",
"%	c #899BFD",
"&	c #547DFE",
"*	c #6D82FC",
"=	c #4474FE",
"-	c #193CFC",
";	c #2465FE",
">	c #082FFC",
",	c #1866FE",
"'	c #0830FD",
")	c #1A6BFF",
"!	c #0934FD",
"~	c #1D75FF",
"{	c #0B3AFD",
"]	c #217FFF",
"^	c #0D3EFD",
"/	c #2484FF",
"(	c #0F44FD",
"_	c #268BFF",
":	c #114BFE",
"<	c #2991FF",
"[	c #134EFE",
"}	c #2A93FF",
"|	c #1658FE",
"1	c #2C98FF",
"2	c #185FFE",
"3	c #2D9CFF",
"4	c #1963FE",
"5	c #2E9EFF",
"6	c #1B67FF",
"7	c #2D9AFF",
"8	c #1C67FF",
"9	c #298EFF",
"0	c #1C66FF",
"a	c #2887FF",
".+",
".@",
"#$",
"%&",
"*=",
"-;",
">,",
"')",
"!~",
"{]",
"^/",
"(_",
":<",
"[}",
"|1",
"23",
"45",
"67",
"89",
"0a"};
