/* XPM */
static char * toolbuttonbg_xpm[] = {
"1 20 16 1",
" 	c None",
".	c #359BFF",
"+	c #399DFF",
"@	c #3D9FFF",
"#	c #41A1FF",
"$	c #44A2FF",
"%	c #47A4FF",
"&	c #4BA6FF",
"*	c #4FA8FF",
"=	c #51A9FF",
"-	c #53AAFF",
";	c #4EA7FF",
">	c #48A4FF",
",	c #45A3FF",
"'	c #42A1FF",
")	c #3199FF",
".",
"+",
"@",
"#",
"$",
"%",
"&",
"*",
"=",
"-",
"=",
";",
"&",
">",
",",
"'",
"@",
"+",
".",
")"};
