/* XPM */
static char * nomail_xpm[] = {
"16 16 14 1",
" 	c None",
".	c #000304",
"+	c #000000",
"@	c #47A4FF",
"#	c #4BA6FF",
"$	c #4FA8FF",
"%	c #51A9FF",
"&	c #53AAFF",
"*	c #45A3FF",
"=	c #010E15",
"-	c #010E14",
";	c #010C11",
">	c #010B10",
",	c #011119",
"                ",
"                ",
" .++++++.++++++ ",
"+@@@@@@@@@@@@@@.",
"++############++",
"+$+$$$$$$$$$$+$+",
"+%%+%%%%%%%%+%%+",
"+&&&+&&&&&&+&&&+",
"+%%%++%%%%++%%%+",
"+##+##++++##+##+",
"+#+##########+#+",
"++************++",
".**************.",
" =---;===>->->, ",
"                ",
"                "};
