/* XPM */
static char * xterm_32x32_xpm[] = {
"32 32 334 2",
"  	c None",
". 	c #838583",
"+ 	c #9091A8",
"@ 	c #9C9DCD",
"# 	c #9C9D98",
"$ 	c #9C9D62",
"% 	c #7F7F7F",
"& 	c #62619C",
"* 	c #393839",
"= 	c #949483",
"- 	c #C1C2A8",
"; 	c #C7C8C7",
"> 	c #CECEE6",
", 	c #CECEDA",
"' 	c #CECECD",
") 	c #CECED7",
"! 	c #CECEE2",
"~ 	c #CECEC9",
"{ 	c #CECEB0",
"] 	c #B2B3BF",
"^ 	c #9898CE",
"/ 	c #7B7A9F",
"( 	c #414041",
"_ 	c #9C9C83",
": 	c #FFFFCD",
"< 	c #FFFFE6",
"[ 	c #FFFFFF",
"} 	c #FFFFE2",
"| 	c #FFFFF6",
"1 	c #FFFFFA",
"2 	c #E6E6FF",
"3 	c #CDCEFF",
"4 	c #8787A0",
"5 	c #908F90",
"6 	c #E6E6E6",
"7 	c #F0F0F0",
"8 	c #FAFAFA",
"9 	c #FDFDF0",
"0 	c #BFBFDA",
"a 	c #B0B0CD",
"b 	c #9898A6",
"c 	c #80807F",
"d 	c #808089",
"e 	c #808094",
"f 	c #808CA2",
"g 	c #8098B0",
"h 	c #A6BBD8",
"i 	c #CDDEFF",
"j 	c #8991A2",
"k 	c #464446",
"l 	c #83839C",
"m 	c #E2E2FA",
"n 	c #F6F6F6",
"o 	c #FAFAE2",
"p 	c #7F7FCD",
"q 	c #6261CD",
"r 	c #31307F",
"s 	c #000031",
"t 	c #00184A",
"u 	c #003062",
"v 	c #668FB0",
"w 	c #CDEEFF",
"x 	c #8C9BA4",
"y 	c #4A484A",
"z 	c #77839C",
"A 	c #B4CEFF",
"B 	c #CBD8FD",
"C 	c #EEEEEE",
"D 	c #BDBDD7",
"E 	c #7F98DA",
"F 	c #7FB0E6",
"G 	c #6698BF",
"H 	c #4E8098",
"I 	c #406E96",
"J 	c #315D94",
"K 	c #275292",
"L 	c #1C4690",
"M 	c #0E48A0",
"N 	c #0048B0",
"O 	c #5AA0D8",
"P 	c #B4F6FF",
"Q 	c #7D9DA2",
"R 	c #6A839C",
"S 	c #9CCEFF",
"T 	c #ACACE2",
"U 	c #9CFFFF",
"V 	c #7FDCFA",
"W 	c #62BAF6",
"X 	c #4EA4F2",
"Y 	c #398DEE",
"Z 	c #1C77F6",
"` 	c #0061FF",
" .	c #4EB0FF",
"..	c #6EA0A0",
"+.	c #707D89",
"@.	c #A8C2DA",
"#.	c #BAC8EC",
"$.	c #E4E4FA",
"%.	c #FAFAF6",
"&.	c #AEAEE2",
"*.	c #8EEEFD",
"=.	c #64CBF6",
"-.	c #4ABAF2",
";.	c #3FAFF0",
">.	c #35A4EE",
",.	c #2784EA",
"'.	c #1865E6",
").	c #5AB2F2",
"!.	c #767776",
"~.	c #B4B6B4",
"{.	c #C0C2DA",
"].	c #E6E6FA",
"^.	c #B0B0E2",
"/.	c #66DCF6",
"(.	c #31BAEE",
"_.	c #3192DE",
":.	c #3169CD",
"<.	c #66B4E6",
"[.	c #7D7D89",
"}.	c #E0E0E8",
"|.	c #B0B9E4",
"1.	c #6273D1",
"2.	c #7FB9E8",
"3.	c #73B4E6",
"4.	c #B4FFFF",
"5.	c #7BA0A0",
"6.	c #DADAD5",
"7.	c #B0C2E6",
"8.	c #6285D5",
"9.	c #7FC2EA",
"0.	c #7FB4E6",
"a.	c #CDFFFF",
"b.	c #87A0A0",
"c.	c #BABCC7",
"d.	c #DADAD7",
"e.	c #B0C2E8",
"f.	c #70B1E8",
"g.	c #31A4F4",
"h.	c #188EF6",
"i.	c #257BE2",
"j.	c #8CB4E6",
"k.	c #E6FFFF",
"l.	c #94A0A0",
"m.	c #DADADA",
"n.	c #B0C2EA",
"o.	c #62A0E6",
"p.	c #318EFA",
"q.	c #98B4E6",
"r.	c #A0A0A0",
"s.	c #E0E0EC",
"t.	c #A6C4F0",
"u.	c #4E89E2",
"v.	c #4CA2EA",
"w.	c #58CBF4",
"x.	c #4CAFF2",
"y.	c #2782F8",
"z.	c #0C63F2",
"A.	c #8CB2F2",
"B.	c #9CC6F6",
"C.	c #80B0FF",
"D.	c #313224",
"E.	c #505243",
"F.	c #6E7162",
"G.	c #989A9E",
"H.	c #E0E0E0",
"I.	c #A6D1EC",
"J.	c #3F9AE8",
"K.	c #3386DE",
"L.	c #357BDE",
"M.	c #2770E2",
"N.	c #9C9C9C",
"O.	c #292C10",
"P.	c #DADAC0",
"Q.	c #B0DCE2",
"R.	c #4A92E2",
"S.	c #989898",
"T.	c #313031",
"U.	c #4C4E39",
"V.	c #A2A489",
"W.	c #D6D6B0",
"X.	c #B6CDD6",
"Y.	c #98C4FA",
"Z.	c #90B4E8",
"`.	c #88A4D6",
" +	c #90ACD1",
".+	c #98B4CD",
"++	c #AAB9DE",
"@+	c #777783",
"#+	c #202020",
"$+	c #6A6D52",
"%+	c #ACAE94",
"&+	c #BCBECA",
"*+	c #D6D6EE",
"=+	c #DEDEDE",
"-+	c #EEEED6",
";+	c #BDBED6",
">+	c #56566E",
",+	c #101010",
"'+	c #555441",
")+	c #6A685A",
"!+	c #424133",
"~+	c #181A0C",
"{+	c #37382B",
"]+	c #56574A",
"^+	c #5E5F65",
"/+	c #666780",
"(+	c #6B6B77",
"_+	c #6F6F6F",
":+	c #77776B",
"<+	c #808066",
"[+	c #79796D",
"}+	c #737373",
"|+	c #646571",
"1+	c #3B3B48",
"2+	c #ACA5A4",
"3+	c #5A5656",
"4+	c #080808",
"5+	c #040404",
"6+	c #000000",
"7+	c #0C0C0C",
"8+	c #4E4D3F",
"9+	c #726E6E",
"0+	c #776F6A",
"a+	c #7B6F66",
"b+	c #715F66",
"c+	c #664E66",
"d+	c #4A4052",
"e+	c #2D323E",
"f+	c #2F252B",
"g+	c #311818",
"h+	c #271A1A",
"i+	c #1C1C1C",
"j+	c #2B2821",
"k+	c #3A3425",
"l+	c #484638",
"m+	c #443831",
"n+	c #1C1010",
"o+	c #141414",
"p+	c #2B2D33",
"q+	c #353A46",
"r+	c #34373F",
"s+	c #94877F",
"t+	c #EED6C5",
"u+	c #DEBAC9",
"v+	c #CD9DCD",
"w+	c #9481A4",
"x+	c #5A657B",
"y+	c #5E4A56",
"z+	c #623031",
"A+	c #4E3435",
"B+	c #565042",
"C+	c #73694A",
"D+	c #908C6F",
"E+	c #876F62",
"F+	c #392020",
"G+	c #242424",
"H+	c #4A4E5A",
"I+	c #3B3C3D",
"J+	c #4E4C6A",
"K+	c #898366",
"L+	c #C5BA62",
"M+	c #C7B696",
"N+	c #C9B2C9",
"O+	c #B6A8B4",
"P+	c #A49EA0",
"Q+	c #9E8E9C",
"R+	c #987F98",
"S+	c #96838C",
"T+	c #A2998E",
"U+	c #B0AC9C",
"V+	c #B6B5B3",
"W+	c #C9CABD",
"X+	c #AEA38A",
"Y+	c #81756A",
"Z+	c #7B7B72",
"`+	c #77776C",
" @	c #727366",
".@	c #838692",
"+@	c #949ABD",
"@@	c #9CA0AF",
"#@	c #838A88",
"$@	c #464656",
"%@	c #7F7F4E",
"&@	c #9C9D00",
"*@	c #B0B262",
"=@	c #C5C6C5",
"-@	c #DACEC5",
";@	c #DED2E2",
">@	c #EEE2DA",
",@	c #DEDEF6",
"'@	c #C9CAB4",
")@	c #E6E6D5",
"!@	c #707075",
"~@	c #7F7F66",
"{@	c #AEA8B0",
"]@	c #E4DEE2",
"^@	c #EAEAE2",
"/@	c #E2E2E6",
"(@	c #DADAEA",
"_@	c #E6E6DE",
":@	c #F2F2D1",
"<@	c #D8D8CD",
"[@	c #BFC0CD",
"}@	c #C1C2D1",
"|@	c #B2B48E",
"1@	c #A4A64A",
"2@	c #ACAE65",
"3@	c #B4B680",
"4@	c #B8BAA4",
"5@	c #7B7E8A",
"6@	c #393E4A",
"7@	c #B4B6E6",
"8@	c #9C9D66",
"9@	c #72738C",
"0@	c #181818",
"a@	c #3C3E3F",
"b@	c #545479",
"c@	c #454462",
"d@	c #282828",
"e@	c #837D85",
"f@	c #DCD6E6",
"g@	c #CDCEE6",
"h@	c #BDB8A4",
"i@	c #BDB871",
"j@	c #C9C4B1",
"k@	c #7B757D",
"l@	c #3D3C5A",
"m@	c #83776E",
"n@	c #555252",
"o@	c #6A6573",
"p@	c #413E46",
"q@	c #4E4843",
"r@	c #8C8C72",
"s@	c #464031",
"    . . + @ @ @ @ @ @ @ @ @ @ @ @ @ @ @ @ @ @ @ # $ % & &       ",
"    . . + @ @ @ @ @ @ @ @ @ @ @ @ @ @ @ @ @ @ @ # $ % & &       ",
"* * = - ; > > > > > , ' ' ' ' ' ' ' ' ' ) ! ! ! ~ { ] ^ / (     ",
"* * _ : < [ [ [ [ [ < : : : : : : : : : } | | | 1 [ 2 3 4 ( (   ",
"* * 5 6 7 8 9 < 6 > 0 a b c c c c c c c d e e e f g h i j k k   ",
"* * l 3 m n o : ' @ p q r s s s s s s s s s s s t u v w x y y   ",
"* * z A B m C o D p E F G H H H H H I J J J K L M N O P Q k k   ",
"* * R S A 3 m n T q F U U U U U U U V W W W X Y Z `  .U ..( (   ",
"* * +.@.#.3 $.%.&.q F U U U U U U U *.V =.-.;.>.,.'.).U ..( (   ",
"* * !.~.{.3 ].| ^.q F U U U U U U U U U /.(.(.(._.:.<.U ..( (   ",
"* * [.{.{.{.}.| |.1.2.U U U U U U U U U /.(.(.(._.:.3.4.5.( (   ",
"* * l 3 {.~.6.| 7.8.9.U U U U U U U U U /.(.(.(._.:.0.a.b.( (   ",
"* * [.{.c.~.d.1 e.8.f.V *.U U U U U *.V =.-.g.h.i.:.j.k.l.( (   ",
"* * !.~.~.~.m.[ n.8.o.W V U U U U U V W W W p.` '.:.q.[ r.( (   ",
"* * !.~.c.{.s.[ t.u.v.-.w./././././.w.-.x.X y.` z.'.A.[ r.( (   ",
"* * !.~.{.3 2 [ B.Y >.(.(.(.(.(.(.(.(.(.>.Y Z ` ` ` C.[ r.( (   ",
"D.D.E.F.G.{.H.< I.X J._._._._._._._._._.K.L.M.'.'.'.A.[ N.* *   ",
"O.O.O.O.F.~.P.: Q.W R.:.:.:.:.:.:.:.:.:.:.:.:.:.:.:.q.[ S.T.T.  ",
"O.O.O.O.U.F.V.W.X.Y.Z.`. +.+.+.+.+.+.+.+.+.+.+.+ +`.++> @+#+#+  ",
"    O.O.O.O.$+%+&+3 *+=+-+: : : : : : : : : : : -+=+;+@ >+,+,+  ",
"O.O.'+)+!+~+{+]+^+/+(+_+:+<+<+<+<+<+<+<+<+<+<+<+[+}+|+>+1+#+#+  ",
"O.O.)+2+3+4+5+6+6+6+6+6+6+6+6+6+6+6+6+6+6+6+6+6+5+4+7+,+#+T.T.  ",
"O.O.8+9+0+a+b+c+d+e+f+g+h+i+j+k+l+]+]+]+m+g+n+4+o+#+p+q+r+T.    ",
"O.O.D.* s+t+u+v+w+x+y+z+A+* B+C+D+%+%+%+E+z+F+,+G+* H+x+x+      ",
"O.O.I+J+K+L+M+N+O+P+Q+R+S+s+T+U+V+&+W+W.X+E+Y+Z+`+ @.@+@@@%+#@x+",
"O.O.$@& %@&@*@=@-@t+;@3 ;@t+>@C ,@3 6 : W.%+'@)@'@%+&+3 &+%+#@x+",
"O.O.$@& !@%@~@% {@;@;@;@;@;@]@^@/@(@_@:@<@&+[@}@|@1@2@3@4@&+5@6@",
"O.O.$@& & & J+* l 3 ;@t+;@3 (@)@)@)@)@)@(@3 7@@ 8@&@&@&@3@3 9@0@",
"O.O.a@$@b@& c@d@e@;@;@;@;@;@f@(@_@:@_@(@}.6 g@7@h@L+i@3@j@;@k@0@",
"    O.O.$@& l@0@m@t+;@3 ;@t+;@3 6 : 6 3 6 : 6 3 ;@t+;@3 ;@t+m@0@",
"      O.n@o@p@0@q@m@k@9@k@m@k@9@% r@% 9@% r@% 9@k@m@k@9@k@m@q@0@",
"        C+C+s@0@0@0@0@0@0@0@0@0@0@0@0@0@0@0@0@0@0@0@0@0@0@0@0@0@"};
