/* XPM */
static char *nautilus_16x16[] = {
/* columns rows colors chars-per-pixel */
"16 16 126 2 ",
"   c black",
".  c #00FE00FE00FE",
"X  c #00FF00FF00FF",
"o  c #012401240124",
"O  c #019501950195",
"+  c #01A501A501A5",
"@  c #01B801B801B8",
"#  c #01BE01BE01BE",
"$  c #01CD01CD01CD",
"%  c #01CE01CE01CE",
"&  c #01E001E001E0",
"*  c #01E601E601E6",
"=  c #025302530253",
"-  c #025502550255",
";  c #02BF02BF02BF",
":  c #02DC02DC02DC",
">  c #02F402F402F4",
",  c #031503150315",
"<  c #031803180318",
"1  c #033603360336",
"2  c #033B033B033B",
"3  c #037C037C037C",
"4  c #038903890389",
"5  c #038A038A038A",
"6  c #039C039C039C",
"7  c #039D039D039D",
"8  c #03A203A203A2",
"9  c #03BE03BE03BE",
"0  c #03C103C103C1",
"q  c #16C616C616C6",
"w  c #16D316D316D3",
"e  c #16D616D616D6",
"r  c #16DF16DF16DF",
"t  c #1C3A1C3A1C3A",
"y  c #1F871F871F87",
"u  c #1F9D1F9D1F9D",
"i  c #1FB81FB81FB8",
"p  c #1FD91FD91FD9",
"a  c #202620262026",
"s  c #24A624A624A6",
"d  c #24A824A824A8",
"f  c #24B124B124B1",
"g  c #24C124C124C1",
"h  c #24C624C624C6",
"j  c #24D824D824D8",
"k  c #54C154C154C1",
"l  c #54CD54CD54CD",
"z  c #54D054D054D0",
"x  c #54DC54DC54DC",
"c  c #5C305C305C30",
"v  c #5C325C325C32",
"b  c #5D7B5D7B5D7B",
"n  c #5D7F5D7F5D7F",
"m  c #5DBD5DBD5DBD",
"M  c #5DC05DC05DC0",
"N  c #862F862F862F",
"B  c #868C868C868C",
"V  c #869D869D869D",
"C  c #87A187A187A1",
"Z  c #9BD29BD29BD2",
"A  c #9BE39BE39BE3",
"S  c gray61",
"D  c #9CBD9CBD9CBD",
"F  c #9D3C9D3C9D3C",
"G  c #9D3E9D3E9D3E",
"H  c #9D409D409D40",
"J  c #A38AA38AA38A",
"K  c #A38EA38EA38E",
"L  c #A3D6A3D6A3D6",
"P  c #A418A418A418",
"I  c #A43CA43CA43C",
"U  c #A45EA45EA45E",
"Y  c #A4B9A4B9A4B9",
"T  c #A4C2A4C2A4C2",
"R  c #A4D6A4D6A4D6",
"E  c #A4F0A4F0A4F0",
"W  c #A516A516A516",
"Q  c #A53AA53AA53A",
"!  c #A549A549A549",
"~  c #A54EA54EA54E",
"^  c #A568A568A568",
"/  c #A56AA56AA56A",
"(  c #A58CA58CA58C",
")  c #A5F3A5F3A5F3",
"_  c #A605A605A605",
"`  c #A625A625A625",
"'  c #A62AA62AA62A",
"]  c #A6ABA6ABA6AB",
"[  c #A77DA77DA77D",
"{  c #A77EA77EA77E",
"}  c #A77FA77FA77F",
"|  c #A780A780A780",
" . c #A785A785A785",
".. c #A786A786A786",
"X. c #A816A816A816",
"o. c #A817A817A817",
"O. c #A818A818A818",
"+. c #A845A845A845",
"@. c #A847A847A847",
"#. c #A89CA89CA89C",
"$. c #A89DA89DA89D",
"%. c #A89EA89EA89E",
"&. c #A8A0A8A0A8A0",
"*. c #A8A2A8A2A8A2",
"=. c #A953A953A953",
"-. c #A954A954A954",
";. c #AF61AF61AF61",
":. c #B009B009B009",
">. c #B0B3B0B3B0B3",
",. c #B17EB17EB17E",
"<. c #B33CB33CB33C",
"1. c #B33DB33DB33D",
"2. c #B35EB35EB35E",
"3. c #DFD7DFD7DFD7",
"4. c #E001E001E001",
"5. c #E004E004E004",
"6. c #E015E015E015",
"7. c #E01AE01AE01A",
"8. c #E020E020E020",
"9. c #F0A1F0A1F0A1",
"0. c #F0B5F0B5F0B5",
"q. c #F161F161F161",
"w. c #F162F162F162",
"e. c #F3B3F3B3F3B3",
"r. c #F3B7F3B7F3B7",
"t. c #F3D4F3D4F3D4",
/* pixels */
"      X * O # @ & + % $ o       ",
"    r V ) J U I W L Y / C e     ",
"    l w.2.X.*.$.$.&.O.2.q.k     ",
"    m 8.a   < 3 8 2   a 8.m     ",
"    n 3.t j A Q ` D h t 3.n     ",
"    n 3.t f H =.=.F s t 3.n     ",
"    b 6.y   ; 7 9 :   u 7.b     ",
"    c e.;.T ^ ~ ' E ! :.t.c     ",
"    v r.<.o.*.#.%.&.O.1.r.v     ",
"    b 6.a   , 6 4 1   a 6.b     ",
"    n 3.t j Z _ ( S g t 3.n     ",
"    n 3.t f H =.-.G d t 3.n     ",
"    M 5.i   ; 0 5 >   p 4.M     ",
"    x 0.>.P ^ ' R ] K ,.9.z     ",
"    q N +...{ } [ |  .@.B w     ",
"      . - = = = = = = - .       "
};
