/* XPM */
static char *gnome_terminal_16x16[] = {
/* columns rows colors chars-per-pixel */
"16 16 174 2 ",
"   c black",
".  c #000100010001",
"X  c #006600660066",
"o  c #006A006A006A",
"O  c #007500750075",
"+  c #007E007E007E",
"@  c #009200920092",
"#  c #009800980098",
"$  c #00D000D000D0",
"%  c #00DE00DE00DE",
"&  c #00F900F900F9",
"*  c #013701370137",
"=  c #014501450145",
"-  c #015C015C015C",
";  c #016101610161",
":  c #017201720172",
">  c #019201920192",
",  c #01A401A401A4",
"<  c #01DB01DB01DB",
"1  c #020202020202",
"2  c #020602060206",
"3  c #020702070207",
"4  c #020802080208",
"5  c #020B020B020B",
"6  c #020C020C020C",
"7  c #020D020D020D",
"8  c #024B024B024B",
"9  c #024C024C024C",
"0  c #025002500250",
"q  c #025102510251",
"w  c #025202520252",
"e  c #025502550255",
"r  c #025602560256",
"t  c #025702570257",
"y  c #025902590259",
"u  c #026402640264",
"i  c #026602660266",
"p  c #026702670267",
"a  c #026A026A026A",
"s  c #02FF02FF02FF",
"d  c #030703070307",
"f  c #0AEC0AEC0AEC",
"g  c #0B8F0B8F0B8F",
"h  c #0BB00BB00BB0",
"j  c #0CD10CD10CD1",
"k  c #126B126B126B",
"l  c #168016801680",
"z  c #170817081708",
"x  c #1FDD1FDD1FDD",
"c  c #20FE20FE20FE",
"v  c #210C210C210C",
"b  c #25C425C425C4",
"n  c #262226222622",
"m  c #27BA27BA27BA",
"M  c #2A002A002A00",
"N  c #2D082D082D08",
"B  c #300F300F300F",
"V  c #301E301E301E",
"C  c #306830683068",
"Z  c #30C830C830C8",
"A  c #360736073607",
"S  c #36A336A336A3",
"D  c #465646564656",
"F  c #467546754675",
"G  c #46E946E946E9",
"H  c #4CA54CA54CA5",
"J  c #4D7F4D7F4D7F",
"K  c #4DCC4DCC4DCC",
"L  c #53D353D353D3",
"P  c #543354335433",
"I  c #56A356A356A3",
"U  c #57A257A257A2",
"Y  c #5A525A525A52",
"T  c #5B205B205B20",
"R  c #5B245B245B24",
"E  c #5BEF5BEF5BEF",
"W  c #8AE48AE48AE4",
"Q  c #8B2E8B2E8B2E",
"!  c #8B8F8B8F8B8F",
"~  c #8BD58BD58BD5",
"^  c #94C994C994C9",
"/  c #96C896C896C8",
"(  c #96E196E196E1",
")  c #973C973C973C",
"_  c #974D974D974D",
"`  c #978597859785",
"'  c #97A397A397A3",
"]  c #991A991A991A",
"[  c #993C993C993C",
"{  c #A48EA48EA48E",
"}  c #A4C5A4C5A4C5",
"|  c #A6C7A6C7A6C7",
" . c #A6EFA6EFA6EF",
".. c #A754A754A754",
"X. c #A75CA75CA75C",
"o. c #A763A763A763",
"O. c #A770A770A770",
"+. c #A771A771A771",
"@. c #A773A773A773",
"#. c #A775A775A775",
"$. c #A776A776A776",
"%. c #A778A778A778",
"&. c #A77BA77BA77B",
"*. c #A77CA77CA77C",
"=. c #A77DA77DA77D",
"-. c #A77FA77FA77F",
";. c #A781A781A781",
":. c #A783A783A783",
">. c #A78BA78BA78B",
",. c #A78DA78DA78D",
"<. c #A78FA78FA78F",
"1. c #A790A790A790",
"2. c #A797A797A797",
"3. c #A798A798A798",
"4. c #A79EA79EA79E",
"5. c #A7A5A7A5A7A5",
"6. c #A7AAA7AAA7AA",
"7. c #A7ECA7ECA7EC",
"8. c #A7FDA7FDA7FD",
"9. c #A810A810A810",
"0. c #A81BA81BA81B",
"q. c #A833A833A833",
"w. c #A853A853A853",
"e. c #A87DA87DA87D",
"r. c #A889A889A889",
"t. c #A8A0A8A0A8A0",
"y. c #A8AFA8AFA8AF",
"u. c #A8B3A8B3A8B3",
"i. c #A8B8A8B8A8B8",
"p. c #A8BDA8BDA8BD",
"a. c #A8C0A8C0A8C0",
"s. c #A8C5A8C5A8C5",
"d. c #A8C6A8C6A8C6",
"f. c #A8CAA8CAA8CA",
"g. c #A8CDA8CDA8CD",
"h. c #A8DCA8DCA8DC",
"j. c #AAC2AAC2AAC2",
"k. c #AB27AB27AB27",
"l. c #AB28AB28AB28",
"z. c #AB2FAB2FAB2F",
"x. c #AB68AB68AB68",
"c. c #AB6AAB6AAB6A",
"v. c #AB8AAB8AAB8A",
"b. c #AC96AC96AC96",
"n. c #ACABACABACAB",
"m. c #B84FB84FB84F",
"M. c #B87AB87AB87A",
"N. c #B87BB87BB87B",
"B. c #B896B896B896",
"V. c #B8E2B8E2B8E2",
"C. c #B8EFB8EFB8EF",
"Z. c #B8FDB8FDB8FD",
"A. c #BA0FBA0FBA0F",
"S. c #C0EBC0EBC0EB",
"D. c #C0FBC0FBC0FB",
"F. c #C1ADC1ADC1AD",
"G. c #C27CC27CC27C",
"H. c #C3BFC3BFC3BF",
"J. c #E518E518E518",
"K. c #E8D5E8D5E8D5",
"L. c #E8F0E8F0E8F0",
"P. c #E966E966E966",
"I. c #F390F390F390",
"U. c #F454F454F454",
"Y. c #F64EF64EF64E",
"T. c #F982F982F982",
"R. c #F984F984F984",
"E. c #F9AFF9AFF9AF",
"W. c #F9B6F9B6F9B6",
"Q. c #FB32FB32FB32",
"!. c #FB96FB96FB96",
"~. c #FBC5FBC5FBC5",
"^. c #FE32FE32FE32",
"/. c gray100",
/* pixels */
"    , d s s s s s s s s d ,     ",
"  Z [ x.z.l.l.k.k.l.l.z.c.] C   ",
"O ) R.Z.0.s.h.e.i.d.d.7.C.T.( X ",
"i -.B.f * $ < 1 4 5 5 : g V.+.u ",
"0 @.| x Q J -           1 r.,.e ",
"e >.} G Y.K.I %         6 f.@.0 ",
"w *.8.j ~ ~.L.U &       5 a.#.q ",
"y 5.a.= h ! Q.P.K       7 g.$.q ",
"w =.u.3   A J./.W       4 y.#.q ",
"t 3.p.# M H./.D.b       2 t.#.q ",
"w &. .v G./.F.n k L E T N q.O.q ",
"9 X.{ F I.S.m   H U.!.^.^ u...q ",
"a <.m.z D c @ > l P R Y S N.%.p ",
"+ _ W.A.9.j.n.b.v.e.w.:.M.E./ o ",
"  V ` 6.o.1.o.;.4.#.X.2.5.' B   ",
"  . - t 8 e 9 w t 0 8 e r ;     "
};
