/* XPM */
static char *cd_mount_16x16[]={
"20 20 5 1",
". c None",
"b c #000000",
"c c #00ff00",
"a c #808080",
"# c #cfcfcf",
"....................",
"....................",
"...#####......#.....",
"..#######....###....",
"...#####....#####...",
"....###....#######..",
".....#......#####...",
"....................",
".abbbbbbbbbbbbbbbba.",
".b###############ab.",
".b#bbbbbbbbbbbbbbab.",
".b#b############bab.",
".b#b############bab.",
".b#bbbbbbbbbbbbbbab.",
".b##############aab.",
".baaaaaaaaaaaaccaab.",
".abbbbbbbbbbbbbbbba.",
"....................",
"....................",
"...................."};
