/* XPM */
static char *cdon_16x16[]={
"16 16 3 1",
". c None",
"a c #00ff00",
"# c #cfcfcf",
"................",
"................",
"................",
"................",
"################",
"#..............#",
"#..............#",
"#..##########..#",
"#..##########..#",
"#..............#",
"#..........aa..#",
"################",
"................",
"................",
"................",
"................"};
