/* XPM */
static char * chrome_16x16_xpm[] = {
"16 16 83 1",
" 	c None",
".	c #ECEDEC",
"+	c #EDEDED",
"@	c #E3E3E3",
"#	c #EAEAEA",
"$	c #E9E9E9",
"%	c #E1E1E1",
"&	c #C9C9C9",
"*	c #E6E6E6",
"=	c #E7E7E7",
"-	c #E4E4E4",
";	c #E8E8E8",
">	c #E6E5E5",
",	c #E5E5E5",
"'	c #BABABA",
")	c #DCDCDC",
"!	c #A2A2A2",
"~	c #B7B7B7",
"{	c #DCDDDD",
"]	c #E3E3E2",
"^	c #E2E2E2",
"/	c #D8D8D8",
"(	c #DEDDDD",
"_	c #DFDFDF",
":	c #CDCDCD",
"<	c #D5D5D5",
"[	c #DEDEDE",
"}	c #949494",
"|	c #A8A8A8",
"1	c #CECECE",
"2	c #DDDDDD",
"3	c #D7D7D7",
"4	c #DADAD9",
"5	c #D9D9DA",
"6	c #D6D6D6",
"7	c #DADADA",
"8	c #D9D9D9",
"9	c #D1D1D1",
"0	c #C3C2C3",
"a	c #A9AAA9",
"b	c #A9A9A9",
"c	c #D3D3D3",
"d	c #D4D4D4",
"e	c #D5D5D4",
"f	c #D0D0D0",
"g	c #BDBDBD",
"h	c #C7C6C6",
"i	c #CFCFCF",
"j	c #C6C6C6",
"k	c #CFD0D0",
"l	c #979797",
"m	c #C3C3C3",
"n	c #CBCBCB",
"o	c #C8C8C8",
"p	c #9D9D9D",
"q	c #7F7F7F",
"r	c #8E8E8E",
"s	c #A6A6A5",
"t	c #CACACA",
"u	c #AFAFAF",
"v	c #C7C7C7",
"w	c #AEAEAE",
"x	c #C1C1C1",
"y	c #C5C5C5",
"z	c #BBBBBB",
"A	c #BCBCBC",
"B	c #C2C2C2",
"C	c #909090",
"D	c #C0C0C0",
"E	c #BEBFBE",
"F	c #6F6F6D",
"G	c #B8B8B8",
"H	c #B2B2B2",
"I	c #A5A5A5",
"J	c #BDBDBC",
"K	c #545454",
"L	c #A7A7A7",
"M	c #B6B6B6",
"N	c #6D6D6D",
"O	c #858585",
"P	c #717171",
"Q	c #919191",
"R	c #727171",
"                ",
"      .+++      ",
"    @######$    ",
"   %&*=--;>,,   ",
"  %@')'!!~{]^%  ",
" /(_: <[[<}|1_2 ",
" 3456:788790ab& ",
" cdefg6dd<hi<cj ",
" 1ffklmfi&biffi ",
" jnnnopqrs&ntt& ",
" uovvmwxyovvvvz ",
"  ABzC'xxDDDxE  ",
"  FGHIJAAAAAG   ",
"   KILCM~~~|    ",
"     NOPlQR     ",
"                "};
