/* XPM */
static char * google_chrome_24x24_xpm[] = {
"24 24 116 2",
"  	c None",
". 	c #ECECEC",
"+ 	c #ECEDEC",
"@ 	c #EDEDED",
"# 	c #E5E5E5",
"$ 	c #EAEBEB",
"% 	c #EBEBEB",
"& 	c #EAEAEA",
"* 	c #DCDCDC",
"= 	c #D2D2D2",
"- 	c #E9E9E9",
"; 	c #E8E8E8",
"> 	c #E8E8E7",
", 	c #DFDFDF",
"' 	c #BDBDBD",
") 	c #E4E4E4",
"! 	c #E6E6E6",
"~ 	c #E3E3E3",
"{ 	c #DEDEDE",
"] 	c #E6E5E5",
"^ 	c #E1E1E1",
"/ 	c #B4B4B4",
"( 	c #DBDBDB",
"_ 	c #E2E2E2",
": 	c #CCCCCC",
"< 	c #A3A3A3",
"[ 	c #979797",
"} 	c #A0A0A0",
"| 	c #CACACA",
"1 	c #E3E3E2",
"2 	c #E2E3E3",
"3 	c #D9D9D9",
"4 	c #E0E0E0",
"5 	c #C7C7C7",
"6 	c #BEBEBE",
"7 	c #A1A1A1",
"8 	c #D1D1D1",
"9 	c #CFCFCF",
"0 	c #9F9F9F",
"a 	c #B5B5B5",
"b 	c #DEDDDD",
"c 	c #DDDDDD",
"d 	c #DADADA",
"e 	c #9D9D9D",
"f 	c #777777",
"g 	c #A2A2A2",
"h 	c #C1C1C1",
"i 	c #D5D4D4",
"j 	c #DBDBDA",
"k 	c #DBDADB",
"l 	c #DADADB",
"m 	c #D4D4D4",
"n 	c #BCBBBC",
"o 	c #949494",
"p 	c #B0B0B0",
"q 	c #D0D0D0",
"r 	c #C8C8C8",
"s 	c #D8D8D8",
"t 	c #D6D6D6",
"u 	c #D8D7D7",
"v 	c #D7D8D8",
"w 	c #D7D8D7",
"x 	c #D7D6D6",
"y 	c #C0C0C0",
"z 	c #A4A4A4",
"A 	c #D5D5D5",
"B 	c #B2B2B2",
"C 	c #CAC9C9",
"D 	c #D3D3D3",
"E 	c #D1D2D2",
"F 	c #C5C5C5",
"G 	c #8C8C8C",
"H 	c #CECECE",
"I 	c #A6A6A6",
"J 	c #CECFCE",
"K 	c #ABABAB",
"L 	c #868686",
"M 	c #BBBBBB",
"N 	c #BFBFBF",
"O 	c #9A9A9A",
"P 	c #B1B1B1",
"Q 	c #CDCDCD",
"R 	c #9C9C9B",
"S 	c #CBCBCB",
"T 	c #CBCACB",
"U 	c #B3B3B3",
"V 	c #626262",
"W 	c #6F6F6F",
"X 	c #7F7F7F",
"Y 	c #8A8A8A",
"Z 	c #B7B7B6",
"` 	c #B7B7B7",
" .	c #C3C3C3",
"..	c #C4C4C4",
"+.	c #C5C4C5",
"@.	c #A5A5A5",
"#.	c #919191",
"$.	c #8F8F8F",
"%.	c #B8B9B8",
"&.	c #696967",
"*.	c #B3B2B2",
"=.	c #BEBEBD",
"-.	c #B6B6B6",
";.	c #636363",
">.	c #AAAAAA",
",.	c #BABAB9",
"'.	c #B9B9B9",
").	c #AFAFAF",
"!.	c #7E7E7E",
"~.	c #818181",
"{.	c #999999",
"].	c #4C4C4C",
"^.	c #747474",
"/.	c #888888",
"(.	c #898888",
"_.	c #5C5A5A",
"                                                ",
"                                                ",
"                . + @ @ @ @ @ .                 ",
"            # $ % % % % % % % % % &             ",
"          * = - ; ; ; - - ; ; ; ; ; >           ",
"        # , ' ) ! ! ~ { { ~ ! ] # # # #         ",
"      ^ ~ ^ / ( _ : < [ [ } | ^ ~ 1 _ 2 _       ",
"    3 4 4 ^ 5 ' 6 7 8 ( ( 9 0 a ( , ^ 4 4 {     ",
"    ( b c { 3     d { { { { d e f g h i c c     ",
"    d j k l d   9 ( d d d d ( m   n < o p q     ",
"  r s s s s t   : s u v w w s =   x s = y z     ",
"  5 A m m m m B 6 A m m m m m C p D m m A 8     ",
"  y = 8 8 8 E F G | = 8 8 = H I F 8 8 8 8 8 H   ",
"  a 9 H H H J H K L M r r N O P Q H H H H H F   ",
"  R | S S S T S | U V W X Y Z | S | | | | |     ",
"    N r r r r r 5 `   6 h F r r r r r r r  .    ",
"    0 ......+. .@.#.y F ..................P     ",
"      P h h 6 O $.' h y y y y y y y y h %.      ",
"      &.*.6 `   U =.' ' ' ' ' ' ' ' ' -.        ",
"        ;.>.,.p L p '.'.'.'.'.'.'.'.).!.        ",
"            #.).I ~.I a -.-.-.a p {.            ",
"              ].L o ^./.z I e (._.              ",
"                                                ",
"                                                "};
