/* XPM */
static char *firefox_32x32[] = {
/* columns rows colors chars-per-pixel */
"32 32 2 1 ",
"  c gray100",
". c None",
/* pixels */
"................................",
"................................",
"................................",
"................................",
"................................",
"................................",
"...................... .........",
"....... ..... .........  .......",
"......   ...  ..........  ......",
"......       ............  .....",
"......       ............  .....",
".....           ........    ....",
".....           ........    ....",
".....          ..........   ....",
"....          ...........    ...",
"....        . ..........     ...",
"....        ...........      ...",
"....         ..........      ...",
"....               ....      ...",
".....            ......     ....",
".....           ......      ....",
".....          ......      .....",
"......                     .....",
".......                   ......",
".......                  .......",
".........               ........",
"..........            ..........",
".............      .............",
"................................",
"................................",
"................................",
"................................"
};
