/* XPM */
static char * midori_48x48_xpm[] = {
"48 48 105 2",
"  	c None",
". 	c #8F8F8F",
"+ 	c #909090",
"@ 	c #8E8E8E",
"# 	c #919191",
"$ 	c #A8A8A8",
"% 	c #D0D0D0",
"& 	c #D1D1D1",
"* 	c #989898",
"= 	c #9D9D9D",
"- 	c #939393",
"; 	c #B0B0B0",
"> 	c #DDDDDD",
", 	c #FFFFFF",
"' 	c #F8F8F8",
") 	c #ACACAC",
"! 	c #AAAAAA",
"~ 	c #959595",
"{ 	c #BBBBBB",
"] 	c #EEEEEE",
"^ 	c #C0C0C0",
"/ 	c #9C9C9C",
"( 	c #A3A3A3",
"_ 	c #DFDFDF",
": 	c #E6E6E6",
"< 	c #A2A2A2",
"[ 	c #C3C3C3",
"} 	c #9F9F9F",
"| 	c #B2B2B2",
"1 	c #F5F5F5",
"2 	c #FCFCFC",
"3 	c #ABABAB",
"4 	c #A6A6A6",
"5 	c #FBFBFB",
"6 	c #FDFDFD",
"7 	c #FEFEFE",
"8 	c #9A9A9A",
"9 	c #A4A4A4",
"0 	c #E3E3E3",
"a 	c #EFEFEF",
"b 	c #EBEBEB",
"c 	c #AEAEAE",
"d 	c #CECECE",
"e 	c #ECECEC",
"f 	c #A7A7A7",
"g 	c #B8B8B8",
"h 	c #929292",
"i 	c #FAFAFA",
"j 	c #969696",
"k 	c #EDEDED",
"l 	c #F7F7F7",
"m 	c #9E9E9E",
"n 	c #BFBFBF",
"o 	c #F9F9F9",
"p 	c #E9E9E9",
"q 	c #F1F1F1",
"r 	c #D3D3D3",
"s 	c #949494",
"t 	c #E8E8E8",
"u 	c #E7E7E7",
"v 	c #A5A5A5",
"w 	c #CCCCCC",
"x 	c #E5E5E5",
"y 	c #DCDCDC",
"z 	c #E4E4E4",
"A 	c #EAEAEA",
"B 	c #E2E2E2",
"C 	c #C6C6C6",
"D 	c #979797",
"E 	c #999999",
"F 	c #F4F4F4",
"G 	c #E1E1E1",
"H 	c #DEDEDE",
"I 	c #B3B3B3",
"J 	c #B4B4B4",
"K 	c #F3F3F3",
"L 	c #F2F2F2",
"M 	c #F6F6F6",
"N 	c #E0E0E0",
"O 	c #F0F0F0",
"P 	c #D9D9D9",
"Q 	c #DBDBDB",
"R 	c #DADADA",
"S 	c #D8D8D8",
"T 	c #D7D7D7",
"U 	c #D5D5D5",
"V 	c #8D8D8D",
"W 	c #D4D4D4",
"X 	c #D6D6D6",
"Y 	c #CFCFCF",
"Z 	c #BCBCBC",
"` 	c #CDCDCD",
" .	c #D2D2D2",
"..	c #CACACA",
"+.	c #C8C8C8",
"@.	c #CBCBCB",
"#.	c #C9C9C9",
"$.	c #BDBDBD",
"%.	c #B9B9B9",
"&.	c #C2C2C2",
"*.	c #C1C1C1",
"=.	c #B5B5B5",
"-.	c #BEBEBE",
";.	c #A1A1A1",
">.	c #9B9B9B",
"                                                                                                ",
"                                                                              . + @             ",
"                                                                    @ . @ @ @ @ #               ",
"                                                            @ + # $ % & $ *                     ",
"                                                      = - ; > , , ' ) *                         ",
"                                                ! ~ { ] , , , , ^ /                             ",
"                                          ^ ( ( _ , , , , , : * <                               ",
"                                      [ } | 1 , , , 2 , , | /                     ! + 3         ",
"                                    4 ) 5 , , , 6 7 , , 8 8                     | 9 0 )         ",
"                                | ( a , , , , 7 , , b -                       c c , 2 4         ",
"                              / d , , , , , 7 , , e -                       f g , , , (         ",
"                          ; / 6 , , , , , , , , a h                       = [ , , , i 4         ",
"                        ( 3 , , , , , , , , , , +                       j > , , k , l f         ",
"                      m n , , , , , , , , , , *                       j o , , k p , q f         ",
"                    / ^ , , , , , , , , , , r @                   s 9 , , , b t u , t v         ",
"                  j { , , , , , , , , 7 , , #                   # w , , , p u : x , y 9         ",
"                  f , , , , , , , , 7 , , o .               + = , , , 1 t : x z 0 , & =         ",
"                j , , , , , , , , , 6 , , z +           # # r , , , A u : z z 0 B , C           ",
"              h i , , , , , , , , 7 2 , , , D       E s % , , , F u : z 0 0 B G H , I           ",
"              I , , , , , , , , , 6 2 i , , ] J 3 ^ A , , , l p : x 0 0 B G _ _ > , <           ",
"            # , , , , , ' F F K L F M ' 6 , , , , , , , L A : : z 0 0 G N _ > y y , -           ",
"          . [ , , , l F 1 F K L L q O a O a M i l q b t u : z z 0 B N H H y y P P , +           ",
"          h , , , 1 1 F F L q q O O ] k e e A A p p u : x 0 0 B G H _ y y Q R S y , +           ",
"          f , , F F K L q q q O a ] k e A A A p t : x z 0 B G _ _ > y Q R S T U B q V           ",
"        / 0 , F K K q L q O a a k e b A A p t u : z z 0 B N _ H y Q P P T U W r A W .           ",
"        s , , F L L q O q i q e e A A p t u : z 0 0 B G H H y y P R T U U W r & ' |             ",
"        D , ' q q q O q , , , a A A p u : x 0 0 B G _ _ y y Q R S X U W r & Y d , /             ",
"        ) , q q O a a , , 8 , i p t : : z 0 0 G N _ > y Q R P T U W r & % d d d , +             ",
"        Z , q a a k q , Y ` , e u : z z 0 B N _ : > y P P T U W W  .& Y d ` ..X , @             ",
"        +., a k e e , , * , , : x 0 0 B G H N , , , Q S X U W r & Y d ` @.#.#.e 0 .             ",
"        @., ] e A A , t $., p z 0 B G _ _ > F , $ , t U W r & Y d d @...#.#.#., %.              ",
"        &., b A A A , *.t , z 0 B N _ H y Q , & d , y r  .% d d w ..#.#.#.#.w , *               ",
"        =., b p t ] , $ , , B G H H y y P _ , = , , r & Y d ` ..#.#.#.#.#.#.z , .               ",
"        / , b u : q , = , i _ _ y y Q R S k , } , L Y d d @.#.#.#.#.#.#.#.#., G .               ",
"        . , ] : z q , 8 , ' > y Q R P T U 5 A -., y d w ..#.#.#.#.#.#.#.#.d , 9                 ",
"        @ B , z 0 q , < , 1 y P P T U W W , H d , d ..#.#.#.#.#.#.#.#.#.#.O , #                 ",
"          8 , z G ] , c 2 1 R T X U W r & , R  ., #.#.#.#.#.#.#.#.#.#.#..., ^                   ",
"          @ d , G t , -.b ' T U W r & Y d , N @., #.#.#.#.#.#.#.#.#.#.#.0 , #                   ",
"            . +., , , S & 6 W r  .% d d w , O %., ..#.#.#.#.#.#.#.#.#..., % .                   ",
"              . + 3 B ` I ,  .& Y d ` ..#.M , m , > #.#.#.#.#.#.#.#.#.b , h                     ",
"                    = $ = , y d d @.#.#.#.H , } , 2 #.#.#.#.#.#.#.#.W , ^ @                     ",
"                        + F , Y ..#.#.#.#.#., +.Q , d #.#.#.#.#.#.d , o +                       ",
"                          - , 2 d #.#.#.#.#.K , ;., 5 #.#.#.#.#.& , , -                         ",
"                          . < , , : X & w & O , >.% , , y % r A , , D                           ",
"                            . E , , , , , , , Y @ V >.L , , , , N -                             ",
"                                . v & p t *.s @       @ + = = + +                               ",
"                                    @ . . @                                                     ",
"                                                                                                "};
