/* XPM */
static char * midori_24x24_xpm[] = {
"24 24 87 1",
" 	c None",
".	c #8B8B8B",
"+	c #B7B7B7",
"@	c #959595",
"#	c #8F8F8F",
"$	c #BBBBBB",
"%	c #CDCDCD",
"&	c #FFFFFF",
"*	c #D9D9D9",
"=	c #979797",
"-	c #A0A0A0",
";	c #CBCBCB",
">	c #FDFDFD",
",	c #F0F0F0",
"'	c #A9A9A9",
")	c #939393",
"!	c #A3A3A3",
"~	c #CCCCCC",
"{	c #FEFEFE",
"]	c #E2E2E2",
"^	c #D0D0D0",
"/	c #B3B3B3",
"(	c #F8F8F8",
"_	c #DDDDDD",
":	c #C4C4C4",
"<	c #CFCFCF",
"[	c #BEBEBE",
"}	c #EAEAEA",
"|	c #DBDBDB",
"1	c #F4F4F4",
"2	c #C2C2C2",
"3	c #9A9A9A",
"4	c #EDEDED",
"5	c #FAFAFA",
"6	c #E6E6E6",
"7	c #B0B0B0",
"8	c #F9F9F9",
"9	c #E4E4E4",
"0	c #F3F3F3",
"a	c #B5B5B5",
"b	c #FCFCFC",
"c	c #B4B4B4",
"d	c #A1A1A1",
"e	c #FBFBFB",
"f	c #E8E8E8",
"g	c #E3E3E3",
"h	c #E0E0E0",
"i	c #F2F2F2",
"j	c #D3D3D3",
"k	c #F1F1F1",
"l	c #F6F6F6",
"m	c #F5F5F5",
"n	c #E9E9E9",
"o	c #DEDEDE",
"p	c #828282",
"q	c #8A8A8A",
"r	c #EFEFEF",
"s	c #E7E7E7",
"t	c #E5E5E5",
"u	c #E1E1E1",
"v	c #DCDCDC",
"w	c #DADADA",
"x	c #D6D6D6",
"y	c #C6C6C6",
"z	c #EBEBEB",
"A	c #DFDFDF",
"B	c #D7D7D7",
"C	c #D5D5D5",
"D	c #CACACA",
"E	c #EEEEEE",
"F	c #ECECEC",
"G	c #C5C5C5",
"H	c #D8D8D8",
"I	c #D1D1D1",
"J	c #CECECE",
"K	c #D2D2D2",
"L	c #C9C9C9",
"M	c #C8C8C8",
"N	c #949494",
"O	c #C7C7C7",
"P	c #C0C0C0",
"Q	c #F7F7F7",
"R	c #D4D4D4",
"S	c #969696",
"T	c #BABABA",
"U	c #A8A8A8",
"V	c #A2A2A2",
"                        ",
"                .+@#    ",
"             $%&*=      ",
"          -;>&,'     )  ",
"        !~&{&]      $^  ",
"       /(&&{_      :&<  ",
"      [&{&{}      |&1%  ",
"     2&&{{&3    34561:  ",
"    7&&&&{8    [&,990a  ",
"   #&{&&&b&cd:e8fg]hi3  ",
"   j&51ikil&&mn9gho|0p  ",
"  q&l0k,r4}fstguovwxi   ",
"  y5i,i4znf6g]A_wBC^A   ",
"  <k,ig{fs9]h_|*Cj^D%   ",
"  gEF&Gmtgu61HxjIJ;j2   ",
"  6}fz}]uAw(x*KJ~LMnN   ",
"  xf};&ov|_O&%%DMLye    ",
"  PEnM&**x}^4DMLLLIJ    ",
"   QuBeCRIn^6MLLLMiN    ",
"   Sjsu<<~g;EMLLLJ|     ",
"      L|DMDx&GLLy{)     ",
"       0_;y&TQ;^{'      ",
"        %liT U~~V       ",
"                        "};
