/* XPM */
static char *mousepad_16x16[]={
"16 16 3 1",
"a c None",
". c None",
"# c #c6c6c6",
".##.##.##.##.##.",
".#............#.",
"....aaaaaaa.....",
".#..a#aaaaa...#.",
".#..a##aaaa...#.",
"....a###aaa.....",
".#..a####aa...#.",
".#..a#####aa..#.",
"....a######a....",
".#..a##aaaaa..#.",
".#aaa#aaaaaaaa#.",
"....aaaaaaa.....",
".#......a.....#.",
".##.##.##.##.##.",
".aaaaaaaaaaaaaaa",
".aaaaaaaaaaaaaaa"};
