/* XPM */
static char *mum_16x16[]={
"16 16 3 1",
". c None",
"a c None",
"# c #cfcfcf",
".......##.......",
"......#..#......",
".....#....#.....",
"....#......#....",
"...#........#...",
"....########....",
"aaaa........aaaa",
"a..............a",
"a...............",
"....########....",
"...##########...",
"....########....",
".....######.....",
"......####......",
".......##.......",
"................"};
