/* XPM */
static char *putty_32x32[]={
"32 32 505 2",
"Qt c None",
"eS c #313131",
"ez c #2f2f2f",
"eT c #797979",
"fg c #7e7e7e",
"eA c #2e2e2e",
"eU c #a0a0a0",
"fE c #252525",
"eR c #2c2c2c",
"eB c #2c2c2c",
"eQ c #2a2a2a",
"eC c #2c2c2c",
"eP c #2c2c2c",
"eD c #2d2d2d",
"eO c #2c2c2c",
"eN c #2b2b2b",
"f0 c #212121",
"ff c #8f8f8f",
"fh c #878787",
"eV c #828282",
"fD c #7c7c7c",
"f1 c #010101",
"fZ c #1e1e1e",
"fF c #242424",
"fi c #949494",
"fC c #808080",
"fe c #777777",
"eW c #767676",
"fY c #1d1d1d",
"f2 c #000000",
"fG c #272727",
"fB c #949494",
"fX c #222222",
"d6 c #000000",
"fj c #9f9f9f",
"ek c #060505",
"eX c #777777",
"fd c #7a7a7a",
"fA c #9f9f9f",
"fH c #2d2d2d",
"fW c #242424",
"d5 c #1a1915",
"bn c #31312b",
"a6 c #35332f",
"aL c #383631",
"at c #3c3a36",
"a. c #3f3d39",
"#O c #43403c",
"#t c #464340",
".9 c #494743",
".M c #4b4945",
"bZ c #2b2a26",
"bI c #2f2e29",
"ce c #2a2724",
"fk c #9d9d9d",
"cL c #25231f",
"ct c #262420",
"dJ c #272520",
"c7 c #25231f",
"fc c #7d7d7d",
"eq c #0d0a07",
"el c #1c1712",
"eY c #797979",
"fz c #a7a7a7",
"dK c #30302d",
"fI c #2b2b2b",
"fV c #1e1e1e",
"ej c #252320",
"eZ c #787878",
"fl c #a0a0a0",
"d7 c #454441",
"fb c #7d7d7d",
"fy c #8d8d8d",
"dp c #54524c",
"fm c #9d9d9d",
"fJ c #2c2c2c",
"dL c #3d3a35",
"d3 c #413e37",
"e0 c #505050",
"dM c #615f57",
"dq c #6a665d",
".# c #d1cfc9",
"eE c #090909",
"eM c #101010",
"fU c #111111",
"cI c #161816",
"eu c #18120b",
"eF c #1b1b1b",
"eG c #1e1e1e",
"fL c #212121",
"eK c #222222",
"ep c #241b11",
"ey c #242222",
"a3 c #242624",
"cH c #242724",
"eL c #252525",
"bk c #252725",
"aq c #252825",
"et c #261a0e",
"bF c #262926",
"aI c #262a26",
"eH c #272727",
".6 c #272925",
"cb c #272a27",
"cG c #282a28",
"#7 c #282c28",
"er c #291f15",
"#q c #292c29",
"cF c #2a2c2a",
"eo c #2b2117",
"em c #2b251f",
"cE c #2c2f2c",
"d4 c #2d2b25",
"fK c #2d2d2d",
"eJ c #2f2f2f",
"cD c #2f322f",
"es c #312417",
"en c #312922",
".5 c #31332f",
"cC c #313431",
"cB c #333633",
"cx c #343934",
"cA c #353935",
"cy c #353a35",
"a2 c #363b36",
".4 c #373835",
"cz c #383b38",
"ci c #383c38",
"bj c #383d38",
"ei c #3a3832",
"eh c #3a3834",
".3 c #3b3d3a",
"ex c #3c3836",
"eg c #3c3a36",
".Q c #3c3d3a",
"ap c #3c403c",
"bE c #3c413c",
"ev c #3e3c3a",
"bW c #3e423e",
"cw c #403f3a",
"f. c #404040",
".2 c #40423e",
"f# c #414141",
".1 c #424440",
"b3 c #424642",
"eI c #434343",
"bM c #434743",
"#6 c #444844",
"bi c #444944",
"ef c #45443f",
".0 c #454743",
"cq c #454845",
"ca c #454945",
"a1 c #454a45",
"dG c #464239",
"ch c #464440",
"bV c #464a46",
"bD c #464b46",
"dH c #47443b",
"fT c #474747",
".Z c #474945",
".R c #474946",
"cJ c #48443c",
".Y c #484a46",
"cp c #484c48",
"dI c #49463c",
"fM c #494949",
".S c #494b48",
"cr c #4a473f",
"ee c #4a4944",
".X c #4a4c48",
"br c #4a4e4a",
"co c #4a4f4a",
"d8 c #4b4a45",
".W c #4b4d49",
".T c #4b4d4a",
".V c #4b4e4a",
"#L c #4b4e4b",
"#p c #4b4f4b",
"c# c #4b504b",
"do c #4c483e",
"c5 c #4c493f",
"b2 c #4c4a45",
"fS c #4c4c4c",
".U c #4c4e4a",
"bU c #4c504c",
"ao c #4c514c",
"dE c #4d493f",
"d2 c #4d4a43",
"ed c #4d4c48",
"fR c #4d4d4d",
"b. c #4d524d",
"bh c #4d534d",
"c4 c #4e4a40",
"cc c #4e4a42",
"dD c #4e4b41",
"d1 c #4e4b44",
"fx c #4e4e4e",
"cj c #4e524e",
"bC c #4e544e",
"c3 c #4f4c41",
"d0 c #4f4c45",
"#b c #4f534f",
"a0 c #4f544f",
"dC c #504d43",
"cK c #504d44",
"bL c #504e49",
"fN c #505050",
"ck c #505450",
"cn c #505550",
"dn c #514d43",
"bX c #514d45",
"c2 c #514e43",
"dZ c #514e47",
"ec c #514f4c",
"aP c #515551",
"cl c #515651",
"dB c #524f44",
"d9 c #52504c",
"bT c #525652",
"cm c #525752",
"c1 c #535046",
"eb c #53514e",
"c. c #535753",
"cs c #545047",
"bG c #545049",
"dA c #545147",
"dY c #54524a",
"fQ c #545454",
"dl c #555247",
"c0 c #555248",
"dz c #555348",
"bq c #55544f",
"ea c #555451",
"fO c #555555",
"bB c #555b55",
"dF c #56534a",
"bl c #56534c",
"dX c #56544d",
"e. c #565552",
"fP c #565656",
"#x c #565956",
"aH c #565b56",
"dk c #575449",
"cZ c #57544c",
"ac c #575a57",
"#5 c #575c57",
"dy c #58554b",
"e# c #585653",
"ax c #585b58",
"cY c #59554e",
"cd c #59564d",
"dW c #595650",
"a9 c #595852",
"b9 c #595d59",
"an c #595e59",
"aZ c #595f59",
"c6 c #5a564b",
"dj c #5a564c",
"dx c #5a564d",
"a4 c #5a5750",
"#S c #5a5c5a",
"dV c #5b5952",
"fn c #5b5b5b",
"b8 c #5b605b",
"bA c #5b615b",
"cX c #5c5851",
"di c #5c594e",
"c8 c #5c5a55",
"b4 c #5c605c",
"bS c #5c615c",
"bg c #5c625c",
"dw c #5d5950",
"aJ c #5d5a53",
"aO c #5d5c57",
"b7 c #5d625d",
"dm c #5e5a51",
"bY c #5e5a52",
"#o c #5e625e",
"b5 c #5e635e",
"dh c #5f5b51",
"cW c #5f5b53",
"dU c #5f5b55",
"bR c #5f655f",
"dv c #605c53",
"bN c #606460",
"b6 c #606560",
"bQ c #606660",
"dg c #615e54",
"cV c #615e55",
"dT c #615e57",
"cM c #615f5a",
"aw c #61605b",
"aY c #616661",
"bz c #616761",
"dN c #625f57",
"aG c #626762",
"bO c #626862",
"du c #635f55",
"cU c #635f57",
"ar c #635f58",
"bf c #636963",
"bH c #646056",
"dO c #64615a",
"dS c #64625a",
"by c #646a64",
"dt c #656057",
"cT c #656259",
"ab c #65645f",
"#4 c #656a65",
"bP c #656b65",
"df c #666158",
"cS c #66635a",
"#8 c #66635c",
"ds c #676359",
"cP c #67635b",
"cQ c #67645c",
"dR c #67645d",
"cu c #676460",
"be c #676c67",
"dr c #68645a",
"cR c #68645c",
"dP c #68655d",
"bx c #686e68",
"ew c #696461",
"bm c #69655c",
"dQ c #69655e",
"#R c #696763",
"aX c #696e69",
"am c #696f69",
"de c #6a655a",
"#M c #6a6760",
"#w c #6a6a65",
"bw c #6b706b",
"cf c #6c6965",
"#a c #6c6b66",
"#n c #6c706c",
"aF c #6c716c",
"#r c #6d6a64",
"bs c #6d726d",
"bv c #6d736d",
"dd c #6e695e",
"#K c #6e726e",
"aW c #6e746e",
"bu c #6f756f",
"dc c #706c61",
"a5 c #706c62",
"bd c #707570",
"e1 c #717171",
"bt c #717771",
"cO c #736f65",
"b0 c #73716c",
"db c #747064",
"bc c #747974",
"aK c #757168",
".7 c #75726b",
"al c #757a75",
"da c #767166",
"c9 c #767267",
"aE c #767b76",
"aV c #767c76",
"#3 c #777b77",
"d. c #787469",
".P c #787772",
"b# c #787d78",
"d# c #797369",
"bJ c #797773",
"ba c #797e79",
"bb c #797f79",
"fa c #7a7a7a",
"#m c #7b7e7b",
"aU c #7c827c",
"cN c #7d796f",
"as c #7d7970",
"aD c #7e837e",
".J c #7f7c75",
"bo c #7f7e7a",
"#J c #808480",
"#l c #828682",
"aQ c #828782",
"#9 c #837f76",
"#2 c #838783",
".I c #84817a",
"a7 c #84827e",
"fo c #848484",
"aT c #858a85",
"cv c #868279",
"aR c #868b86",
"e8 c #878787",
"aS c #878d87",
"aM c #888783",
"#k c #898d89",
"#N c #8a867d",
".H c #8a8881",
"e2 c #8a8a8a",
"#I c #8a8e8a",
"au c #8b8a86",
"#j c #8c908c",
"#1 c #8e928e",
"cg c #8f8a81",
".G c #8f8c86",
"#i c #8f938f",
"#s c #908c83",
"#h c #919591",
"a# c #92908d",
"e9 c #929292",
"#H c #929592",
".K c #938f87",
"#g c #939793",
"#P c #949390",
"#e c #949794",
"#0 c #949994",
"#f c #959895",
".F c #96938c",
"#G c #969a96",
"aA c #969b96",
".8 c #979289",
"#u c #979593",
"aB c #979c97",
"#d c #989c98",
"b1 c #99958b",
".L c #99958c",
"#. c #999895",
".s c #999896",
".r c #9a968e",
".E c #9a9790",
".N c #9a9996",
"e7 c #9a9a9a",
"#F c #9a9e9a",
"az c #9b9f9b",
"#Z c #9c9f9c",
"#c c #9da09d",
"#E c #9da19d",
".D c #9e9b95",
"e3 c #9e9e9e",
".q c #9f9b94",
"#D c #9fa39f",
".C c #a09d97",
"bK c #a19d93",
"#C c #a1a5a1",
"fp c #a2a2a2",
"#Y c #a2a6a2",
"#T c #a3a7a3",
".B c #a4a19b",
".A c #a5a39d",
".p c #a6a29c",
".z c #a7a59f",
"fw c #a8a8a8",
"aC c #a8aca8",
".v c #a9a6a0",
".y c #a9a6a1",
"ay c #a9ada9",
"bp c #aba79e",
".w c #aba8a2",
".x c #aba9a3",
"#B c #abaeab",
"#X c #abafab",
".o c #aca8a1",
"fv c #acacac",
"ah c #adb1ad",
"e6 c #b0b0b0",
"e4 c #b1b1b1",
"a8 c #b2afa6",
".n c #b3afa8",
".m c #b8b4ae",
"ak c #b8bbb8",
"ag c #b9bcb9",
"aN c #bbb7af",
"ft c #bbbbbb",
".u c #bcbab2",
"aj c #bcbebc",
"fu c #bebebe",
"ai c #bec1be",
".l c #bfbcb5",
"fq c #bfbfbf",
"#U c #bfc0bf",
"#A c #bfc1bf",
"av c #c1beb5",
"fs c #c4c4c4",
".k c #c5c2bb",
"fr c #c6c6c6",
"ad c #c9cbc9",
"aa c #cac6bf",
".j c #cac7c1",
"af c #caccca",
".i c #cdcac4",
"#Q c #cfccc5",
".h c #d1cec7",
".g c #d1d0ca",
".a c #d3d1cb",
".f c #d3d2cc",
"#y c #d3d4d3",
".b c #d4d2cc",
"#v c #d5d1ca",
".c c #d5d4cd",
".d c #d6d4ce",
".e c #d7d5cf",
"e5 c #d8d8d8",
"## c #d9d5cf",
".t c #d9d7cf",
".O c #dad7d0",
"#z c #dddddd",
"ae c #dddedd",
"#V c #e3e4e3",
"#W c #e6e6e6",
"QtQtQtQtQtQtQtQtQtQtQtQtQtQtQtQtQtQtQtQtQtQtQtQtQtQtQtQtQtQtQtQt",
"QtQtQtQtQtQtQtQtQtQtQtQtQtQtQtQtQtQtQtQtQtQtQtQtQtQtQtQtQtQtQtQt",
"QtQtQtQtQtQtQtQtQtQtQtQtQtQtQtQtQtQtQtQtQtQtQtQtQtQtQtQtQtQtQtQt",
"QtQtQtQtQt.#.a.b.c.d.e.e.d.f.g.h.i.j.k.l.m.n.o.p.q.rQtQtQtQtQtQt",
"QtQtQtQt.s.t.u.v.w.x.x.x.y.z.A.B.C.D.E.F.G.H.I.J.K.L.MQtQtQtQtQt",
"QtQtQtQt.N.O.P.Q.R.S.T.U.V.W.X.Y.Z.0.1.2.3.4.5.6.7.8.9QtQtQtQtQt",
"QtQtQtQt#.###a#b#c#d#e#e#f#g#h#i#j#k#l#m#n#o#p#q#r#s#tQtQtQtQtQt",
"QtQtQtQt#u#v#w#x#y#z#A#B#C#D#E#F#G#H#I#J#K#o#L#q#M#N#OQtQtQtQtQt",
"QtQtQtQt#P#Q#R#S#T#U#V#W#X#Y#D#Z#0#1#2#3#4#5#6#7#8#9a.QtQtQtQtQt",
"QtQtQtQta#aaabacadaeafagahaiajak#I#lalamanaoapaqarasatQtQtQtQtQt",
"QtQtQtQtauavawaxayazaAaBaC#V#V#VaDaEaFaGaH#papaIaJaKaLQtQtQtQtQt",
"QtQtQtQtaMaNaOaPaQaRaRaSaTaQaUaVaWaXaYaZa0a1a2a3a4a5a6QtQtQtQtQt",
"QtQtQtQta7a8a9b.alb#babbaVbcbdaFbebfbgaHbhbibjbkblbmbnQtQtQtQtQt",
"QtQtQtQtbobpbqbrbsbdbtbtbubvbwbxbybzbAbBbCbDbEbFbGbHbIQtQtQtQtQt",
"QtQtQtQtbJbKbLbMbNbObybPbybObQbRbSanbBbTbUbVbWaqbXbYbZQtQtQtQtQt",
"QtQtQtQtb0b1b2b3b4b5b6aYaYb6b5b7b8b9aHc.#bc#cacbcccdceQtQtQtQtQt",
"QtQtQtQtcfcgchcicjckclbTcmcmaPcncnbCcjbUcocpcqbkcrcsctQtQtQtQtQt",
"QtQtQtQtcucvcwcbcxcyczczcicza2cAcBcCcDcEcFcGcHcIcJcKcLQtQtQtQtQt",
"QtQtQtQtcMcNcOcPcQcRcScTcUcVcWcXcYcZc0c1c2c3c4c5c6c3c7QtQtQtQtQt",
"QtQtQtQtc8c9c9d.d#d#dadbdcdddedfdgdhdidjdkdldmcVdndoc7QtQtQtQtQt",
"QtQtQtQtdpdqdrdrdrdsdtdudvdwdxdydzdAdBdCdDdEdFdGdHdIdJQtQtQtQtQt",
"QtQtQtQtdKdLdMdNdO#8dPdQdRdSdTdUdVdWdXdYdZd0d1d2d3d4d5QtQtQtQtQt",
"QtQtQtQtQtd6d7cwchd8d9e.e#eaebecedeeefcwegeheieiejekQtQtQtQtQtQt",
"QtQtQtQtQtQtQtQtQtQtQtQtQtelemeneoepeqQtQtQtQtQtQtQtQtQtQtQtQtQt",
"QtQtQtQtQtQtQtQtQtQtQtQtQtQtereseteuQtQtQtQtQtQtQtQtQtQtQtQtQtQt",
"QtQtQtQtQtQtQtQtQtQtQtQtQtQtevewexeyQtQtQtQtQtQtQtQtQtQtQtQtQtQt",
"QtQtQtezezezeAeBeCeDeEeFeGeGeHeIeJeKeGeLeMeEeNeOePeQeReSQtQtQtQt",
"QtQtQteTeUeVeWeXeYeZe0e1e2e3e4e5e6e7e8e9f.f#fafbfcfdfeffQtQtQtQt",
"QtQtQtfgfhfifjfkflfmfnfofpfqfrfsftfufvfwfxeIfyfzfAfBfCfDQtQtQtQt",
"QtQtQtfEfFfGfHfIfJfKfLfMfNfOfPfQfRfSfTfNeLfUfVfWfXfYfZf0QtQtQtQt",
"QtQtQtQtQtQtQtQtQtQtQtf1f2f2f2f2f2f2f2f2f1QtQtQtQtQtQtQtQtQtQtQt",
"QtQtQtQtQtQtQtQtQtQtQtQtQtQtQtQtQtQtQtQtQtQtQtQtQtQtQtQtQtQtQtQt"};
