/* XPM */
static char *sound_16x16[]={
"16 16 2 1",
". c None",
"# c #cfcfcf",
"................",
"..........#.....",
".........##.....",
"........###.....",
".......####.....",
"....#######.....",
"....#######.....",
"....#######.....",
"....#######.....",
"....#######.....",
"....#######.....",
".......####.....",
"........###.....",
".........##.....",
"..........#.....",
"................"};
