/* XPM */
static char *xterm_16x16[]={
"16 16 3 1",
". c None",
"a c #585858",
"# c #cfcfcf",
"................",
".##############.",
".#aaaaaaaaaaaa#.",
".#aaaaaaaaaaaa#.",
".#aaaaaaaaaaaa#.",
".#a#aaaaaaaaaa#.",
".#aa#aaaaaaaaa#.",
".#aaa#aaaaaaaa#.",
".#aa#aaaaaaaaa#.",
".#a#aaaaaaaaaa#.",
".#aaaaaaaaaaaa#.",
".##############.",
"....########....",
"......####......",
".##############.",
"................"};
