/* XPM */
static char *xterm_32x32[]={
"32 32 460 2",
".# c None",
"Qt c None",
".0 c #131413",
".Y c #171917",
".W c #1b1d1b",
"dZ c #1c161c",
"dh c #1d171d",
"cP c #1d191d",
"cf c #1d1a1d",
"dD c #1e171e",
"cB c #1e191e",
"c5 c #1e1a1e",
"bL c #1e1b1e",
"a4 c #1e1d1e",
"#8 c #1e1e1e",
"#q c #1e1f1e",
"ce c #1e201e",
"cg c #1f1f1f",
"di c #1f201f",
"d0 c #1f211f",
"bK c #1f221f",
"a3 c #1f231f",
"cz c #1f241f",
"cd c #1f251f",
"dY c #202520",
"#p c #202620",
"#r c #212321",
"a5 c #222122",
"#9 c #222322",
"bJ c #222622",
".T c #232323",
"bn c #232723",
"dg c #242624",
"a2 c #242724",
"aG c #262726",
".R c #262926",
"am c #272727",
"#7 c #292729",
"cc c #292829",
"dX c #2a262a",
"#o c #2a272a",
".P c #2b2e2b",
"bI c #2d282d",
"dW c #2d2d2d",
"df c #2e2a2e",
"a1 c #2e2b2e",
"cx c #2e2c2e",
"#n c #2e2d2e",
"bH c #2e2e2e",
"aE c #2e2f2e",
"cO c #2e312e",
"ak c #2f302f",
"#6 c #2f312f",
"#m c #2f322f",
".N c #2f332f",
"de c #2f342f",
"cN c #2f352f",
"a0 c #303630",
"#5 c #313631",
"cb c #313731",
"dV c #323532",
"ei c #333333",
"#l c #333633",
".L c #333733",
"eh c #343434",
"dd c #343634",
"bG c #343734",
"eg c #373837",
"aZ c #383738",
"ef c #383a38",
".J c #383b38",
".I c #393b39",
"ee c #393d39",
"dU c #3b363b",
"#4 c #3b373b",
"cM c #3c373c",
"ed c #3c3d3c",
"ej c #3c3f3c",
"#k c #3d373d",
"ca c #3d383d",
"dT c #3d3c3d",
"ec c #3d3e3d",
"eb c #3d403d",
"dS c #3d413d",
"bF c #3e383e",
"aY c #3e393e",
"aB c #3e3a3e",
".F c #3e423e",
"cL c #3f3b3f",
"#K c #3f3c3f",
"#j c #3f3d3f",
"bE c #3f3e3f",
"aX c #3f3f3f",
"cZ c #3f403f",
"cK c #3f423f",
"#3 c #3f433f",
"#i c #3f443f",
"ea c #404240",
"c# c #404440",
"bX c #404540",
"e# c #414141",
"bD c #414541",
"bi c #414641",
"e. c #424442",
"aW c #424642",
"az c #424742",
"d9 c #434543",
"ag c #444744",
"cJ c #464646",
"#2 c #464846",
"d8 c #464a46",
"d7 c #484b48",
"c. c #494749",
"#I c #494849",
"d6 c #494c49",
"dI c #494e49",
"#h c #4a484a",
"bC c #4b494b",
"d5 c #4b4d4b",
"dw c #4c494c",
"aV c #4c4b4c",
"dR c #4c4c4c",
"d. c #4c4f4c",
"dQ c #4c504c",
"dP c #4d544d",
"dc c #4e4b4e",
"cX c #4e4c4e",
"#g c #4e4d4e",
"b9 c #4e4e4e",
"bg c #4e4f4e",
"bs c #4e514e",
".6 c #4e524e",
"cI c #4f4f4f",
"ae c #4f504f",
"#f c #4f514f",
"bB c #4f534f",
"dv c #4f544f",
"#e c #4f554f",
"#1 c #4f564f",
"b8 c #505650",
"d4 c #515351",
"bV c #515751",
"bA c #515851",
"db c #525852",
"be c #535953",
"aU c #545a54",
"dO c #575957",
"ax c #575a57",
"cH c #575b57",
"#0 c #585b58",
"b7 c #595c59",
"#d c #5a5c5a",
"#F c #5a5d5a",
"bz c #5b5c5b",
"dt c #5c5d5c",
"dN c #5c615c",
"#c c #5e5e5d",
"#Z c #5e5e5e",
"b6 c #5e5f5e",
"bT c #5f605e",
"by c #5f615e",
"da c #5f635e",
"av c #5f635f",
"#b c #5f645f",
"#D c #5f655f",
"dr c #5f665f",
"cU c #616661",
"cp c #626662",
"dM c #646364",
"b5 c #646764",
"#a c #656665",
"bx c #676767",
"dL c #686868",
"dJ c #686e68",
"dq c #696769",
"dK c #6a6a6a",
"d# c #6b676b",
"cT c #6b696b",
"cG c #6c696c",
"co c #6c6b6c",
"b4 c #6d6b6d",
"## c #6d6c6d",
"aT c #6d706d",
"at c #6e696e",
"bw c #6e6c6e",
"b# c #6e6d6e",
"#. c #6e6e6e",
"do c #6e736e",
"#B c #6f6c6f",
"b3 c #6f6f6f",
"bv c #6f706f",
"aP c #6f716f",
"cF c #6f726f",
".9 c #6f746f",
"bu c #6f756f",
"aO c #6f766f",
"ab c #706b70",
"cE c #707470",
"cm c #717471",
"b2 c #737473",
"bt c #737573",
".8 c #757675",
"aq c #797679",
"#x c #797779",
"#A c #797877",
".7 c #797879",
"bc c #797c79",
"aN c #7a767a",
"#U c #7a787a",
"ba c #7a797a",
"aQ c #7a7a7a",
"aS c #7a7c7a",
"aR c #7c7e7c",
"#Y c #7e7a7d",
"#V c #878985",
"aa c #8e8d8d",
"fa c #9aabb0",
"eT c #9bacb8",
"#W c #a7a7a3",
"f# c #a7b3b7",
"e4 c #b9a797",
"fi c #bdc2bd",
"ex c #bfc3c1",
"eq c #bfc6bf",
"er c #c1c7c1",
"en c #c3c2be",
"ev c #c3c6c3",
"eB c #c3c7c3",
"#X c #c4c0bc",
"eF c #c4c6c4",
"e5 c #c5c6bc",
"ez c #c5c7c5",
"eE c #c6c7c6",
"e1 c #c6cdc4",
"eL c #c7c0b4",
"fj c #c8ccc8",
"fd c #c8cdc8",
"fh c #c8cec8",
"fe c #c8cfc8",
"et c #c9c8c9",
"e7 c #c9cdc9",
"e6 c #c9cec9",
"f. c #c9cfc9",
"fc c #c9d0c9",
"ff c #cacfca",
"e9 c #cbcfcb",
"e3 c #cbd0cb",
"fb c #cbd1cb",
"fg c #cccfcc",
"e8 c #ccd0cc",
"ek c #ccd3cc",
"d1 c #cdd3cd",
"dF c #ced3ce",
"eH c #ced4ce",
"eZ c #ced5cd",
".r c #cfd3cf",
"d2 c #cfd6cf",
"eN c #cfd7cf",
".s c #d0d3d0",
"eW c #d0d7d0",
"dk c #d1d7d1",
"eJ c #d2cfc8",
".q c #d2d3d2",
"eR c #d2d7d2",
".p c #d3d3d3",
"d3 c #d3d7d3",
".o c #d4d3d4",
"eV c #d4d7d4",
".n c #d5d2d5",
".t c #d5d3d5",
"dj c #d5d5d5",
"dH c #d5d7d5",
".m c #d6d3d6",
".u c #d6d5d6",
".y c #d6d6d6",
".x c #d6d7d6",
".z c #d7d5d7",
".v c #d7d7d7",
".w c #d7d8d7",
"c6 c #d8d5d8",
".l c #d8d7d8",
"dm c #d8dad8",
"cQ c #d9d5d9",
"eP c #d9d7d9",
"c8 c #d9d9d9",
"c9 c #d9dad9",
"ch c #dad9da",
"b1 c #dadada",
"bM c #dbdbdb",
"bp c #dbdcdb",
"ck c #dbdedb",
"a6 c #dbdfdb",
"aJ c #dbe0db",
"#Q c #dbe2db",
"cR c #dcd7dc",
"#s c #dde4dd",
"ci c #dedbde",
"bN c #dedede",
"br c #dee1de",
"cD c #dfdadf",
"a7 c #dfe0df",
"aM c #dfe2df",
"aL c #dfe4df",
"#t c #dfe6df",
"#S c #e3e8e3",
".B c #e3e9e3",
".2 c #e4e6e4",
"#T c #e5e8e5",
".4 c #e5eae5",
"#v c #e6e8e6",
".5 c #e8e9e8",
".D c #e9eae9",
".A c #e9ebe9",
".k c #ecedec",
".j c #ededed",
".e c #eeeeee",
".f c #eeefee",
".h c #eef0ee",
".a c #efefef",
".Z c #131813",
".X c #1a1b1a",
".1 c #1b1f1b",
".V c #1c201c",
"dC c #1f1d1f",
"c4 c #1f1f1f",
"cA c #1f201f",
"bo c #1f221f",
"aH c #1f231f",
"an c #1f251f",
"b0 c #202020",
".U c #202120",
"dE c #202220",
"#O c #212621",
"aI c #222222",
"#P c #222322",
"ao c #232323",
".S c #232623",
"dB c #232723",
"c3 c #252725",
"cy c #282728",
".Q c #292b29",
".O c #2b2f2b",
"bZ c #2c282c",
"bm c #2d292d",
"al c #2f2b2f",
"aF c #2f2c2f",
"#N c #2f2d2f",
"dA c #2f2f2f",
"c2 c #2f302f",
"cw c #2f322f",
"bl c #2f332f",
"dz c #2f342f",
"c1 c #303530",
"cv c #303630",
".M c #313431",
"aD c #313731",
"aj c #323732",
"#M c #333733",
".K c #353835",
"bk c #363736",
"aC c #393739",
".E c #393e39",
"ai c #3b383b",
".H c #3b3e3b",
"#L c #3d383d",
"dy c #3e383e",
"c0 c #3e3a3e",
".G c #3e403e",
"cu c #3f3b3f",
"bY c #3f3d3f",
"bj c #403f40",
"aA c #404140",
"ah c #404240",
"#J c #404340",
"dx c #404640",
"cY c #434643",
"ct c #474747",
"bW c #4a484a",
"bh c #4c4a4c",
"ay c #4c4c4c",
"dn c #4c504c",
"af c #4e4d4e",
"cl c #4e504e",
"bP c #4e514e",
"#w c #4e524e",
"#H c #4f4e4f",
"cW c #4f4f4f",
"cs c #4f504f",
"bf c #505350",
"ad c #505550",
"#G c #505650",
"du c #515751",
"cV c #555955",
"cr c #5a5c5a",
"bU c #5b5d5b",
"aw c #5e5e5e",
"#E c #5f5f5f",
"ds c #5f615f",
"cq c #5f635f",
"bS c #5f655f",
"au c #606760",
"ac c #636763",
"#C c #666766",
"dp c #6f6d6f",
"bR c #6f6f6f",
"bd c #6f706f",
"b. c #6f716f",
"cn c #6f736f",
"bQ c #707570",
"a9 c #707670",
"as c #767875",
"bb c #7b807b",
"ar c #848883",
"eU c #869daa",
"#z c #959692",
"#y c #a09f9c",
"a. c #a1a19e",
"eK c #b1947e",
"e0 c #b6c8ae",
"a# c #b8b7b2",
"ey c #b8bfbd",
"eG c #bfc4be",
"ew c #bfc5bf",
"ep c #c0c7c0",
"eo c #c1c7c1",
"em c #c3b9b4",
"eC c #c3c7c3",
"eD c #c4c7c4",
"eu c #c8c7c8",
"es c #c9c8c9",
"eA c #cac8ca",
"eS c #cfd6cf",
"e2 c #d0d3d0",
"eM c #d0d5d0",
"eI c #d0d6d0",
"dG c #d0d7d0",
"el c #d0d7d1",
"eX c #d1d7d1",
"c7 c #d4d8d4",
"dl c #d5d9d5",
"eY c #d6d8d6",
"eQ c #d8d7d8",
"eO c #d8d8d8",
"cC c #dfd9df",
"cS c #dfdadf",
"cj c #dfdddf",
"bq c #dfdfdf",
"bO c #dfe1df",
"a8 c #dfe3df",
"aK c #e0e3e0",
"ap c #e0e6e0",
"#R c #e0e7e0",
".3 c #e2e8e2",
"#u c #e4e9e4",
".C c #e7ebe7",
".i c #ebedeb",
".c c #eeeeee",
".d c #eeefee",
".g c #efefef",
".b c #eff0ef",
"QtQtQtQtQtQtQtQtQtQtQtQtQtQtQtQtQtQtQtQtQtQtQtQtQtQtQtQtQtQtQtQt",
"QtQtQtQtQtQtQtQtQtQtQtQtQtQtQtQtQtQtQtQtQtQtQtQtQtQtQtQtQtQt.#Qt",
"Qt.#.#.#.#.#.#.#.#.#.#.#.#.#.#.#.#.#.#.#.#.#.#.#.#.#.#.#.#.#.#.#",
"Qt.#.#.#.#.#.#.#.#.#.#.#.#.#.#.#.#.#.#.#.#.#.#.#.#.#.#.#.#.#.#Qt",
"Qt.#.#.a.b.a.c.d.e.f.b.a.b.f.g.a.g.a.b.f.g.g.f.g.h.b.f.i.j.#.#Qt",
"Qt.#.k.f.l.m.n.m.n.o.o.p.q.r.s.t.u.v.w.x.x.x.x.x.v.w.y.z.A.B.#Qt",
"Qt.#.C.D.E.F.G.H.I.J.K.L.M.N.O.P.Q.R.S.T.U.V.W.X.Y.Z.0.1.2.3.#Qt",
"Qt.#.4.5.6.7.8.9#.###a#b#c#d#e#f#g#h#i#j#k#l#m#n#o#p#q#r#s#t.#Qt",
"Qt.##u#v#w#x#y#z#A#B#C#D#E#F#G#f#H#I#J#K#L#M#m#N#o#O#q#P#Q#R.#Qt",
"Qt.##S#T.6#U#V#W#X#Y#a#b#Z#0#1#f#g#2#3#K#4#5#6#n#7#p#8#9#Q#t.#Qt",
"Qt.#.3#T#w#xa.a#aaabac#b#E#0adaeafagah#Kaiajakalaman#qao#Qap.#Qt",
"Qt.##R#T#waqaras#.atauavawaxadaeayazaAaBaCaDaEaFaGaH#8aIaJaK.#Qt",
"Qt.#aLaM.6aNaOaP#.aQaRaSaTaU#eaeaVaWaXaYaZa0aEa1a2a3a4a5a6a7.#Qt",
"Qt.#a8aM#w.8a9b.b#babbbcbdbebfbgbhbibjaYbkblaEbmbnboa4aIbpbq.#Qt",
"Qt.#aMbrbsbtbubvbwbx#DbybzbAbBbgbCbDbEbFbG.NbHbIbJbKbLa5bMbN.#Qt",
"Qt.#bOaJbPbtbQbRbwbxbSbTbUbVbfbgbWbXbYbF#MblbHbZ#pbobLb0b1bq.#Qt",
"Qt.#a7aJbgb2.9b3b4b5#bb6b7b8#fb9c.c##Kcacb#m#ncccdcecfcgchci.#Qt",
"Qt.#cjckclcmcnbRcocpcq#Zcrb8csb9ct#3cu#kcvcwcxcyczcAcBb0chcC.#Qt",
"Qt.#cDbpbgcEcF#.cGcpav#ZcHb8cI#gcJcKcLcMcNcOcxamczcecPcgcQcR.#Qt",
"Qt.#cSbMclcEb.bRcTcUcq#ZcV#1cWcXcYcZc0aZc1c2a1c3a3c4c5b0c6c7.#Qt",
"Qt.#c8c9d..9aPb#d#cUda#Zdb#ecIdcaWcZaYdddeaEdfdga3#qdhdidjdk.#Qt",
"Qt.#dldmdndobRdpdqdrdsdtdudvcWdwdxcZdydddzdAbIdBbKdCdDdEdFdG.#Qt",
"Qt.#dH.wdIdJdKdLdMdN#ddOdPdQdRc.dSdTdUdVcOdWdXdY#qbLdZd0d1d2.#Qt",
"Qt.#d3.yd4d5d5d6d7d8#2agd9e.e#eaebecedee.JefegbGddeheiejekd2.#Qt",
"Qt.#el.xemeneoepeqereseteuevewexeyezeAeBeCepeqeDeEeseFeGeHeI.#Qt",
"Qt.#dGeJeKeLeMeId2eNeOePeQeReSeTeUeVeOeWeXdGd2dGeReYeZe0e1e2.#Qt",
"Qt.#.#e3e4e5e6e7e7e6e3e8e9f.e6f#fae8fbfcf.e6fdfefffgfhfifj.#.#Qt",
"Qt.#.#.#.#.#.#.#.#.#.#.#.#.#.#.#.#.#.#.#.#.#.#.#.#.#.#.#.#.#.#Qt",
".#.#.#.#.#.#.#.#.#.#.#.#.#.#.#.#.#.#.#.#.#.#.#.#.#.#.#.#.#.#.#.#",
".#.#.#.#.#.#.#.#.#.#.#.#.#.#.#.#.#.#.#.#.#.#.#.#.#.#.#.#.#.#.#.#",
"Qt.#QtQtQtQtQtQtQtQtQtQtQtQtQtQtQtQtQtQtQtQtQtQtQtQtQtQtQtQt.#Qt",
"Qt.#QtQtQtQtQtQtQtQtQtQtQtQtQtQtQtQtQtQtQtQtQtQtQtQtQtQtQtQt.#Qt"};
