/* XPM */
static char *gedit_16x16[] = {
/* columns rows colors chars-per-pixel */
"16 16 128 2 ",
"   c black",
".  c #000700070007",
"X  c #000A000A000A",
"o  c #007700770077",
"O  c #009300930093",
"+  c #00E600E600E6",
"@  c #010801080108",
"#  c #01BE01BE01BE",
"$  c #01D001D001D0",
"%  c #021402140214",
"&  c #023A023A023A",
"*  c #024A024A024A",
"=  c #028902890289",
"-  c #028A028A028A",
";  c #029302930293",
":  c #029502950295",
">  c #02D502D502D5",
",  c #031E031E031E",
"<  c #033703370337",
"1  c #033D033D033D",
"2  c #034403440344",
"3  c #03A203A203A2",
"4  c #03A503A503A5",
"5  c #043004300430",
"6  c #04BE04BE04BE",
"7  c #075507550755",
"8  c #076007600760",
"9  c #079F079F079F",
"0  c #084C084C084C",
"q  c #08DB08DB08DB",
"w  c #092C092C092C",
"e  c #093809380938",
"r  c #0BE50BE50BE5",
"t  c #0CDF0CDF0CDF",
"y  c #117B117B117B",
"u  c #12C512C512C5",
"i  c #131E131E131E",
"p  c #134413441344",
"a  c #13F413F413F4",
"s  c #14CB14CB14CB",
"d  c #156715671567",
"f  c #1BA51BA51BA5",
"g  c #1F3A1F3A1F3A",
"h  c #1FE31FE31FE3",
"j  c #201C201C201C",
"k  c #2C7D2C7D2C7D",
"l  c #347134713471",
"z  c #37E237E237E2",
"x  c #3A7A3A7A3A7A",
"c  c #3A7D3A7D3A7D",
"v  c #431F431F431F",
"b  c #5B445B445B44",
"n  c #5B8D5B8D5B8D",
"m  c #5C835C835C83",
"M  c #5C9A5C9A5C9A",
"N  c #5CA15CA15CA1",
"B  c #5DB05DB05DB0",
"V  c #5DCA5DCA5DCA",
"C  c #5DCF5DCF5DCF",
"Z  c #5DFE5DFE5DFE",
"A  c #5E2B5E2B5E2B",
"S  c #5E315E315E31",
"D  c #5E985E985E98",
"F  c #5E9E5E9E5E9E",
"G  c #5F225F225F22",
"H  c #5F325F325F32",
"J  c #5F355F355F35",
"K  c #5F3B5F3B5F3B",
"L  c #5F3C5F3C5F3C",
"P  c #5F735F735F73",
"I  c #5FE55FE55FE5",
"U  c #60DE60DE60DE",
"Y  c #63DD63DD63DD",
"T  c #640064006400",
"R  c #661666166616",
"E  c #6C266C266C26",
"W  c #6FB36FB36FB3",
"Q  c #72D572D572D5",
"!  c #747574757475",
"~  c #77F077F077F0",
"^  c #7EE17EE17EE1",
"/  c #7F607F607F60",
"(  c #81D081D081D0",
")  c #81DA81DA81DA",
"_  c #833E833E833E",
"`  c #83F283F283F2",
"'  c #85FB85FB85FB",
"]  c #8EEE8EEE8EEE",
"[  c #8F838F838F83",
"{  c #91F191F191F1",
"}  c #95CD95CD95CD",
"|  c #9B039B039B03",
" . c #9B2A9B2A9B2A",
".. c #9C9A9C9A9C9A",
"X. c #9C9E9C9E9C9E",
"o. c #9CE79CE79CE7",
"O. c #9DDA9DDA9DDA",
"+. c #A0ACA0ACA0AC",
"@. c #A15CA15CA15C",
"#. c #A169A169A169",
"$. c #A1CEA1CEA1CE",
"%. c #A29AA29AA29A",
"&. c #A2E4A2E4A2E4",
"*. c #A4D6A4D6A4D6",
"=. c #A500A500A500",
"-. c #A51FA51FA51F",
";. c #A580A580A580",
":. c #AA9DAA9DAA9D",
">. c #B4DAB4DAB4DA",
",. c #B8A1B8A1B8A1",
"<. c #BD26BD26BD26",
"1. c #BD63BD63BD63",
"2. c #C2E7C2E7C2E7",
"3. c #C3B8C3B8C3B8",
"4. c #C583C583C583",
"5. c #C859C859C859",
"6. c #ECC5ECC5ECC5",
"7. c #EE58EE58EE58",
"8. c #EE8CEE8CEE8C",
"9. c #F127F127F127",
"0. c #F7B5F7B5F7B5",
"q. c #F7E7F7E7F7E7",
"w. c #F871F871F871",
"e. c #F8CCF8CCF8CC",
"r. c #FA16FA16FA16",
"t. c #FDF3FDF3FDF3",
"y. c #FFB4FFB4FFB4",
"u. c gray100",
/* pixels */
"    . % 2 < < < < < 1 > o       ",
"    x o.;.=.=.=.=.=.-.*.T 5     ",
"  @  .X.M V A H L K Z ! 5.f     ",
"  * &.D   u t         j 3.j     ",
"  & %.C y <.4.~ k $   j 3.j     ",
"  & %.S r 2.] Q 1.n   h 3.j     ",
"  & %.G   ( m q >.8.B p } g     ",
"  & %.J   v ,.:.w.u.6.U s 9     ",
"  & %.J   7 ' r.u.u.u.7.R ,     ",
"  & %.J     e ` e.u.u.u.9.I     ",
"  & %.J       w ) q.u.u.y._     ",
"  & %.J         0 / 0.t.O.i     ",
"  * &.F           8 E ^ a +     ",
"  @  ...N J J J P b z l W d     ",
"    c | $.@.@.@.#.+.{ [ Y 6     ",
"    X # : - - - = ; 3 4 O       "
};
