/* XPM */
static char *web_24x24[] = {
/* columns rows colors chars-per-pixel */
"24 24 121 2 ",
"   c #000100010001",
".  c #02F902F902F9",
"X  c #052405240524",
"o  c #077007700770",
"O  c #07DF07DF07DF",
"+  c #091609160916",
"@  c #09A209A209A2",
"#  c #0EBA0EBA0EBA",
"$  c #0FE60FE60FE6",
"%  c #113A113A113A",
"&  c #121C121C121C",
"*  c #12AF12AF12AF",
"=  c #18D618D618D6",
"-  c #1A7D1A7D1A7D",
";  c #1AFF1AFF1AFF",
":  c #1C371C371C37",
">  c #1CDF1CDF1CDF",
",  c #1E251E251E25",
"<  c #1F931F931F93",
"1  c #1FB91FB91FB9",
"2  c #214521452145",
"3  c #21FA21FA21FA",
"4  c #22C322C322C3",
"5  c #26F426F426F4",
"6  c #2B452B452B45",
"7  c #2BEA2BEA2BEA",
"8  c #2D6B2D6B2D6B",
"9  c #3A633A633A63",
"0  c #3B063B063B06",
"q  c #3DAF3DAF3DAF",
"w  c #3EB93EB93EB9",
"e  c #47AB47AB47AB",
"r  c #481548154815",
"t  c #4A834A834A83",
"y  c #544554455445",
"u  c #55C355C355C3",
"i  c #56B256B256B2",
"p  c #577A577A577A",
"a  c #5A545A545A54",
"s  c #5B3A5B3A5B3A",
"d  c #5C9E5C9E5C9E",
"f  c #5D555D555D55",
"g  c #5E5B5E5B5E5B",
"h  c #5F575F575F57",
"j  c #604460446044",
"k  c #615961596159",
"l  c #625862586258",
"z  c #633B633B633B",
"x  c #646264626462",
"c  c #6BB26BB26BB2",
"v  c #6CA06CA06CA0",
"b  c #6E216E216E21",
"n  c #753C753C753C",
"m  c #80C980C980C9",
"M  c #89DD89DD89DD",
"N  c #8B458B458B45",
"B  c #8C338C338C33",
"V  c #8DA98DA98DA9",
"C  c #8E7D8E7D8E7D",
"Z  c #8F948F948F94",
"A  c #98BC98BC98BC",
"S  c #A2B7A2B7A2B7",
"D  c #A3FDA3FDA3FD",
"F  c #A49CA49CA49C",
"G  c #A56BA56BA56B",
"H  c #A7B8A7B8A7B8",
"J  c #A90FA90FA90F",
"K  c #B271B271B271",
"L  c #B343B343B343",
"P  c #BA8FBA8FBA8F",
"I  c #BB85BB85BB85",
"U  c #C008C008C008",
"Y  c #C0B8C0B8C0B8",
"T  c #C147C147C147",
"R  c #C255C255C255",
"E  c #C606C606C606",
"W  c #C72DC72DC72D",
"Q  c #C8BBC8BBC8BB",
"!  c #C9E2C9E2C9E2",
"~  c #CAB9CAB9CAB9",
"^  c #CBC5CBC5CBC5",
"/  c #CD29CD29CD29",
"(  c #CDC6CDC6CDC6",
")  c #CEA8CEA8CEA8",
"_  c #CF67CF67CF67",
"`  c #D06AD06AD06A",
"'  c #D5C2D5C2D5C2",
"]  c #D699D699D699",
"[  c #D8B4D8B4D8B4",
"{  c #D965D965D965",
"}  c #DABEDABEDABE",
"|  c #DBD2DBD2DBD2",
" . c #DD07DD07DD07",
".. c #DDD1DDD1DDD1",
"X. c #DEA8DEA8DEA8",
"o. c #DFDEDFDEDFDE",
"O. c #E1CFE1CFE1CF",
"+. c #E2A0E2A0E2A0",
"@. c #E419E419E419",
"#. c #E51DE51DE51D",
"$. c #E58DE58DE58D",
"%. c #E70DE70DE70D",
"&. c #E795E795E795",
"*. c #E883E883E883",
"=. c #E9FBE9FBE9FB",
"-. c #EAE3EAE3EAE3",
";. c #ED17ED17ED17",
":. c #EDA0EDA0EDA0",
">. c #F1FAF1FAF1FA",
",. c #F548F548F548",
"<. c #F60CF60CF60C",
"1. c #F6ECF6ECF6EC",
"2. c #F79CF79CF79C",
"3. c #F951F951F951",
"4. c #F9EEF9EEF9EE",
"5. c #FAA3FAA3FAA3",
"6. c #FBFBFBFBFBFB",
"7. c #FCC6FCC6FCC6",
"8. c #FDDBFDDBFDDB",
"9. c #FEC7FEC7FEC7",
"0. c gray100",
/* pixels */
"                                                ",
"                    $ 1 1 * X                   ",
"              ; k H _ ...._ H k ;               ",
"          + h _ 7.7.5.&.&.7.7.5._ h +           ",
"        $ C 1.5.>.7.P 6 6 P 7.>.5.1.C $         ",
"      + C 7.&.n Q 7.h     k 7.W n &.7.C +       ",
"      k 1.7.] Z :.-.t 1 1 t -.:.Z ] 7.1.h       ",
"    : _ 7.:.7.7.7.5.-.+.+.-.7.7.7.7.:.7._ ;     ",
"    x 7.T 0 k Q 7.&.} +...} +.7.Q k 0 T 7.k     ",
"  X H 7.c   X J 7.k $ ; ; $ x 7.H X   v 7.H X   ",
"  $ Q 5.p 1 7 Q 5.k : 1 4 1 k 5.W 7 1 p 1.Q *   ",
"  1 } 1.+.+.+.5.7.:.&.+.&.+.:.7.5.+.&.+.1.} 1   ",
"  1 } 1.....+.5.7.&...+.....-.7.5.+.....5...:   ",
"  $ Q 5.p : 7 _ 1.p : 1 1 : p 1._ 7 : p 1.Q *   ",
"    H 7.v   + L 7.s $ ; ; $ s 7.K X   v 7.H     ",
"    k 7.T q k ` 7...] +...} +.7._ k 0 T 7.h     ",
"    : _ 7.:.7.7.7.5.&.+.+.-.5.7.7.7.:.7._ ;     ",
"      k 1.7.} A 1.} q 1 1 q ..1.A } 7.1.h       ",
"      + C 5.&.n } 1.t     e 1.] m &.5.M +       ",
"        # C 5.7.5.7.H 4 6 D 7.5.5.1.M #         ",
"          + h _ 5.7.7.&.&.5.7.5._ h +           ",
"              ; k D Q ..} Q H k ;               ",
"                  X $ 1 : $                     ",
"                                                "
};
