/* XPM */
static char *cd_ej_16x16[]={
"16 16 3 1",
". c None",
"a c None",
"# c #cfcfcf",
"................",
"................",
"................",
".......##.......",
"......#..#......",
".....#....#.....",
"....#......#....",
"...#........#...",
"....########....",
".aaaaaaaaaaaaaa.",
".aa..........aa.",
"....########....",
"aaa##########aaa",
"aa.............a",
"a..............a",
"aaaaaaaaaaaaaaaa"};
