/* XPM */
static char *console_16x16[]={
"16 16 3 1",
". c None",
"a c #585858",
"# c #cfcfcf",
"................",
".##############.",
".#aaaaaaaaaaaa#.",
".#aa########aa#.",
".#aaaaaaaaaaaa#.",
".#aa########aa#.",
".#aaaaaaaaaaaa#.",
".#aa########aa#.",
".#aaaaaaaaaaaa#.",
".#aa########aa#.",
".#aaaaaaaaaaaa#.",
".##############.",
"....########....",
"......####......",
".##############.",
"................"};
