/* XPM */
static char *film[]={
"16 16 2 1",
". c None",
"# c #cfcfcf",
"................",
".###############",
"..#..#..#..#..#.",
".###############",
"..#.....#.....#.",
"..#.....#.....#.",
"..#.....#.....#.",
"..#.....#.....#.",
"..#.....#.....#.",
"..#.....#.....#.",
"..#.....#.....#.",
"..#.....#.....#.",
".###############",
"..#..#..#..#..#.",
".###############",
"................"};
