/* XPM */
static char *kde_16x16[]={
"16 16 3 1",
". c None",
"# c #585858",
"a c #cfcfcf",
"......####......",
"...#..#aa#..#...",
"..#a#.#aa#.#a#..",
".#aaa#aaaa#aaa#.",
"..#aaaaaaaaaa#..",
"...#aa#aa#aa#...",
"###aaa#a#aaaa###",
"#aaaaa##aaaaaaa#",
"#aaaaa#a#aaaaaa#",
"###aaa#aa#aaa###",
"...#aaaaaaaa#...",
"..#aaaaaaaaaa#..",
".#aaa#aaaa#aaa#.",
"..#a#.#aa#.#a#..",
"...#..#aa#..#...",
"......####......"};
