/* XPM */
static char *mouse_16x16[]={
"16 16 3 1",
"a c None",
". c None",
"# c #c6c6c6",
"................",
"....##aaaaaaaa..",
"....###aaaaaaa..",
"....####aaaaaa..",
"....#####aaaaa..",
"....######aaaa..",
"....#######aaa..",
"....########aa..",
"....#########a..",
"....##########..",
"....##########..",
"....####aaaaaa..",
"....###aaaaaaa..",
"....##aaaaaaaa..",
"................",
"................"};
