/* XPM */
static char *ooffice_16x16[]={
"16 16 54 1",
"h c #000000",
"g c #808080",
"b c #979797",
"a c #989898",
". c #999999",
"# c #9a9a9a",
"f c #9e9e9e",
"c c #9f9f9f",
"e c #a0a0a0",
"d c #a1a1a1",
"k c #a5a5a5",
"j c #a6a6a6",
"i c #a7a7a7",
"l c #a8a8a8",
"o c #acacac",
"m c #adadad",
"n c #aeaeae",
"p c #b3b3b3",
"q c #b4b4b4",
"r c #b5b5b5",
"u c #bababa",
"t c #bbbbbb",
"s c #bcbcbc",
"x c #c0c0c0",
"w c #c1c1c1",
"v c #c2c2c2",
"A c #c7c7c7",
"y c #c8c8c8",
"z c #c9c9c9",
"C c #cecece",
"B c #cfcfcf",
"D c #d0d0d0",
"G c #d4d4d4",
"E c #d5d5d5",
"F c #d6d6d6",
"J c #dbdbdb",
"H c #dcdcdc",
"I c #dddddd",
"K c #dedede",
"O c #e1e1e1",
"M c #e2e2e2",
"N c #e3e3e3",
"L c #e4e4e4",
"Q c #e9e9e9",
"P c #eaeaea",
"R c #ebebeb",
"U c #f0f0f0",
"S c #f1f1f1",
"T c #f2f2f2",
"W c #f6f6f6",
"X c #f7f7f7",
"V c #f8f8f8",
"Y c #fefefe",
"Z c #ffffff",
".#a.aaa..aa.ab..",
"cdefeeceeeceghhg",
"ijjijjkijijghgkl",
"mmnmmmmmghhhgmon",
"pqprrprhhgggrqrr",
"stssusggsuuttstt",
"vwwwwxgxxggggwww",
"yzyyAyzAghhgAzyz",
"BCBCBCDghgBCCCBC",
"EEFFFEghhFFEEGFE",
"HIHgghhhHJIIKHHH",
"LLghhgggMNNLNNNO",
"PhhgQPRPPPPQQQPP",
"ghgSSTUUSSSUSSST",
"gVWWWVXXWWXXVXVX",
"YZYYZZZYYZZYZYZY"};
