/* XPM */
static char *Thunar_24x24_xpm[] = {
"24 24 145 2",
"  	c None",
"BA	c #A9A9A9",
"CA	c #AAAAAA",
"DA	c #A8A8A8",
"EA	c #A7A7A7",
"FA	c #A5A5A5",
"GA	c #A4A4A4",
"HA	c #D9D9D9",
"IA	c #FFFFFF",
"JA	c #F6F6F6",
"KA	c #E9E9E9",
"LA	c #DBDBDB",
"MA	c #B0B0B0",
"NA	c #FDFDFD",
"OA	c #FBFBFB",
"PA	c #FEFEFE",
"QA	c #F3F3F3",
"RA	c #ECECEC",
"SA	c #EDEDED",
"TA	c #F2F2F2",
"UA	c #F4F4F4",
"VA	c #F9F9F9",
"WA	c #FAFAFA",
"XA	c #939393",
"YA	c #BCBCBC",
"ZA	c #EAEAEA",
"aA	c #EEEEEE",
"bA	c #EFEFEF",
"cA	c #E1E1E1",
"dA	c #F0F0F0",
"eA	c #F8F8F8",
"fA	c #D5D5D5",
"gA	c #9E9E9E",
"hA	c #878787",
"iA	c #AEAEAE",
"jA	c #949494",
"kA	c #C8C8C8",
"lA	c #E6E6E6",
"mA	c #D2D2D2",
"nA	c #7A7A7A",
"oA	c #8E8E8E",
"pA	c #777777",
"qA	c #919191",
"rA	c #797979",
"sA	c #B2B2B2",
"tA	c #868686",
"uA	c #BFBFBF",
"vA	c #929292",
"wA	c #9F9F9F",
"xA	c #E2E2E2",
"yA	c #CACACA",
"zA	c #C6C6C6",
"0A	c #C2C2C2",
"1A	c #BBBBBB",
"2A	c #B9B9B9",
"3A	c #B5B5B5",
"4A	c #AFAFAF",
"5A	c #A2A2A2",
"6A	c #9D9D9D",
"7A	c #9B9B9B",
"8A	c #999999",
"9A	c #979797",
"+A	c #989898",
"/A	c #A1A1A1",
"AB	c #A3A3A3",
"BB	c #ABABAB",
"CB	c #D8D8D8",
"DB	c #C0C0C0",
"EB	c #C4C4C4",
"FB	c #CCCCCC",
"GB	c #D1D1D1",
"HB	c #D6D6D6",
"IB	c #D7D7D7",
"JB	c #818181",
"KB	c #DEDEDE",
"LB	c #D0D0D0",
"MB	c #C5C5C5",
"NB	c #B6B6B6",
"OB	c #B3B3B3",
"PB	c #ADADAD",
"QB	c #B4B4B4",
"RB	c #DCDCDC",
"SB	c #C1C1C1",
"TB	c #CBCBCB",
"UB	c #CFCFCF",
"VB	c #686868",
"WB	c #BEBEBE",
"XB	c #B8B8B8",
"YB	c #BABABA",
"ZB	c #C7C7C7",
"aB	c #DDDDDD",
"bB	c #9C9C9C",
"cB	c #7D7D7D",
"dB	c #D3D3D3",
"eB	c #CDCDCD",
"fB	c #E3E3E3",
"gB	c #909090",
"hB	c #666666",
"iB	c #6E6E6E",
"jB	c #DFDFDF",
"kB	c #E4E4E4",
"lB	c #E7E7E7",
"mB	c #5A5A5A",
"nB	c #E8E8E8",
"oB	c #696969",
"pB	c #7F7F7F",
"qB	c #8D8D8D",
"rB	c #5C5C5C",
"sB	c #747474",
"tB	c #6B6B6B",
"uB	c #6A6A6A",
"vB	c #717171",
"wB	c #888888",
"xB	c #858585",
"yB	c #565656",
"zB	c #575757",
"0B	c #595959",
"1B	c #8A8A8A",
"2B	c #535353",
"3B	c #525252",
"4B	c #545454",
"5B	c #515151",
"6B	c #505050",
"7B	c #3B3B3B",
"8B	c #969696",
"9B	c #8B8B8B",
"+B	c #464646",
"/B	c #606060",
"AC	c #4D4D4D",
"BC	c #7B7B7B",
"CC	c #6F6F6F",
"DC	c #5D5D5D",
"EC	c #767676",
"FC	c #5E5E5E",
"GC	c #646464",
"HC	c #707070",
"IC	c #636363",
"JC	c #626262",
"KC	c #6D6D6D",
"LC	c #8C8C8C",
"MC	c #F5F5F5",
"NC	c #7C7C7C",
"OC	c #848484",
"PC	c #828282",
"QC	c #656565",
"      IAIAIAIAIAIAIAIAIAIAIAIAIAIAJAKALAMA      ",
"    CAIAIAPARAIAIAIAJATAUAIAIAIAVAOANAPAIA      ",
"    cAbAdATAQAUAIAeAIAIAIAPAIAIAIAIAIAIAIA      ",
"    IAJAOAIAIAIAIAIAIAIAIAIAIAIAIAIAIAIAIAhA    ",
"    IAIAIAIAIAIAIAIAIAIAIAIAIAIAIAIAIAIAIAMA    ",
"  XAIAIAIAIAIAIAIAIAIAIAIAIAIAIAIAIAIAIAIAKA    ",
"  qAIAIAIAIAIAIAIAIAIAIAIAIAIAIAIAIAIAIAIAdA    ",
"  mAIAIAIAIAIAIAIAIAIAIAIAIAIAIAIAIAIAIAIAIA    ",
"  JBLBkA0A1ANBMABBEAABgAABFACAMAYAYAYAYAIBFB    ",
"    LBHBeByAZB0AuANBaAJAIBgBDBMBCBYAYAKBlAhB    ",
"    nAlBYAYAYAYAYAjAjBTBXB1AIBYAYAkBRATANB      ",
"      qBYAYAYAYAYAwAjBTBXBQBFA5A5A7AXAhAoB      ",
"                7B4AKACBtA4A+B7B                ",
"                  1AkBxAGBgByB                  ",
"                  eBAB+AMA0AFC                  ",
"                  BAxALAzAqAiB                  ",
"                  aAfBcBDAqAoB                  ",
"                  fBSBLAXBABJC                  ",
"                xBOBQAJAXBABsB    6A            ",
"                LCIAIAIAMBABNC                  ",
"                pAIACB+A+AgAtA                  ",
"                  1AbB+AqA1BJB                  ",
"                  kBNBBB/A9AJC                  ",
"                    tBhApA                      "
};
