/* XPM */
static char * Thunar_48x48_xpm[] = {
"48 48 145 2",
"  	c None",
". 	c #A9A9A9",
"+ 	c #AAAAAA",
"@ 	c #A8A8A8",
"# 	c #A7A7A7",
"$ 	c #A5A5A5",
"% 	c #A4A4A4",
"& 	c #D9D9D9",
"* 	c #FFFFFF",
"= 	c #F6F6F6",
"- 	c #E9E9E9",
"; 	c #DBDBDB",
"> 	c #B0B0B0",
", 	c #FDFDFD",
"' 	c #FBFBFB",
") 	c #FEFEFE",
"! 	c #F3F3F3",
"~ 	c #ECECEC",
"{ 	c #EDEDED",
"] 	c #F2F2F2",
"^ 	c #F4F4F4",
"/ 	c #F9F9F9",
"( 	c #FAFAFA",
"_ 	c #939393",
": 	c #BCBCBC",
"< 	c #EAEAEA",
"[ 	c #EEEEEE",
"} 	c #EFEFEF",
"| 	c #E1E1E1",
"1 	c #F0F0F0",
"2 	c #F8F8F8",
"3 	c #D5D5D5",
"4 	c #9E9E9E",
"5 	c #878787",
"6 	c #AEAEAE",
"7 	c #949494",
"8 	c #C8C8C8",
"9 	c #E6E6E6",
"0 	c #D2D2D2",
"a 	c #7A7A7A",
"b 	c #8E8E8E",
"c 	c #777777",
"d 	c #919191",
"e 	c #797979",
"f 	c #B2B2B2",
"g 	c #868686",
"h 	c #BFBFBF",
"i 	c #929292",
"j 	c #9F9F9F",
"k 	c #E2E2E2",
"l 	c #CACACA",
"m 	c #C6C6C6",
"n 	c #C2C2C2",
"o 	c #BBBBBB",
"p 	c #B9B9B9",
"q 	c #B5B5B5",
"r 	c #AFAFAF",
"s 	c #A2A2A2",
"t 	c #9D9D9D",
"u 	c #9B9B9B",
"v 	c #999999",
"w 	c #979797",
"x 	c #989898",
"y 	c #A1A1A1",
"z 	c #A3A3A3",
"A 	c #ABABAB",
"B 	c #D8D8D8",
"C 	c #C0C0C0",
"D 	c #C4C4C4",
"E 	c #CCCCCC",
"F 	c #D1D1D1",
"G 	c #D6D6D6",
"H 	c #D7D7D7",
"I 	c #818181",
"J 	c #DEDEDE",
"K 	c #D0D0D0",
"L 	c #C5C5C5",
"M 	c #B6B6B6",
"N 	c #B3B3B3",
"O 	c #ADADAD",
"P 	c #B4B4B4",
"Q 	c #DCDCDC",
"R 	c #C1C1C1",
"S 	c #CBCBCB",
"T 	c #CFCFCF",
"U 	c #686868",
"V 	c #BEBEBE",
"W 	c #B8B8B8",
"X 	c #BABABA",
"Y 	c #C7C7C7",
"Z 	c #DDDDDD",
"` 	c #9C9C9C",
" .	c #7D7D7D",
"..	c #D3D3D3",
"+.	c #CDCDCD",
"@.	c #E3E3E3",
"#.	c #909090",
"$.	c #666666",
"%.	c #6E6E6E",
"&.	c #DFDFDF",
"*.	c #E4E4E4",
"=.	c #E7E7E7",
"-.	c #5A5A5A",
";.	c #E8E8E8",
">.	c #696969",
",.	c #7F7F7F",
"'.	c #8D8D8D",
").	c #5C5C5C",
"!.	c #747474",
"~.	c #6B6B6B",
"{.	c #6A6A6A",
"].	c #717171",
"^.	c #888888",
"/.	c #858585",
"(.	c #565656",
"_.	c #575757",
":.	c #595959",
"<.	c #8A8A8A",
"[.	c #535353",
"}.	c #525252",
"|.	c #545454",
"1.	c #515151",
"2.	c #505050",
"3.	c #3B3B3B",
"4.	c #969696",
"5.	c #8B8B8B",
"6.	c #464646",
"7.	c #606060",
"8.	c #4D4D4D",
"9.	c #7B7B7B",
"0.	c #6F6F6F",
"a.	c #5D5D5D",
"b.	c #767676",
"c.	c #5E5E5E",
"d.	c #646464",
"e.	c #707070",
"f.	c #636363",
"g.	c #626262",
"h.	c #6D6D6D",
"i.	c #8C8C8C",
"j.	c #F5F5F5",
"k.	c #7C7C7C",
"l.	c #848484",
"m.	c #828282",
"n.	c #656565",
"                                      . + + . @ @ @ # $ $ %                                     ",
"            & * * * * * * * * * * * * * * * * * * * * * * * * * * * * = = - - ; ; >             ",
"            * * * * * * * * * * * * * * * * * * * , ' * * , ) * * * * * * * * * * =             ",
"          + * * * * * ) ! ~ { * * * * * * = ] ] ! ^ ) * * * * * * / ( ' ' , ) ) * * _           ",
"          : * < ~ ~ { [ [ } } * * * * * * * * * * * * * * * * * , ) * * * * * * * * .           ",
"          | * } } 1 1 ] ] ! ^ ^ * * = 2 2 * * * * * , ) ) * * * * * * * * * * * * * 3           ",
"          * ) ^ * * * * * / 2 / * * * ' , * * * * * * * * * * * * * * * * * * * * * *           ",
"        4 * = = 2 ' * * * * * * * * * * * * * * * * * * * * * * * * * * * * * * * * * 5         ",
"        6 * ( * * * * * * * * * * * * * * * * * * * * * * * * * * * * * * * * * * * * 7         ",
"        8 * * * * * * * * * * * * * * * * * * * * * * * * * * * * * * * * * * * * * * >         ",
"        9 * * * * * * * * * * * * * * * * * * * * * * * * * * * * * * * * * * * * * * 0         ",
"      _ ( * * * * * * * * * * * * * * * * * * * * * * * * * * * * * * * * * * * * * * - a       ",
"      b * * * * * * * * * * * * * * * * * * * * * * * * * * * * * * * * * * * * * * * ] c       ",
"      d * * * * * * * * * * * * * * * * * * * * * * * * * * * * * * * * * * * * * * * 1 e       ",
"      f * * * * * * * * * * * * * * * * * * * * * * * * * * * * * * ^ * * * * * * * * ! g       ",
"      0 * * * * * * * * * * * * * * * * * * * * * * * * * * * * , h = * * * * * * * * * i       ",
"      j k l m n h o p q f r + @ % s j t u v v w x v u u 4 y z @ A 6 * * B C D 8 E F G H 5       ",
"      I J K E 8 L n h o p M N > O A . # % z s 4 4 z % $ @ + 6 > P { * Q R m S T 0 H ; E U       ",
"        > ; F K E 8 D D R V o p M P f f O x t > A w v 6 N P W X : * Q Y l T 0 G & Z & `         ",
"         .K B G ..+.P l 8 Y L n C h V M _ [ ) @.G H o #.p C n L Y B +.K ..H ; J k 9 R $.        ",
"        %.r & J Q 3 % M ..K T +.S l 8 v * = 3 S R W V M u S +.K 0 ..H ; Z &.*.=.< Q t -.        ",
"          a L =.9 k ` i C ; B H G 3 ..7 * &.3 S R W 6 o #.H B ; Z J k *.;.~ [ ] ^ M >.          ",
"          >.O B Q Z z ,. .8 Z Z J Z Q v * &.3 S R W 6 M '.&.| J | k @.| @.&.k J H 4 ).          ",
"            !.'._ v '.~.{.].j $ . @ # j * &.3 S R W 6 P ^.$ $ s s s s u u _ #.5 /.>.            ",
"                  (._.:.-.:.(.(.(.(._.% m $ ` 4 % q 6 f <.(.[.}.}.[.|.}.}.1.2.                  ",
"                                3.3.[.r =.- 9 B W g 4.r 5.6.3.3.                                ",
"                                    7.m ] ~ ;.@.Q ..7 5 '.8.                                    ",
"                                    %.o *.*.*.k & F l #.9.(.                                    ",
"                                    e . O z # : B 0 l R 0.a.                                    ",
"                                    b.+.} z d x 5.> l n i c.                                    ",
"                                    ~.[ y l | B S '.v R ` d.                                    ",
"                                    e.. ; k @.; F m #.d % %.t z % w ,.9.                        ",
"                                    5...=.@.*.G @ g e ].b e.S 8 m D C 5.%.                      ",
"                                    v [ 9 @.f  .w @ s d {.>.B & H F 8 h c                       ",
"                                    j < | j z 8 R W 6 z ^.f.;...P s ` u s >.                    ",
"                                    z @.% R 3 ; R W 6 z v g.b e h.f.f.>.0.7.g.                  ",
"                ` u v 4.d #.'.#.i./.4 P +.1 J } R W 6 z x {.U U >.>.{.{.~.e.g.                  ",
"                O 3 l n h V W t './.v N * ! j.= 8 W 6 z w !.y $ y ` u t % # ].                  ",
"              j B Z ; & B H C 4 #.<.w * * * * ' Z W 6 z x c e /.i.5.g b.U $.                    ",
"            4 +.| Z Q ; & H f y d i.r * * * * * ^ L 6 z v k.                                    ",
"            N - k Z Q ; & G S l S % Q * * * * * , [ h z x I                                     ",
"          s @.< | T S Y h N @ ` #.c 2 * * B r x 7 x % 4 x g                                     ",
"          s z y j t v x             , ;.i #.b '.5.^.g l.5.g                                     ",
"                                    J o j ` v x 7 d '.<.^.I                                     ",
"                                    u - O . $ s t x _ #.i.e.                                    ",
"                                    f.*.H M > A $ y ` w g g.                                    ",
"                                      h.Y *.T R p 6 $ 5 d.                                      ",
"                                          ~.m.5 m.c n.                                          "};
