/* XPM */
static char *usb_16x16[]={
"16 16 3 1",
". c None",
"# c None",
"a c #cfcfcf",
".#######.#.#####",
"#######.....####",
"######......####",
"######..a...####",
".......aaa......",
"......a.a.......",
".aa...a......a..",
"aaaa..a......aa.",
"aaaaaaaaaaaaaaaa",
"aaaa....a....aa.",
".aa.....a....a..",
"........a.aa....",
"########.aaa..##",
"########..aa..##",
"#########.....##",
"##########....##"};
