/* XPM */
static char * winamp_16x16_xpm[] = {
"16 16 5 1",
" 	c None",
".	c #808080",
"+	c #CFCFCF",
"@	c #888888",
"#	c #CBCBCB",
"       ..       ",
"      ....    ++",
"     ...... +++ ",
"    .....@++++  ",
"   ....@++++.   ",
"  ...++++++...  ",
" ..+++++++..... ",
"....@+++++++....",
"......++++@.... ",
" ....+++#@....  ",
"  ..+++@.....   ",
"   +++@.....    ",
"  ++@......     ",
" ++  .....      ",
"+     ...       ",
"       .        "};
