/* XPM */
static char * winamp2_16x16_xpm[] = {
"16 16 21 1",
" 	c None",
".	c #848484",
"+	c #949494",
"@	c #B3B3B3",
"#	c #A5A5A5",
"$	c #D1D1D1",
"%	c #AEAEAE",
"&	c #787878",
"*	c #B5B5B5",
"=	c #CBCBCB",
"-	c #9A9A9A",
";	c #737373",
">	c #525252",
",	c #5A5A5A",
"'	c #636363",
")	c #4A4A4A",
"!	c #696969",
"~	c #424242",
"{	c #3B3B3B",
"]	c #8C8C8C",
"^	c #313131",
"       .        ",
"      ++.     @@",
"     ###+.  $%& ",
"    ##**#+$$=-  ",
"   .+##@$$$$*   ",
"  ;..$$$$$=>,   ",
" ,'$$$$$$$&,,,  ",
")>,,-$$$$$==&>> ",
"+>>,,;$$$=%!)>) ",
" .>>,$==%&~,>)  ",
"  ;)=%%-{>>>)   ",
"   -&]!~>>>~    ",
"  &&&^))))~     ",
" !!! +~~~~      ",
"!!    ;~~       ",
"!      ,        "};
