/* XPM */
static char * wmdrawer_xpm[] = {
"16 16 2 1",
" 	c None",
".	c #CFCFCF",
"                ",
"       ..       ",
"      .  .      ",
"     .    .     ",
"    .      .    ",
"   .        .   ",
"    ........    ",
"                ",
"                ",
"       ..       ",
"      ....      ",
"     ......     ",
"    ........    ",
"   ..........   ",
"    ........    ",
"                "};
