/* XPM */
static char *xcal[]={
"16 16 5 1",
". c None",
"# c None",
"a c #585858",
"b c #cfcfcf",
"c c #ffffff",
"...............#",
"..aaaaaaaaaaa...",
"#.aaaaaaaaaaa#..",
"#..............#",
"#.bb.bb.bb.bb..#",
"#.bb.bb.bb.bb..#",
"#..............#",
"#.bb.bb.cc.bb..#",
"#.bb.bb.cc.bb..#",
"#..............#",
"#.bb.bb.bb.bb..#",
"#.bb.bb.bb.bb..#",
"#..............#",
"#..............#",
"#..............#",
"#..............#"};
