/* XPM */
static char *xclock_16x16[]={
"16 16 6 1",
"a c None",
". c None",
"d c #3a3a3a",
"# c #c6c6c6",
"b c #d8d8d8",
"c c #e0e0e0",
".....#####......",
"...##..a..##....",
"..#....b....#...",
".#.a.......a.#..",
".#..a.....c..#..",
"#....c...c.d..#.",
"#.....c.c.d...#.",
"#ab....c.d..ba#.",
"#.....c.c.....#.",
"#......d.d....#.",
".#..b.....b..#..",
".#.a.......a.#..",
"..#....b....#...",
"...##..a..##....",
".....#####......",
"................"};
