/* XPM */
static char *closeA[]={
"17 40 5 1",
"# c #000000",
". c #085d8b",
"b c #a4a5a4",
"a c #eeeaee",
"c c #ffffff",
".................",
".................",
".................",
"#############....",
"#aaaaaaaaaaa#....",
"#aaaaaaaaaaa#....",
"#aabbaaabbaa#....",
"#aabbbabbbaa#....",
"#aaabbbbbaaa#....",
"#aaaabbbaaaa#....",
"#aaabbbbbaaa#....",
"#aabbbabbbaa#....",
"#aabbaaabbaa#....",
"#aaaaaaaaaaa#....",
"#aaaaaaaaaaa#....",
"#############....",
".................",
".................",
".................",
"#################",
".................",
".................",
".................",
".................",
".#############...",
".#aaaaaaaaaaa#...",
".#aaaaaaaaaaa#...",
".#aa..aaa..aa#...",
".#aa...a...aa#...",
".#aaa.....aaa#...",
".#aaaa...aaaa#...",
".#aaa.....aaa#...",
".#aa...a...aa#...",
".#aa..aaa..ac#...",
".#aaaaaaaaaac#...",
".#aaaaaaaaaac#...",
".#############...",
".................",
".................",
"#################"};
