/* XPM */
static char *closeI[]={
"17 40 4 1",
"b c #085d8b",
"# c #5b5a5a",
"a c #a4a5a4",
". c #eeeaee",
".................",
".................",
".................",
"#############....",
"#...........#....",
"#...........#....",
"#..aa...aa..#....",
"#..aaa.aaa..#....",
"#...aaaaa...#....",
"#....aaa....#....",
"#...aaaaa...#....",
"#..aaa.aaa..#....",
"#..aa...aa..#....",
"#...........#....",
"#...........#....",
"#############....",
".................",
".................",
".................",
"#################",
".................",
".................",
".................",
".................",
".#############...",
".#...........#...",
".#...........#...",
".#..bb...bb..#...",
".#..bbb.bbb..#...",
".#...bbbbb...#...",
".#....bbb....#...",
".#...bbbbb...#...",
".#..bbb.bbb..#...",
".#..bb...bb..#...",
".#...........#...",
".#...........#...",
".#############...",
".................",
".................",
"#################"};
