/* XPM */
static char *depthA[]={
"17 40 3 1",
"# c #000000",
". c #085d8b",
"a c #eeeaee",
".................",
".................",
".................",
".#############...",
".#aaaaaaaaaaa#...",
".#aaaaaa#aaaa#...",
".#aaaaa###aaa#...",
".#aaaa#####aa#...",
".#aa#a######a#...",
".#aa#######aa#...",
".#aaa#####aaa#...",
".#aaa###aaaaa#...",
".#aa#aa##aaaa#...",
".#a#aaaaaaaaa#...",
".#aaaaaaaaaaa#...",
".#############...",
".................",
".................",
".................",
"#################",
".................",
".................",
".................",
".................",
"..#############..",
"..#aaaaaaaaaaa#..",
"..#aaaaaa.aaaa#..",
"..#aaaaa...aaa#..",
"..#aaaa.....aa#..",
"..#aa.a......a#..",
"..#aa.......aa#..",
"..#aaa.....aaa#..",
"..#aaa...aaaaa#..",
"..#aa.aa..aaaa#..",
"..#a.aaaaaaaaa#..",
"..#aaaaaaaaaaa#..",
"..#############..",
".................",
".................",
"#################"};
