/* XPM */
static char *depthI[]={
"17 40 5 1",
"c c #085d8b",
"# c #5a595a",
"b c #5b5a5a",
"a c #a4a5a4",
". c #eeeaee",
".................",
".................",
".................",
".#############...",
".#...........#...",
".#......a....#...",
".#.....aaa...#...",
".#....aaaaa..#...",
".#..a.aaaaaa.#...",
".#..aaaaaaa..#...",
".#...aaaaa...#...",
".#...aaa.....#...",
".#..a..aa....#...",
".#.a.........#...",
".#...........#...",
".#############...",
".................",
".................",
".................",
"#bbbbbbbbbbbbbb##",
".................",
".................",
".................",
".................",
"..#############..",
"..#...........#..",
"..#......c....#..",
"..#.....ccc...#..",
"..#....ccccc..#..",
"..#..c.cccccc.#..",
"..#..ccccccc..#..",
"..#...ccccc...#..",
"..#...ccc.....#..",
"..#..c..cc....#..",
"..#.c.........#..",
"..#...........#..",
"..#############..",
".................",
".................",
"#bbbbbbbbbbbbbb##"};
