/* XPM */
static char *frameATR[]={
"14 14 2 1",
". c #000000",
"# c #eeeaee",
"..............",
"..............",
"############..",
"############..",
"############..",
"############..",
"############..",
"############..",
"############..",
"############..",
"############..",
"############..",
"############..",
"############.."};
