/* XPM */
static char *frameIBL[]={
"14 14 2 1",
". c #808080",
"# c #eeeaee",
"..############",
"..############",
"..############",
"..############",
"..############",
"..############",
"..############",
"..############",
"..############",
"..############",
"..############",
"..############",
"..............",
".............."};
