/* XPM */
static char *frameIBR[]={
"14 14 2 1",
"# c #808080",
". c #eeeaee",
"............##",
"............##",
"............##",
"............##",
"............##",
"............##",
"............##",
"............##",
"............##",
"............##",
"............##",
"............##",
"##############",
"##############"};
