/* XPM */
static char *maximizeI[]={
"15 40 4 1",
"b c #085d8b",
"# c #5a595a",
"a c #a4a5a4",
". c #eeeaee",
"...............",
"...............",
"...............",
"#############..",
"#...........#..",
"#...........#..",
"#...aaaaaa..#..",
"#....aaaaa..#..",
"#.....aaaa..#..",
"#......aaa..#..",
"#.......aa..#..",
"#........a..#..",
"#...........#..",
"#...........#..",
"#...........#..",
"#############..",
"...............",
"...............",
"...............",
"###############",
"...............",
"...............",
"...............",
"...............",
".#############.",
".#...........#.",
".#...........#.",
".#...bbbbbb..#.",
".#....bbbbb..#.",
".#.....bbbb..#.",
".#......bbb..#.",
".#.......bb..#.",
".#........b..#.",
".#...........#.",
".#...........#.",
".#...........#.",
".#############.",
"...............",
"...............",
"###############"};
