/* XPM */
static char *maximizeA[]={
"15 40 5 1",
"# c #000000",
". c #085d8b",
"c c #a4a5a4",
"a c #eeeaee",
"b c #ffffff",
"...............",
"...............",
"...............",
"#############..",
"#aaaaaaaaaaa#..",
"#aaabaaaaaaa#..",
"#aaaccccccaa#..",
"#aaaacccccaa#..",
"#aaaaaccccaa#..",
"#aaaaaacccaa#..",
"#aaaaaaaccaa#..",
"#aaaaaaaacba#..",
"#aaaaaaaaaaa#..",
"#aaaaaaaaaaa#..",
"#aaaaaaaaaaa#..",
"#############..",
"...............",
"...............",
"...............",
"###############",
"...............",
"...............",
"...............",
"...............",
".#############.",
".#aaaaaaaaaaa#.",
".#aaaaaaaaaaa#.",
".#aaa......aa#.",
".#aaaa.....aa#.",
".#aaaaa....aa#.",
".#aaaaaa...aa#.",
".#aaaaaaa..aa#.",
".#aaaaaaaa.ba#.",
".#aaaaaaaaaaa#.",
".#aaaaaaaaaaa#.",
".#aaaaaaaaaaa#.",
".#############.",
"...............",
"...............",
"###############"};
