/* XPM */
static char * minimizeA_xpm[] = {
"19 40 5 1",
" 	c None",
".	c #085D8B",
"+	c #000000",
"@	c #EEEAEE",
"#	c #A4A5A4",
"...................",
"...................",
"...................",
"....+++++++++++++..",
"....+@@@@@@@@@@@+..",
"....+@@@@@@@@@@@+..",
"....+@@@@@@@@@@@+..",
"....+@@@@@@@@@@@+..",
"....+@@#######@@+..",
"....+@@@#####@@@+..",
"....+@@@@###@@@@+..",
"....+@@@@@#@@@@@+..",
"....+@@@@@@@@@@@+..",
"....+@@@@@@@@@@@+..",
"....+@@@@@@@@@@@+..",
"....+++++++++++++..",
"...................",
"...................",
"...................",
"+++++++++++++++++++",
"...................",
"...................",
"...................",
"...................",
".....+++++++++++++.",
".....+@@@@@@@@@@@+.",
".....+@@@@@@@@@@@+.",
".....+@@@@@@@@@@@+.",
".....+@@@@@@@@@@@+.",
".....+@@.......@@+.",
".....+@@@.....@@@+.",
".....+@@@@...@@@@+.",
".....+@@@@@.@@@@@+.",
".....+@@@@@@@@@@@+.",
".....+@@@@@@@@@@@+.",
".....+@@@@@@@@@@@+.",
".....+++++++++++++.",
"...................",
"...................",
"+++++++++++++++++++"};
