/* XPM */
static char * minimizeI_xpm[] = {
"19 40 5 1",
" 	c None",
".	c #EEEAEE",
"+	c #5A595A",
"@	c #A4A5A4",
"#	c #085D8B",
"...................",
"...................",
"...................",
"....+++++++++++++..",
"....+...........+..",
"....+...........+..",
"....+...........+..",
"....+...........+..",
"....+..@@@@@@@..+..",
"....+...@@@@@...+..",
"....+....@@@....+..",
"....+.....@.....+..",
"....+...........+..",
"....+...........+..",
"....+...........+..",
"....+++++++++++++..",
"...................",
"...................",
"...................",
"+++++++++++++++++++",
"...................",
"...................",
"...................",
"...................",
".....+++++++++++++.",
".....+...........+.",
".....+...........+.",
".....+...........+.",
".....+...........+.",
".....+..#######..+.",
".....+...#####...+.",
".....+....###....+.",
".....+.....#.....+.",
".....+...........+.",
".....+...........+.",
".....+...........+.",
".....+++++++++++++.",
"...................",
"...................",
"+++++++++++++++++++"};
