/* XPM */
static char *restoreI[]={
"15 40 4 1",
"b c #085d8b",
"# c #5a595a",
"a c #a4a5a4",
". c #eeeaee",
"...............",
"...............",
"...............",
"#############..",
"#...........#..",
"#...........#..",
"#...........#..",
"#..a........#..",
"#..aa.......#..",
"#..aaa......#..",
"#..aaaa.....#..",
"#..aaaaa....#..",
"#..aaaaaa...#..",
"#...........#..",
"#...........#..",
"#############..",
"...............",
"...............",
"...............",
"###############",
"...............",
"...............",
"...............",
"...............",
".#############.",
".#...........#.",
".#...........#.",
".#...........#.",
".#..b........#.",
".#..bb.......#.",
".#..bbb......#.",
".#..bbbb.....#.",
".#..bbbbb....#.",
".#..bbbbbb...#.",
".#...........#.",
".#...........#.",
".#############.",
"...............",
"...............",
"###############"};
