/* XPM */
static char *restoreA[]={
"15 40 4 1",
"# c #000000",
". c #085d8b",
"b c #a4a5a4",
"a c #eeeaee",
"...............",
"...............",
"...............",
"#############..",
"#aaaaaaaaaaa#..",
"#aaaaaaaaaaa#..",
"#aaaaaaaaaaa#..",
"#aabaaaaaaaa#..",
"#aabbaaaaaaa#..",
"#aabbbaaaaaa#..",
"#aabbbbaaaaa#..",
"#aabbbbbaaaa#..",
"#aabbbbbbaaa#..",
"#aaaaaaaaaaa#..",
"#aaaaaaaaaaa#..",
"#############..",
"...............",
"...............",
"...............",
"###############",
"...............",
"...............",
"...............",
"...............",
".#############.",
".#aaaaaaaaaaa#.",
".#aaaaaaaaaaa#.",
".#aaaaaaaaaaa#.",
".#aa.aaaaaaaa#.",
".#aa..aaaaaaa#.",
".#aa...aaaaaa#.",
".#aa....aaaaa#.",
".#aa.....aaaa#.",
".#aa......aaa#.",
".#aaaaaaaaaaa#.",
".#aaaaaaaaaaa#.",
".#############.",
"...............",
"...............",
"###############"};
