/* XPM */
static char *titleIB[]={
"319 20 2 1",
"# c #5a595a",
". c #eeeaee",
"...............................................................................................................................................................................................................................................................................................................................",
"...............................................................................................................................................................................................................................................................................................................................",
"...............................................................................................................................................................................................................................................................................................................................",
"...............................................................................................................................................................................................................................................................................................................................",
"...............................................................................................................................................................................................................................................................................................................................",
"...............................................................................................................................................................................................................................................................................................................................",
"...............................................................................................................................................................................................................................................................................................................................",
"...............................................................................................................................................................................................................................................................................................................................",
"...............................................................................................................................................................................................................................................................................................................................",
"...............................................................................................................................................................................................................................................................................................................................",
"...............................................................................................................................................................................................................................................................................................................................",
"...............................................................................................................................................................................................................................................................................................................................",
"...............................................................................................................................................................................................................................................................................................................................",
"...............................................................................................................................................................................................................................................................................................................................",
"...............................................................................................................................................................................................................................................................................................................................",
"...............................................................................................................................................................................................................................................................................................................................",
"...............................................................................................................................................................................................................................................................................................................................",
"...............................................................................................................................................................................................................................................................................................................................",
"...............................................................................................................................................................................................................................................................................................................................",
"###############################################################################################################################################################################################################################################################################################################################"};
