/* XPM */
static char *titleAR[]={
"5 20 2 1",
"# c #000000",
". c #085d8b",
".....",
".....",
".....",
".....",
".....",
".....",
".....",
".....",
".....",
".....",
".....",
".....",
".....",
".....",
".....",
".....",
".....",
".....",
".....",
"#####"};
