/* XPM */
static char *titleAB[]={
"319 20 2 1",
"# c #000000",
". c #085d8b",
"...............................................................................................................................................................................................................................................................................................................................",
"...............................................................................................................................................................................................................................................................................................................................",
"...............................................................................................................................................................................................................................................................................................................................",
"...............................................................................................................................................................................................................................................................................................................................",
"...............................................................................................................................................................................................................................................................................................................................",
"...............................................................................................................................................................................................................................................................................................................................",
"...............................................................................................................................................................................................................................................................................................................................",
"...............................................................................................................................................................................................................................................................................................................................",
"...............................................................................................................................................................................................................................................................................................................................",
"...............................................................................................................................................................................................................................................................................................................................",
"...............................................................................................................................................................................................................................................................................................................................",
"...............................................................................................................................................................................................................................................................................................................................",
"...............................................................................................................................................................................................................................................................................................................................",
"...............................................................................................................................................................................................................................................................................................................................",
"...............................................................................................................................................................................................................................................................................................................................",
"...............................................................................................................................................................................................................................................................................................................................",
"...............................................................................................................................................................................................................................................................................................................................",
"...............................................................................................................................................................................................................................................................................................................................",
"...............................................................................................................................................................................................................................................................................................................................",
"###############################################################################################################################################################################################################################################################################################################################"};
