/* XPM */
static char *titleIT[]={
"205 20 2 1",
"# c #5a595a",
". c #eeeaee",
".............................................................................................................................................................................................................",
".............................................................................................................................................................................................................",
".............................................................................................................................................................................................................",
".............................................................................................................................................................................................................",
".............................................................................................................................................................................................................",
".............................................................................................................................................................................................................",
".............................................................................................................................................................................................................",
".............................................................................................................................................................................................................",
".............................................................................................................................................................................................................",
".............................................................................................................................................................................................................",
".............................................................................................................................................................................................................",
".............................................................................................................................................................................................................",
".............................................................................................................................................................................................................",
".............................................................................................................................................................................................................",
".............................................................................................................................................................................................................",
".............................................................................................................................................................................................................",
".............................................................................................................................................................................................................",
".............................................................................................................................................................................................................",
".............................................................................................................................................................................................................",
"#############################################################################################################################################################################################################"};
