/* XPM */
static char *titleIR[]={
"5 20 2 1",
"# c #5a595a",
". c #eeeaee",
".....",
".....",
".....",
".....",
".....",
".....",
".....",
".....",
".....",
".....",
".....",
".....",
".....",
".....",
".....",
".....",
".....",
".....",
".....",
"#####"};
