/* XPM */
static char * menusep_xpm[] = {
"50 1 3 1",
" 	c None",
".	c #3C3C3C",
"+	c #565656",
"...++++++++++++++++++++++++++++++++++++++++++++..."};
