/* XPM */
static char * maximizeI_xpm[] = {
"13 36 20 1",
" 	c None",
".	c #AFC5D4",
"+	c #8BA7BA",
"@	c #8AA6B9",
"#	c #89A5B9",
"$	c #88A5B8",
"%	c #FFFFFF",
"&	c #88A4B7",
"*	c #87A3B7",
"=	c #86A3B6",
"-	c #85A2B5",
";	c #85A1B5",
">	c #84A0B4",
",	c #83A0B3",
"'	c #829FB3",
")	c #829EB2",
"!	c #819EB1",
"~	c #809DB1",
"{	c #7F9CB0",
"]	c #7F9BAF",
".............",
"+++++++++++++",
"@@@@@@@@@@@@@",
"#############",
"$$%%%%%%%%%$$",
"&&%%%%%%%%%&&",
"**%%*****%%**",
"==%%=====%%==",
"--%%-----%%--",
";;%%;;;;;%%;;",
">>%%>>>>>%%>>",
",,%%%%%%%%%,,",
"''%%%%%%%%%''",
")))))))))))))",
"!!!!!!!!!!!!!",
"~~~~~~~~~~~~~",
"{{{{{{{{{{{{{",
"]]]]]]]]]]]]]",
".............",
"+++++++++++++",
"@@@@@@@@@@@@@",
"#############",
"$$$$$$$$$$$$$",
"&&&%%%%%%%%%&",
"***%%%%%%%%%*",
"===%%=====%%=",
"---%%-----%%-",
";;;%%;;;;;%%;",
">>>%%>>>>>%%>",
",,,%%,,,,,%%,",
"'''%%%%%%%%%'",
")))%%%%%%%%%)",
"!!!!!!!!!!!!!",
"~~~~~~~~~~~~~",
"{{{{{{{{{{{{{",
"]]]]]]]]]]]]]"};
