/* XPM */
static char * closeI_xpm[] = {
"19 36 6 1",
" 	c None",
".	c #E2E2E2",
"+	c #000000",
"@	c #BDBEBD",
"#	c #7B7D7B",
"$	c #FF0000",
"...................",
"...................",
"................+..",
"..@@@@@@@@@@@@@#+..",
"..@@@@@@@@@@@@@#+..",
"..@@@++@@@@++@@#+..",
"..@@@@++@@++@@@#+..",
"..@@@@@++++@@@@#+..",
"..@@@@@@++@@@@@#+..",
"..@@@@@++++@@@@#+..",
"..@@@@++@@++@@@#+..",
"..@@@++@@@@++@@#+..",
"..@@@@@@@@@@@@@#+..",
"..@@@@@@@@@@@@@#+..",
"..##############+..",
".++++++++++++++++..",
"...................",
"...................",
"...................",
"...................",
"................+..",
"..@@@@@@@@@@@@@#+..",
"..@@@@@@@@@@@@@#+..",
"..@@@$$@@@@$$@@#+..",
"..@@@@$$@@$$@@@#+..",
"..@@@@@$$$$@@@@#+..",
"..@@@@@@$$@@@@@#+..",
"..@@@@@$$$$@@@@#+..",
"..@@@@$$@@$$@@@#+..",
"..@@@$$@@@@$$@@#+..",
"..@@@@@@@@@@@@@#+..",
"..@@@@@@@@@@@@@#+..",
"..##############+..",
".++++++++++++++++..",
"...................",
"..................."};
