/* XPM */
static char * frameABR_xpm[] = {
"35 31 4 1",
" 	c None",
".	c #BDBDBD",
"+	c #7B7B7B",
"@	c #000000",
".........+@++++++++++++++++++++..+@",
".........+@++++++++++++++++++++..+@",
".........+@++++++++++++++++++++..+@",
".........+@++++++++++++++++++++..+@",
".........+@++++++++++++++++++++..+@",
".........+@++++++++++++++++++++..+@",
".........+@++++++++++++++++++++..+@",
".........+@++++++++++++++++++++..+@",
".........+@++++++++++++++++++++..+@",
".........+@++++++++++++++++++++..+@",
".........+@++++++++++++++++++++..+@",
".........+@++++++++++++++++++++..+@",
".........+@++++++++++++++++++++..+@",
".........+@++++++++++++++++++++..+@",
".........+@++++++++++++++++++++..+@",
".........+@++++++++++++++++++++..+@",
".........+@++++++++++++++++++++..+@",
"++++++++++@++++++++++++++++++++..+@",
"@@@@@@@@@@@++++++++++++++++++++..+@",
"+++++++++++++++++++++++++++++++..+@",
"+++++++++++++++++++++++++++++++..+@",
"+++++++++++++++++++++++++++++++..+@",
"+++++++++++++++++++++++++++++++..+@",
"+++++++++++++++++++++++++++++++..+@",
"+++++++++++++++++++++++++++++++..+@",
"+++++++++++++++++++++++++++++++..+@",
"+++++++++++++++++++++++++++++++..+@",
".................................+@",
".................................+@",
"++++++++++++++++++++++++++++++++++@",
"@@@@@@@@@@@@@@@@@@@@@@@@@@@@@@@@@@@"};
