/* XPM */
static char * frameAB_xpm[] = {
"4 4 4 1",
" 	c None",
".	c #BDBDBD",
"+	c #7B7B7B",
"@	c #000000",
"....",
"....",
"++++",
"@@@@"};
