/* XPM */
static char * maximizeI_xpm[] = {
"18 36 8 1",
" 	c None",
".	c #E2E2E2",
"+	c #000000",
"@	c #BDBEBD",
"#	c #7B7D7B",
"$	c #7B7B7B",
"%	c #E0E0E0",
"&	c #BDBDBD",
"..................",
"..................",
"...............+..",
".@@@@@@@@@@@@@#+..",
".@@+++++++++@@#+..",
".@@+++++++++@@#+..",
".@@+@@@@@@@+@@#+..",
".@@+@@@@@@@+@@#+..",
".@@+@@@@@@@+@@#+..",
".@@+@@@@@@@+@@#+..",
".@@+@@@@@@@+@@#+..",
".@@+@@@@@@@+@@#+..",
".@@+++++++++@@#+..",
".@@@@@@@@@@@@@#+..",
".##############+..",
"++++++++++++++++..",
"..................",
"..................",
"..................",
"..................",
"+++++++++++++++...",
"+$$$$$$$$$$$$$%...",
"+$&&&&&&&&&&&&%...",
"+$&&+++++++++&%...",
"+$&&+++++++++&%...",
"+$&&+&&&&&&&+&%...",
"+$&&+&&&&&&&+&%...",
"+$&&+&&&&&&&+&%...",
"+$&&+&&&&&&&+&%...",
"+$&&+&&&&&&&+&%...",
"+$&&+&&&&&&&+&%...",
"+$&&+++++++++&%...",
"+%%%%%%%%%%%%%%...",
"..................",
"..................",
".................."};
