/* XPM */
static char * minimizeI_xpm[] = {
"18 36 7 1",
" 	c None",
".	c #E2E2E2",
"+	c #000000",
"@	c #E0E0E0",
"#	c #7B7B7B",
"$	c #BDBDBD",
"%	c #BDBEBD",
"..................",
"..................",
".................+",
"...@@@@@@@@@@@@@#+",
"...@$$$$$$$$$$$$#+",
"...@$$$$$$$$$$$$#+",
"...@$$$$$$$$$$$$#+",
"...@$$$$$$$$$$$$#+",
"...@$$$$$$$$$$$$#+",
"...@$$$$$$$$$$$$#+",
"...@$$$$$$$$$$$$#+",
"...@$$++++++$$$$#+",
"...@$$++++++$$$$#+",
"...@$$$$$$$$$$$$#+",
"...##############+",
"..++++++++++++++++",
"..................",
"..................",
"..................",
"..................",
"..+++++++++++++++.",
"..+#############@.",
"..+#$$$$$$$$$$$$@.",
"..+#$%%%%%%%%%%$@.",
"..+#$$%%%%%%%%%$@.",
"..+#$$%%$$$$$%%$@.",
"..+#$$%%$$$$$$%$@.",
"..+#$$%%$$$$$$%$@.",
"..+#$$%$$$$$$$%$@.",
"..+#$$%$$$$$$$%$@.",
"..+#$$%++++++$%$@.",
"..+#$$%++++++%%$@.",
"..+@@@@@@@@@@@@@@.",
"..................",
"..................",
".................."};
