/* XPM */
static char * restoreI_xpm[] = {
"18 36 6 1",
" 	c None",
".	c #E2E2E2",
"+	c #000000",
"@	c #A5CEF1",
"#	c #7B7B7B",
"$	c #BDBDBD",
"..................",
"..................",
"...............+..",
".@@@@@@@@@@@@@#+..",
".@$$$++++++$$$#+..",
".@$$$++++++$$$#+..",
".@$$$+$$$$+$$$#+..",
".@$++++++$+$$$#+..",
".@$++++++$+$$$#+..",
".@$+$$$$+++$$$#+..",
".@$+$$$$+$$$$$#+..",
".@$+$$$$+$$$$$#+..",
".@$++++++$$$$$#+..",
".@$$$$$$$$$$$$#+..",
".##############+..",
"++++++++++++++++..",
"..................",
"..................",
"..................",
"..................",
"+++++++++++++++...",
"+#############@...",
"+#$$$$$$$$$$$$@...",
"+#$$$$++++++$$@...",
"+#$$$$++++++$$@...",
"+#$$$$+$$$$+$$@...",
"+#$$++++++$+$$@...",
"+#$$++++++$+$$@...",
"+#$$+$$$$+++$$@...",
"+#$$+$$$$+$$$$@...",
"+#$$+$$$$+$$$$@...",
"+#$$++++++$$$$@...",
"+@@@@@@@@@@@@@@...",
"..................",
"..................",
".................."};
