/* XPM */
static char * restoreA_xpm[] = {
"18 36 7 1",
" 	c None",
".	c #FFFF00",
"+	c #FFFFFF",
"@	c #000000",
"#	c #DEDEDE",
"$	c #7B7B7B",
"%	c #BDBDBD",
"..................",
"..................",
"+++++++++++++++@..",
"+#############$@..",
"+#%%%@@@@@@%%%$@..",
"+#%%%@@@@@@%%%$@..",
"+#%%%@%%%%@%%%$@..",
"+#%@@@@@@%@%%%$@..",
"+#%@@@@@@%@%%%$@..",
"+#%@%%%%@@@%%%$@..",
"+#%@%%%%@%%%%%$@..",
"+#%@%%%%@%%%%%$@..",
"+#%@@@@@@%%%%%$@..",
"+#%%%%%%%%%%%%$@..",
"+$$$$$$$$$$$$$$@..",
"@@@@@@@@@@@@@@@@..",
"..................",
"..................",
"..................",
"..................",
"@@@@@@@@@@@@@@@+..",
"@$$$$$$$$$$$$$#+..",
"@$%%%%%%%%%%%%#+..",
"@$%%%%@@@@@@%%#+..",
"@$%%%%@@@@@@%%#+..",
"@$%%%%@%%%%@%%#+..",
"@$%%@@@@@@%@%%#+..",
"@$%%@@@@@@%@%%#+..",
"@$%%@%%%%@@@%%#+..",
"@$%%@%%%%@%%%%#+..",
"@$%%@%%%%@%%%%#+..",
"@$%%@@@@@@%%%%#+..",
"@##############+..",
"++++++++++++++++..",
"..................",
".................."};
