/* XPM */
static char * titleAR_xpm[] = {
"128 18 617 2",
"  	c None",
". 	c #A50000",
"+ 	c #A70000",
"@ 	c #AA0000",
"# 	c #AC0000",
"$ 	c #AF0000",
"% 	c #B20000",
"& 	c #B40000",
"* 	c #B70000",
"= 	c #BA0000",
"- 	c #BC0000",
"; 	c #C00000",
"> 	c #C60000",
", 	c #CB0000",
"' 	c #CE0000",
") 	c #CF0000",
"! 	c #D00000",
"~ 	c #D30000",
"{ 	c #D50000",
"] 	c #D80000",
"^ 	c #DC0000",
"/ 	c #DE0000",
"( 	c #E10200",
"_ 	c #E40400",
": 	c #E90A00",
"< 	c #ED1200",
"[ 	c #F01900",
"} 	c #F52B00",
"| 	c #F73D00",
"1 	c #F94F00",
"2 	c #FA6800",
"3 	c #FB7B00",
"4 	c #FC8A00",
"5 	c #FD9C00",
"6 	c #FEA900",
"7 	c #FFB500",
"8 	c #FFC600",
"9 	c #FFD200",
"0 	c #FFCC00",
"a 	c #FFCA00",
"b 	c #FFD500",
"c 	c #FFDF00",
"d 	c #FFE600",
"e 	c #FFE900",
"f 	c #FFEE00",
"g 	c #FFF200",
"h 	c #FFF600",
"i 	c #FFF800",
"j 	c #FFF900",
"k 	c #FFFA00",
"l 	c #FFFB00",
"m 	c #FFFD00",
"n 	c #FFFF00",
"o 	c #A80000",
"p 	c #B10000",
"q 	c #B60000",
"r 	c #BF0000",
"s 	c #C40000",
"t 	c #C80000",
"u 	c #CA0000",
"v 	c #C90000",
"w 	c #CC0000",
"x 	c #CE0100",
"y 	c #D20300",
"z 	c #D40500",
"A 	c #D80800",
"B 	c #DB0B00",
"C 	c #DE0E00",
"D 	c #DF0F00",
"E 	c #DE0800",
"F 	c #DD0000",
"G 	c #DF0000",
"H 	c #E10000",
"I 	c #E40000",
"J 	c #E70000",
"K 	c #EC0100",
"L 	c #F10400",
"M 	c #F60D00",
"N 	c #F81700",
"O 	c #FA2500",
"P 	c #FB3800",
"Q 	c #FD5500",
"R 	c #FE7100",
"S 	c #FF9300",
"T 	c #FFC800",
"U 	c #FFE500",
"V 	c #FFEB00",
"W 	c #FFED00",
"X 	c #FFEF00",
"Y 	c #FFF100",
"Z 	c #FFF400",
"` 	c #C80300",
" .	c #D00C00",
"..	c #D51200",
"+.	c #D81900",
"@.	c #DA2000",
"#.	c #DB1500",
"$.	c #DD1000",
"%.	c #DF1600",
"&.	c #E11C00",
"*.	c #E42500",
"=.	c #E62E00",
"-.	c #E83600",
";.	c #EA3E00",
">.	c #EB4400",
",.	c #EE4500",
"'.	c #EF4800",
").	c #F04B00",
"!.	c #F03D00",
"~.	c #F03500",
"{.	c #F02600",
"].	c #EE1600",
"^.	c #ED0800",
"/.	c #EE0600",
"(.	c #F31A00",
"_.	c #F62F00",
":.	c #F93800",
"<.	c #FA3A00",
"[.	c #FC2900",
"}.	c #FD3400",
"|.	c #FE4B00",
"1.	c #FF6300",
"2.	c #FF8700",
"3.	c #FFA200",
"4.	c #FFBD00",
"5.	c #FFD400",
"6.	c #FFE000",
"7.	c #FFF300",
"8.	c #FFFC00",
"9.	c #A60000",
"0.	c #B90000",
"a.	c #C90100",
"b.	c #D10900",
"c.	c #D71900",
"d.	c #DC2A00",
"e.	c #DF3100",
"f.	c #E24200",
"g.	c #E44E00",
"h.	c #E65200",
"i.	c #E75D00",
"j.	c #E86600",
"k.	c #E97000",
"l.	c #EA7700",
"m.	c #EB7C00",
"n.	c #EC8200",
"o.	c #ED8700",
"p.	c #EE8A00",
"q.	c #EF8E00",
"r.	c #F09400",
"s.	c #F19800",
"t.	c #F29800",
"u.	c #F39300",
"v.	c #F49000",
"w.	c #F58700",
"x.	c #F67E00",
"y.	c #F77B00",
"z.	c #F87600",
"A.	c #F97800",
"B.	c #FA7C00",
"C.	c #FB7900",
"D.	c #FC7400",
"E.	c #FD7600",
"F.	c #FE7700",
"G.	c #FF7A00",
"H.	c #FF8900",
"I.	c #FF9B00",
"J.	c #FFA400",
"K.	c #FFB700",
"L.	c #FFD300",
"M.	c #FFE100",
"N.	c #FFE700",
"O.	c #FFEC00",
"P.	c #FFF500",
"Q.	c #FFF700",
"R.	c #AD0000",
"S.	c #B50000",
"T.	c #BE0000",
"U.	c #C30000",
"V.	c #C70100",
"W.	c #CA0200",
"X.	c #CF0300",
"Y.	c #D30800",
"Z.	c #D50D00",
"`.	c #D71300",
" +	c #D71700",
".+	c #DC2700",
"++	c #E24D00",
"@+	c #E56900",
"#+	c #E77B00",
"$+	c #E88800",
"%+	c #E99400",
"&+	c #EA9B00",
"*+	c #EB9F00",
"=+	c #ECA200",
"-+	c #EDA400",
";+	c #EEA600",
">+	c #EFA800",
",+	c #F0AC00",
"'+	c #F1AE00",
")+	c #F2B200",
"!+	c #F3B100",
"~+	c #F4B500",
"{+	c #F5BE00",
"]+	c #F6C400",
"^+	c #F7C600",
"/+	c #F8C600",
"(+	c #F9C700",
"_+	c #FAC800",
":+	c #FBC800",
"<+	c #FCC500",
"[+	c #FDC300",
"}+	c #FEC400",
"|+	c #FFD600",
"1+	c #FFD000",
"2+	c #FFFE00",
"3+	c #A90000",
"4+	c #AE0000",
"5+	c #B30000",
"6+	c #BB0000",
"7+	c #BD0000",
"8+	c #C20000",
"9+	c #C40100",
"0+	c #CA0400",
"a+	c #CC0600",
"b+	c #CF0800",
"c+	c #D30C00",
"d+	c #D91700",
"e+	c #DE2900",
"f+	c #E34000",
"g+	c #E65700",
"h+	c #E86E00",
"i+	c #EA8000",
"j+	c #EB8C00",
"k+	c #EC9600",
"l+	c #ED9C00",
"m+	c #EEA100",
"n+	c #F0AF00",
"o+	c #F1B500",
"p+	c #F2B900",
"q+	c #F3BD00",
"r+	c #F4C300",
"s+	c #F5C600",
"t+	c #F6C700",
"u+	c #F7C800",
"v+	c #F8C900",
"w+	c #F9CD00",
"x+	c #FACE00",
"y+	c #FBCF00",
"z+	c #FCD100",
"A+	c #FDD500",
"B+	c #FED600",
"C+	c #FFD900",
"D+	c #FFDC00",
"E+	c #FFE200",
"F+	c #FFE400",
"G+	c #FFF000",
"H+	c #B00000",
"I+	c #C10000",
"J+	c #C50000",
"K+	c #C70000",
"L+	c #CF0100",
"M+	c #D20000",
"N+	c #E10600",
"O+	c #E51600",
"P+	c #E92B00",
"Q+	c #EB3F00",
"R+	c #ED5500",
"S+	c #EE7400",
"T+	c #EF9200",
"U+	c #F0A800",
"V+	c #F2B700",
"W+	c #F3BF00",
"X+	c #F4C100",
"Y+	c #F5C100",
"Z+	c #F6C000",
"`+	c #F7C000",
" @	c #F8C100",
".@	c #F9C500",
"+@	c #FAC600",
"@@	c #FCCB00",
"#@	c #FDD000",
"$@	c #FED200",
"%@	c #FFD800",
"&@	c #FFDB00",
"*@	c #FFDE00",
"=@	c #AB0000",
"-@	c #D60000",
";@	c #D70000",
">@	c #D90000",
",@	c #E20100",
"'@	c #E60800",
")@	c #E81E00",
"!@	c #EC4300",
"~@	c #ED7200",
"{@	c #EE9600",
"]@	c #EFAA00",
"^@	c #F0B100",
"/@	c #F1B600",
"(@	c #F2BC00",
"_@	c #F3C300",
":@	c #F4C400",
"<@	c #F5C500",
"[@	c #F6BE00",
"}@	c #F7B800",
"|@	c #F8B900",
"1@	c #F9BC00",
"2@	c #FABA00",
"3@	c #FBBF00",
"4@	c #FDC900",
"5@	c #FECC00",
"6@	c #D10000",
"7@	c #D40000",
"8@	c #DA0000",
"9@	c #E00400",
"0@	c #E51100",
"a@	c #E82A00",
"b@	c #EB5200",
"c@	c #EC7E00",
"d@	c #ED9B00",
"e@	c #EEAC00",
"f@	c #EFB300",
"g@	c #F0B600",
"h@	c #F1BB00",
"i@	c #F3B000",
"j@	c #F4A800",
"k@	c #F59D00",
"l@	c #F69B00",
"m@	c #F79900",
"n@	c #F89800",
"o@	c #F99E00",
"p@	c #FAA400",
"q@	c #FBAD00",
"r@	c #FCB600",
"s@	c #FDBF00",
"t@	c #FEC300",
"u@	c #FFC700",
"v@	c #FFD700",
"w@	c #FFEA00",
"x@	c #B80000",
"y@	c #D20200",
"z@	c #D50400",
"A@	c #DB0600",
"B@	c #DE0C00",
"C@	c #E01400",
"D@	c #E32100",
"E@	c #E74200",
"F@	c #E96B00",
"G@	c #EB8D00",
"H@	c #EC9A00",
"I@	c #EEAA00",
"J@	c #F0AB00",
"K@	c #F19E00",
"L@	c #F29200",
"M@	c #F37600",
"N@	c #F47200",
"O@	c #F56D00",
"P@	c #F66E00",
"Q@	c #F77A00",
"R@	c #F87D00",
"S@	c #F98500",
"T@	c #FA8800",
"U@	c #FB9900",
"V@	c #FCB400",
"W@	c #FDBE00",
"X@	c #FEC100",
"Y@	c #FFC200",
"Z@	c #FFC400",
"`@	c #FFC900",
" #	c #FFD100",
".#	c #FFDD00",
"+#	c #C50100",
"@#	c #C90200",
"##	c #C80100",
"$#	c #CA0100",
"%#	c #CB0200",
"&#	c #CE0400",
"*#	c #D00500",
"=#	c #D70D00",
"-#	c #D91000",
";#	c #DC1500",
">#	c #DF1B00",
",#	c #E11F00",
"'#	c #E22600",
")#	c #E32D00",
"!#	c #E43100",
"~#	c #E53F00",
"{#	c #E64D00",
"]#	c #E75800",
"^#	c #E86D00",
"/#	c #E97A00",
"(#	c #EA8100",
"_#	c #EB8400",
":#	c #EC8800",
"<#	c #ED8B00",
"[#	c #EE8900",
"}#	c #EF7300",
"|#	c #F07200",
"1#	c #F16200",
"2#	c #F25900",
"3#	c #F35500",
"4#	c #F45700",
"5#	c #F55900",
"6#	c #F65A00",
"7#	c #F75C00",
"8#	c #F86600",
"9#	c #F97F00",
"0#	c #FA9D00",
"a#	c #FBB300",
"b#	c #FCBD00",
"c#	c #FFCE00",
"d#	c #CE0500",
"e#	c #D40800",
"f#	c #D60B00",
"g#	c #D81000",
"h#	c #DA1400",
"i#	c #DB1700",
"j#	c #DC1B00",
"k#	c #DD2000",
"l#	c #DE2300",
"m#	c #DF2900",
"n#	c #E02F00",
"o#	c #E13300",
"p#	c #E23B00",
"q#	c #E34100",
"r#	c #E44500",
"s#	c #E54E00",
"t#	c #E65600",
"u#	c #E86400",
"v#	c #E95E00",
"w#	c #EA5500",
"x#	c #EB5700",
"y#	c #EC5600",
"z#	c #ED5300",
"A#	c #EE4A00",
"B#	c #EE3200",
"C#	c #EF2B00",
"D#	c #F02100",
"E#	c #F11D00",
"F#	c #F22400",
"G#	c #F32C00",
"H#	c #F43B00",
"I#	c #F65500",
"J#	c #F77800",
"K#	c #F89200",
"L#	c #F9A300",
"M#	c #FAB300",
"N#	c #FBBA00",
"O#	c #FDC000",
"P#	c #FEC000",
"Q#	c #FFC300",
"R#	c #FFC500",
"S#	c #FFCD00",
"T#	c #C80200",
"U#	c #D50800",
"V#	c #D80D00",
"W#	c #DB1100",
"X#	c #DC1400",
"Y#	c #DD1900",
"Z#	c #DE1C00",
"`#	c #DF1F00",
" $	c #E01F00",
".$	c #E01E00",
"+$	c #E12300",
"@$	c #E22700",
"#$	c #E53500",
"$$	c #E62F00",
"%$	c #E62400",
"&$	c #E41300",
"*$	c #E60700",
"=$	c #E70500",
"-$	c #E90700",
";$	c #EB0800",
">$	c #ED0D00",
",$	c #EF1300",
"'$	c #F11900",
")$	c #F22700",
"!$	c #F33900",
"~$	c #F44E00",
"{$	c #F55E00",
"]$	c #F67900",
"^$	c #F79300",
"/$	c #F8A700",
"($	c #F9AD00",
"_$	c #FAB200",
":$	c #FBB600",
"<$	c #FCB500",
"[$	c #FDB200",
"}$	c #FEB200",
"|$	c #FFAD00",
"1$	c #FFB100",
"2$	c #FFB800",
"3$	c #FFBF00",
"4$	c #D10100",
"5$	c #D40400",
"6$	c #D60600",
"7$	c #D50500",
"8$	c #D40200",
"9$	c #D50200",
"0$	c #D60200",
"a$	c #D70200",
"b$	c #D80200",
"c$	c #DA0200",
"d$	c #DC0200",
"e$	c #DF0300",
"f$	c #E50900",
"g$	c #E80F00",
"h$	c #EC1800",
"i$	c #ED1C00",
"j$	c #EF2700",
"k$	c #F03400",
"l$	c #F13A00",
"m$	c #F24800",
"n$	c #F35700",
"o$	c #F46800",
"p$	c #F57300",
"q$	c #F68700",
"r$	c #F79500",
"s$	c #F89400",
"t$	c #F99800",
"u$	c #FA9900",
"v$	c #FB9200",
"w$	c #FC8000",
"x$	c #FD7300",
"y$	c #FE7000",
"z$	c #FF7300",
"A$	c #FF8100",
"B$	c #FF8E00",
"C$	c #FF9A00",
"D$	c #FFA800",
"E$	c #FFB200",
"F$	c #FFBB00",
"G$	c #FFCB00",
"H$	c #FFE800",
"I$	c #DD0700",
"J$	c #E21000",
"K$	c #E61600",
"L$	c #E91E00",
"M$	c #ED2A00",
"N$	c #EF3300",
"O$	c #F13B00",
"P$	c #F24700",
"Q$	c #F35100",
"R$	c #F45D00",
"S$	c #F56900",
"T$	c #F67000",
"U$	c #F76800",
"V$	c #F86400",
"W$	c #F96300",
"X$	c #FA5000",
"Y$	c #FB3A00",
"Z$	c #FC2B00",
"`$	c #FD2800",
" %	c #FE2E00",
".%	c #FF3C00",
"+%	c #FF4400",
"@%	c #FF5600",
"#%	c #FF6C00",
"$%	c #FF8500",
"%%	c #FF9400",
"&%	c #FFA500",
"*%	c #FFB300",
"=%	c #FFBE00",
"-%	c #D60300",
";%	c #D70400",
">%	c #D90300",
",%	c #DD0500",
"'%	c #E00700",
")%	c #E51000",
"!%	c #E91700",
"~%	c #EC1F00",
"{%	c #EF2A00",
"]%	c #F13000",
"^%	c #F22E00",
"/%	c #F22A00",
"(%	c #F21C00",
"_%	c #F20F00",
":%	c #F30400",
"<%	c #F50100",
"[%	c #F70300",
"}%	c #FA0500",
"|%	c #FD1100",
"1%	c #FF1E00",
"2%	c #FF2D00",
"3%	c #FF3E00",
"4%	c #FF5100",
"5%	c #FF6600",
"6%	c #FF7400",
"7%	c #FF8800",
"8%	c #FF9600",
"9%	c #FFA100",
"0%	c #FFAE00",
"a%	c #E00000",
"b%	c #E30000",
"c%	c #E60000",
"d%	c #E80200",
"e%	c #EA0300",
"f%	c #EF0000",
"g%	c #F10000",
"h%	c #F40000",
"i%	c #F70000",
"j%	c #F90000",
"k%	c #FC0000",
"l%	c #FF0000",
"m%	c #FF1200",
"n%	c #FF2800",
"o%	c #FF3D00",
"p%	c #FF4B00",
"q%	c #FF5900",
"r%	c #FF6800",
"s%	c #FF7500",
"t%	c #FF8200",
"u%	c #FF9900",
"v%	c #E90000",
"w%	c #EC0000",
"x%	c #FF0F00",
"y%	c #FF4A00",
"z%	c #FF7700",
". . . . . . . . . . . . . . . . . . . . . . . . . . . . . . . . . . . . + @ # $ % & * = - ; > , ' ) ! ~ { ] ^ / ( _ : < [ } | 1 2 3 4 5 6 7 8 9 0 a b c d e f g h i j k l m n n n n n n n n n n n n n n n n n n n n n n n n n n n n n n n n n n n n n n n n n n ",
". . . . . . . . . . . . . . . . . . . . . . . . . . . . . . . . . . . . o # p q = - r s t u v w x y z A B C D E F G H I J K L M N O P Q R S 7 T b c U e V W X Y Z h i k l m n n n n n n n n n n n n n n n n n n n n n n n n n n n n n n n n n n n n n n n n n n ",
". . . . . . . . . . . . . . . . . . . . . . . . . . . . . . . . + @ # $ & r `  ...+.@.#.$.%.&.*.=.-.;.>.>.,.'.).!.~.{.].^./.(._.:.<.[.}.|.1.2.3.4.5.6.d e f X 7.h i k 8.m m n n n n n n n n n n n n n n n n n n n n n n n n n n n n n n n n n n n n n n n n n n ",
". . . . . . . . . . . . . . . . . . . . . . . . . . . . . 9.# p & * 0.= r a.b.c.d.e.f.g.h.i.j.k.l.m.n.o.p.q.r.s.t.u.v.w.x.y.z.A.B.C.D.E.F.G.H.I.J.K.L.M.N.O.Y Z P.Q.i k l m n n n n n n n n n n n n n n n n n n n n n n n n n n n n n n n n n n n n n n n n n n ",
". . . . . . . . . . . . . . . . . . . . . . 9.+ o o @ R.$ % S.* = T.U.V.W.X.Y.Z.`. +.+++@+#+$+%+&+*+=+-+;+>+,+'+)+!+~+{+]+^+/+(+_+:+<+[+}+T 0 L.|+b 1+c d V f Y h i k 8.m 2+n n n n n n n n n n n n n n n n n n n n n n n n n n n n n n n n n n n n n n n n n n ",
". . . . . . . . . . . . . . . . . . . . . . . . 9.3+# 4+p 5+S.0.6+7+r ; 8+9+` 0+a+b+c+d+e+f+g+h+i+j+k+l+m+>+n+o+p+q+r+s+t+u+v+w+x+y+z+A+B+C+D+c E+F+e O.O.f G+g P.Q.j 8.m 2+n n n n n n n n n n n n n n n n n n n n n n n n n n n n n n n n n n n n n n n n n n ",
". . . . . . . . . . . . . . . . . . . . . . . . . . . 9.o @ # H+% S.= T.I+U.J+K+u w L+) M+] ^ N+O+P+Q+R+S+T+U+'+V+W+X+Y+Z+`+ @.@+@:+@@#@$@5.%@&@*@6.E+F+N.e f Y Z Q.j 8.m 2+n n n n n n n n n n n n n n n n n n n n n n n n n n n n n n n n n n n n n n n n n n ",
". . . . . . . . . . . . . . . . . . . . . . . . . . . . . . + 3+=@4+4+% 0.8+K+, ' ~ -@;@>@^ F ,@'@)@!@~@{@]@^@/@(@_@:@<@[@}@|@1@2@3@<+4@5@1+5.C+D+c M.F+e W X Y Z h i k 8.2+n n n n n n n n n n n n n n n n n n n n n n n n n n n n n n n n n n n n n n n n n n ",
". . . . . . . . . . . . . . . . 9.. 9.9.. . 9.. . + o @ # $ p p S.6+; 8+s > K+v w ) 6@M+7@8@9@0@a@b@c@d@e@f@g@h@(@i@j@k@l@m@n@o@p@q@r@s@t@u@0 L.v@&@*@M.d w@O.X 7.P.j 8.m 2+n n n n n n n n n n n n n n n n n n n n n n n n n n n n n n n n n n n n n n n n n n ",
". . . . . . . . . . . . . . . . 9.o 3+@ @ # # R.5+x@= = x@0.= 6+6+T.I+U.> v w ) y@z@A@B@C@D@E@F@i+G@H@-+I@>+J@K@L@M@N@O@P@Q@R@S@T@U@V@W@X@Y@Z@`@ #%@.#E+d w@W G+7.h i k 8.2+n n n n n n n n n n n n n n n n n n n n n n n n n n n n n n n n n n n n n n n n n n ",
". . . . . . . . . . . . . . . . . 9.+ 3+$ p 5+* 6+I++#@###a.$#%#&#*#Y.=#-#;#>#,#'#)#!#~#{#]#^#/#(#_#:#<#[#}#|#1#2#3#4#5#6#7#8#9#0#a#b#s@X@Y@Z@Z@c#b D+M.F+d e V f g P.Q.8.2+n n n n n n n n n n n n n n n n n n n n n n n n n n n n n n n n n n n n n n n n n n ",
". . . . . . . . . . . . . . . . . . 9.9.+ 3+R.q x@= - I+d#e#f#g#h#i#j#k#l#m#n#o#p#q#r#s#t#i.u#v#w#x#y#z#A#B#C#D#E#F#G#H#I#J#K#L#M#N#b#O#P#Q#R#u@S#L.|+C+.#6.F+e O.W Y P.j 8.n n n n n n n n n n n n n n n n n n n n n n n n n n n n n n n n n n n n n n n n n n ",
". . . . . . . . . . . . . . . . . . . . . . 9.o @ R.$ 5+= ; T#*#U#V#W#X#Y#Z#`# $.$+$@$)#!##$$$%$&$*$=$-$;$>$,$'$)$!$~${$]$^$/$($_$:$<$[$}$|$1$2$3$T c# #|+D+M.N.W 7.Q.k m 2+n n n n n n n n n n n n n n n n n n n n n n n n n n n n n n n n n n n n n n n n n n ",
". . . . . . . . . . . . . . . . . . . . . . . . . . . 9.9.3+4+q I+> , ) 4$5$6$7$8$9$0$0$a$b$c$d$e$f$g$h$i$j$k$l$m$n$o$p$q$r$s$t$u$v$w$x$y$z$A$B$C$D$E$F$Y@G$|+*@H$g i l m 2+n n n n n n n n n n n n n n n n n n n n n n n n n n n n n n n n n n n n n n n n n n ",
". . . . . . . . . . . . . . . . . . . . . . . . . . . . . . . . . + @ R.H+S.0.- = 6+r U.U.U.K+' a$I$J$K$L$M$N$O$P$Q$R$S$T$U$V$W$X$Y$Z$`$ %.%+%@%#%$%%%&%*%=%`@ #|+E+f Z k 2+n n n n n n n n n n n n n n n n n n n n n n n n n n n n n n n n n n n n n n n n n n ",
". . . . . . . . . . . . . . . . . . . . . . . . . . . . . . . . . . . . + @ # $ % & * = - r 8+s u ) -%;%>%,%'%)%!%~%{%]%^%/%(%_%:%<%[%}%|%1%2%3%4%5%6%7%8%9%0%2$3$1+&@U g k n n n n n n n n n n n n n n n n n n n n n n n n n n n n n n n n n n n n n n n n n n ",
". . . . . . . . . . . . . . . . . . . . . . . . . . . . . . . . . . . . + @ # $ % & * = - r 8+s K+, ' ! 6@7@;@>@F a%b%c%d%e%K f%g%h%i%j%k%l%m%n%o%p%q%r%s%t%B$u%J.*%Y@ #6.X n n n n n n n n n n n n n n n n n n n n n n n n n n n n n n n n n n n n n n n n n n ",
". . . . . . . . . . . . . . . . . . . . . . . . . . . . . . . . . . . . + @ # $ % & * = - r 8+s K+u w ) 6@7@;@>@^ G H I J v%w%f%g%h%i%j%k%l%x%1%2%.%y%q%r%z%2.8%J.*%Y@ #6.X n n n n n n n n n n n n n n n n n n n n n n n n n n n n n n n n n n n n n n n n n n "};
