/* XPM */
static char * titleIR_xpm[] = {
"128 18 172 2",
"  	g None",
". 	g #313131",
"+ 	g #323232",
"@ 	g #333333",
"# 	g #343434",
"$ 	g #353535",
"% 	g #363636",
"& 	g #373737",
"* 	g #383838",
"= 	g #393939",
"- 	g #3B3B3B",
"; 	g #3C3C3C",
"> 	g #3D3D3D",
", 	g #3E3E3E",
"' 	g #3F3F3F",
") 	g #404040",
"! 	g #424242",
"~ 	g #444444",
"{ 	g #464646",
"] 	g #4B4B4B",
"^ 	g #515151",
"/ 	g #565656",
"( 	g #626262",
"_ 	g #6E6E6E",
": 	g #797979",
"< 	g #888888",
"[ 	g #939393",
"} 	g #9D9D9D",
"| 	g #A7A7A7",
"1 	g #AFAFAF",
"2 	g #B7B7B7",
"3 	g #C1C1C1",
"4 	g #C8C8C8",
"5 	g #C4C4C4",
"6 	g #C3C3C3",
"7 	g #CACACA",
"8 	g #D0D0D0",
"9 	g #D4D4D4",
"0 	g #D5D5D5",
"a 	g #D8D8D8",
"b 	g #DBDBDB",
"c 	g #DDDDDD",
"d 	g #DEDEDE",
"e 	g #DFDFDF",
"f 	g #E0E0E0",
"g 	g #E1E1E1",
"h 	g #E2E2E2",
"i 	g #3A3A3A",
"j 	g #454545",
"k 	g #484848",
"l 	g #4A4A4A",
"m 	g #474747",
"n 	g #434343",
"o 	g #575757",
"p 	g #606060",
"q 	g #6C6C6C",
"r 	g #7E7E7E",
"s 	g #8E8E8E",
"t 	g #A3A3A3",
"u 	g #C2C2C2",
"v 	g #D3D3D3",
"w 	g #D7D7D7",
"x 	g #D9D9D9",
"y 	g #DADADA",
"z 	g #DCDCDC",
"A 	g #4F4F4F",
"B 	g #545454",
"C 	g #4E4E4E",
"D 	g #5A5A5A",
"E 	g #656565",
"F 	g #6A6A6A",
"G 	g #707070",
"H 	g #727272",
"I 	g #747474",
"J 	g #6B6B6B",
"K 	g #676767",
"L 	g #5E5E5E",
"M 	g #585858",
"N 	g #6D6D6D",
"O 	g #636363",
"P 	g #787878",
"Q 	g #868686",
"R 	g #9C9C9C",
"S 	g #ACACAC",
"T 	g #BCBCBC",
"U 	g #C9C9C9",
"V 	g #5F5F5F",
"W 	g #757575",
"X 	g #7C7C7C",
"Y 	g #818181",
"Z 	g #878787",
"` 	g #8C8C8C",
" .	g #8F8F8F",
"..	g #969696",
"+.	g #989898",
"@.	g #9B9B9B",
"#.	g #9F9F9F",
"$.	g #A1A1A1",
"%.	g #A2A2A2",
"&.	g #9E9E9E",
"*.	g #999999",
"=.	g #949494",
"-.	g #929292",
";.	g #909090",
">.	g #919191",
",.	g #ADADAD",
"'.	g #B8B8B8",
").	g #D1D1D1",
"!.	g #595959",
"~.	g #717171",
"{.	g #828282",
"].	g #8D8D8D",
"^.	g #959595",
"/.	g #A4A4A4",
"(.	g #A6A6A6",
"_.	g #A9A9A9",
":.	g #AAAAAA",
"<.	g #AEAEAE",
"[.	g #B1B1B1",
"}.	g #B3B3B3",
"|.	g #B9B9B9",
"1.	g #BDBDBD",
"2.	g #BEBEBE",
"3.	g #BFBFBF",
"4.	g #C0C0C0",
"5.	g #C7C7C7",
"6.	g #696969",
"7.	g #B5B5B5",
"8.	g #C5C5C5",
"9.	g #C6C6C6",
"0.	g #CCCCCC",
"a.	g #CECECE",
"b.	g #8B8B8B",
"c.	g #ABABAB",
"d.	g #B4B4B4",
"e.	g #BBBBBB",
"f.	g #CBCBCB",
"g.	g #CDCDCD",
"h.	g #CFCFCF",
"i.	g #414141",
"j.	g #494949",
"k.	g #8A8A8A",
"l.	g #B0B0B0",
"m.	g #B6B6B6",
"n.	g #767676",
"o.	g #A5A5A5",
"p.	g #D6D6D6",
"q.	g #858585",
"r.	g #898989",
"s.	g #525252",
"t.	g #555555",
"u.	g #616161",
"v.	g #979797",
"w.	g #7D7D7D",
"x.	g #7B7B7B",
"y.	g #808080",
"z.	g #4D4D4D",
"A.	g #5B5B5B",
"B.	g #666666",
"C.	g #777777",
"D.	g #737373",
"E.	g #646464",
"F.	g #5D5D5D",
"G.	g #A0A0A0",
"H.	g #535353",
"I.	g #B2B2B2",
"J.	g #BABABA",
"K.	g #7A7A7A",
"L.	g #6F6F6F",
"M.	g #7F7F7F",
"N.	g #9A9A9A",
"O.	g #4C4C4C",
". . . . . . . . . . . . . . . . . . . . . . . . . . . . . . . . . . . . + @ @ # $ % % & * = - ; > , , ' ' ) ! ! ~ { ] ^ / ( _ : < [ } | 1 2 3 4 5 6 7 8 9 0 a b c d e f f g h h h h h h h h h h h h h h h h h h h h h h h h h h h h h h h h h h h h h h h h h h ",
". . . . . . . . . . . . . . . . . . . . . . . . . . . . . . . . . . . . + @ $ % & * = i ; ; ; > , ) ! j k l ] m ! ! n ~ j m l ^ o p q r s t 2 u 7 8 v 0 w a x y z c d f f g h h h h h h h h h h h h h h h h h h h h h h h h h h h h h h h h h h h h h h h h h h ",
". . . . . . . . . . . . . . . . . . . . . . . . . . . . . . . . + @ @ # % = > j l A B C ] A B D p E F _ _ G H I J K L B ] l M E J N O F P Q R S T U 8 9 0 a x b c d f g g g h h h h h h h h h h h h h h h h h h h h h h h h h h h h h h h h h h h h h h h h h h ",
". . . . . . . . . . . . . . . . . . . . . . . . . . . . . . @ $ % % & & = ; ~ A D V F H W X Y Z `  .[ ..+.@.#.$.%.#.&.*.=.-.;.>.=.-.;.>.-.=.} | ,.'.4 ).9 w y z c d d f f g h h h h h h h h h h h h h h h h h h h h h h h h h h h h h h h h h h h h h h h h h h ",
". . . . . . . . . . . . . . . . . . . . . . . + + + @ @ # $ % % & = i ; > ' ~ m ] C !.~.{.].^.} $./.(.| _.:.,.<.[.[.}.|.1.2.3.4.3 3 3.2.3.u 5 4 7 7 5.8 9 w a y c d f g g h h h h h h h h h h h h h h h h h h h h h h h h h h h h h h h h h h h h h h h h h h h ",
". . . . . . . . . . . . . . . . . . . . . . . . . + @ # $ $ % & * * = = i - > , ) ! { C D 6.P Q >.*.#.t (.:.1 }.7.'.T 2.3.4.4.6 5 8.9.U 7 0.a.8 ).v 0 w w a y b c d e g g h h h h h h h h h h h h h h h h h h h h h h h h h h h h h h h h h h h h h h h h h h h ",
". . . . . . . . . . . . . . . . . . . . . . . . . . . . + @ @ # $ % & = = i - - ; > , , ' ) ! m ^ V J : b.} c.<.d.|.e.e.e.e.T 2.3.3 6 9.4 U f.g.h.8 ).v 9 0 a y z d e g g h h h h h h h h h h h h h h h h h h h h h h h h h h h h h h h h h h h h h h h h h h h ",
". . . . . . . . . . . . . . . . . . . . . . . . . . . . . . + + @ # # $ & i - ; > ' ) ) i.! ! ~ j.o _ k.#.S l.}.2 e.T 1.|.m.2 |.'.e.3.u 5 5.U 0.a.8 ).v 0 a x y z c d f g h h h h h h h h h h h h h h h h h h h h h h h h h h h h h h h h h h h h h h h h h h h ",
". . . . . . . . . . . . . . . . . . . . . . . . . + + @ @ # $ $ % * = i i - - ; > , , ' ' i.j C L n.>.%.S [.}.m.2 l.S (.o././.| c.[.m.T 3.3 5 4 f.g.h.).9 p.w x b c e g g h h h h h h h h h h h h h h h h h h h h h h h h h h h h h h h h h h h h h h h h h h h ",
". . . . . . . . . . . . . . . . . + + @ @ @ @ @ $ & & & & & & * * = = i - ; > , ) ! j j.A o q q.>.*.$.| c.:.S o.&.s ` r.k.-.=.*.@.o.7.T 2.2.4.6 5.f.a.).9 p.a y b c d f g h h h h h h h h h h h h h h h h h h h h h h h h h h h h h h h h h h h h h h h h h h h ",
". . . . . . . . . . . . . . . . . . + + # $ $ % * = - > ; ; > , ) i.~ k l C s.t.D L u.6.H : q.].-.=.v.*.+.b.b.{.w.x.X r r y.Q ^.| d.e.T 2.2.4.4.9.7 a.).v 9 0 w a b c d g h h h h h h h h h h h h h h h h h h h h h h h h h h h h h h h h h h h h h h h h h h h ",
". . . . . . . . . . . . . . . . . . . . + + @ % & & * = ) ~ { l z.A ^ t.o A.L u.B.F N H C.X y.w.P : : P D.E.u.A.!.F.( q x.;.G.:.d.|.e.1.1.3.4.3 8.4 7 0.a.8 v 0 w a y c e g h h h h h h h h h h h h h h h h h h h h h h h h h h h h h h h h h h h h h h h h h h ",
". . . . . . . . . . . . . . . . . . . . . . . + @ @ # $ & = > i.~ k ] z.^ H.t.t.B M D L u.O p D A j.k l ] C s.o V F C.y.>.G.S l.d.m.m.d.7.I.d.|.1.u 9.5.7 a.).9 a b d f g h h h h h h h h h h h h h h h h h h h h h h h h h h h h h h h h h h h h h h h h h h h ",
". . . . . . . . . . . . . . . . . . . . . . . . . . . . . + # % = - ; , ' i.n ! ) i.i.i.i.i.! n ~ l C B o L B.F D.X Q ].*.%.$./.o.$.v. .s ;.+.G.| 1 7.J.2.5 7 h.0 b d f g h h h h h h h h h h h h h h h h h h h h h h h h h h h h h h h h h h h h h h h h h h h ",
". . . . . . . . . . . . . . . . . . . . . . . . . . . . . . . . . + @ @ # % & * & * = i i i - > i.{ z.^ o V E J H P y.Z b.Z q.q.K.N E.O K L.I M.` N.t ,.m.T 6 5.7 ).a z f h h h h h h h h h h h h h h h h h h h h h h h h h h h h h h h h h h h h h h h h h h h ",
". . . . . . . . . . . . . . . . . . . . . . . . . . . . . . . . . . . . + @ @ # $ % % & * = i i ; , i.! ! j m C H.!.p E.O u.!.^ ] l ] z.t.L K ~.X < ;.R o.c.}.|.1.5.g.v b f h h h h h h h h h h h h h h h h h h h h h h h h h h h h h h h h h h h h h h h h h h ",
". . . . . . . . . . . . . . . . . . . . . . . . . . . . . . . . . . . . + @ @ # $ % % & * = i i - ; > , , ' ) i.! n ~ j { m m m k j.l l ] O.o E.G P Y r.>.*.G.(.,.m.2.5.8 x h h h h h h h h h h h h h h h h h h h h h h h h h h h h h h h h h h h h h h h h h h ",
". . . . . . . . . . . . . . . . . . . . . . . . . . . . . . . . . . . . + @ @ # $ % % & * = i i - ; > , , ' ) i.! ! n ~ j j { m k j.l l ] O.t.L K L.P Y r.-.R o.,.m.2.5.8 x h h h h h h h h h h h h h h h h h h h h h h h h h h h h h h h h h h h h h h h h h h "};
